<svg width="35" height="23" viewBox="0 0 35 23" fill="none" xmlns="http://www.w3.org/2000/svg">
<path d="M34.3965 22.9422H0.603475C0.270224 22.9422 0 22.6726 0 22.34V0.659871C0 0.327294 0.270224 0.0576172 0.603475 0.0576172H34.3965C34.7298 0.0576172 35 0.327294 35 0.659871V22.34C34.9999 22.6726 34.7297 22.9422 34.3965 22.9422Z" fill="#41479B"/>
<path d="M16.8965 0.0576172H15.8482L10.2585 3.71249V0.0576172H7.24128V3.71249L1.65156 0.0576172H0.603474C0.270224 0.0576172 0 0.327226 0 0.659804V1.13749L4.79573 4.27313H0V7.28427H4.79573L0 10.42V10.8977C0 11.2302 0.270224 11.4999 0.603474 11.4999H1.65169L7.24142 7.84505V11.4999H10.2587V7.84505L15.8483 11.4999H16.8965C17.2298 11.4999 17.5 11.2302 17.5 10.8977V10.42L12.7043 7.28434H17.4999V4.2732H12.7042L17.4999 1.13756V0.659873C17.4999 0.327227 17.2297 0.0576172 16.8965 0.0576172Z" fill="#F5F5F5"/>
<path d="M17.5 4.87546H9.65515V0.0576172H7.84485V4.87546H0V6.68209H7.84485V11.4999H9.65515V6.68209H17.5V4.87546Z" fill="#FF4B55"/>
<path d="M6.73077 4.09608L0.291611 0.0576172C0.120263 0.162361 0 0.338429 0 0.548854V0.579527L5.60688 4.09608H6.73077Z" fill="#FF4B55"/>
<path d="M11.2445 4.09608L17.5005 0.346942C17.3918 0.177086 17.1999 0.0576172 16.9707 0.0576172H16.8355L10.0967 4.09608H11.2445Z" fill="#FF4B55"/>
<path d="M6.25413 7.46094L0 11.2029C0.107846 11.3769 0.302975 11.4994 0.535967 11.4994H0.654023L7.40385 7.46094H6.25413Z" fill="#FF4B55"/>
<path d="M17.5003 11.0171L11.8732 7.46094H10.7695L17.1595 11.4994C17.351 11.4129 17.4823 11.2316 17.5003 11.0171Z" fill="#FF4B55"/>
<path d="M8.87704 14.9628L9.32328 16.4719L10.7533 15.8884C10.8754 15.8386 10.9863 15.9812 10.9118 16.0919L10.0382 17.3902L11.3751 18.1717C11.4892 18.2384 11.4496 18.4161 11.3186 18.4255L9.78298 18.5353L10.0201 20.0934C10.0404 20.2263 9.88002 20.3054 9.79122 20.2063L8.74992 19.0449L7.70863 20.2063C7.61983 20.3054 7.45949 20.2263 7.47972 20.0934L7.71687 18.5353L6.18125 18.4255C6.05025 18.4161 6.01067 18.2384 6.12473 18.1717L7.46164 17.3902L6.58804 16.0919C6.51357 15.9812 6.62448 15.8386 6.7465 15.8884L8.17657 16.4719L8.62281 14.9628C8.66105 14.834 8.839 14.834 8.87704 14.9628Z" fill="#F5F5F5"/>
<path d="M26.987 4.14497L27.2101 4.89951L27.925 4.60781C27.986 4.58295 28.0415 4.65416 28.0042 4.70956L27.5675 5.35877L28.2359 5.74955C28.2929 5.78284 28.2731 5.87174 28.2076 5.87637L27.4399 5.93129L27.5584 6.71026C27.5685 6.77676 27.4883 6.8163 27.4439 6.76672L26.9233 6.18605L26.4027 6.76672C26.3583 6.81623 26.2781 6.77669 26.2882 6.71026L26.4067 5.93129L25.639 5.87637C25.5735 5.87174 25.5537 5.78284 25.6107 5.74955L26.2791 5.35877L25.8424 4.70956C25.8051 4.65416 25.8606 4.58295 25.9216 4.60781L26.6365 4.89951L26.8596 4.14497C26.879 4.08058 26.968 4.08058 26.987 4.14497Z" fill="#F5F5F5"/>
<path d="M21.6022 9.52974L21.8253 10.2843L22.5403 9.99258C22.6012 9.96772 22.6567 10.0389 22.6195 10.0943L22.1827 10.7435L22.8511 11.1343C22.9082 11.1676 22.8884 11.2565 22.8228 11.2611L22.0551 11.3161L22.1736 12.095C22.1838 12.1615 22.1036 12.2011 22.0592 12.1515L21.5385 11.5708L21.0179 12.1515C20.9735 12.201 20.8934 12.1615 20.9034 12.095L21.022 11.3161L20.2542 11.2611C20.1887 11.2565 20.1689 11.1676 20.2259 11.1343L20.8943 10.7435L20.4576 10.0943C20.4203 10.0389 20.4759 9.96772 20.5368 9.99258L21.2517 10.2843L21.4749 9.52974C21.4942 9.46535 21.5832 9.46535 21.6022 9.52974Z" fill="#F5F5F5"/>
<path d="M31.6979 7.51021L31.921 8.26475L32.636 7.97304C32.6969 7.94818 32.7524 8.01939 32.7151 8.0748L32.2784 8.724L32.9468 9.11479C33.0039 9.14807 32.9841 9.23697 32.9185 9.24161L32.1508 9.29652L32.2693 10.0755C32.2795 10.142 32.1993 10.1815 32.1549 10.132L31.6343 9.55129L31.1136 10.132C31.0692 10.1815 30.9891 10.1419 30.9992 10.0755L31.1177 9.29652L30.3499 9.24161C30.2844 9.23697 30.2646 9.14807 30.3216 9.11479L30.9901 8.724L30.5533 8.0748C30.516 8.01939 30.5716 7.94818 30.6325 7.97304L31.3475 8.26475L31.5706 7.51021C31.5899 7.44582 31.6788 7.44582 31.6979 7.51021Z" fill="#F5F5F5"/>
<path d="M26.987 16.9331L27.2101 17.6876L27.925 17.3958C27.986 17.371 28.0415 17.4422 28.0042 17.4976L27.5675 18.1468L28.2359 18.5376C28.2929 18.5709 28.2731 18.6598 28.2076 18.6644L27.4399 18.7194L27.5584 19.4983C27.5685 19.5648 27.4883 19.6044 27.4439 19.5548L26.9233 18.9741L26.4027 19.5548C26.3583 19.6043 26.2781 19.5648 26.2882 19.4983L26.4067 18.7194L25.639 18.6644C25.5735 18.6598 25.5537 18.5709 25.6107 18.5376L26.2791 18.1468L25.8424 17.4976C25.8051 17.4422 25.8606 17.371 25.9216 17.3958L26.6365 17.6876L26.8596 16.9331C26.879 16.8687 26.968 16.8687 26.987 16.9331Z" fill="#F5F5F5"/>
<path d="M28.5235 10.8889L28.3211 11.5242L27.6814 11.5294C27.5986 11.5301 27.5642 11.6407 27.6309 11.6922L28.1455 12.09L27.9525 12.7285C27.9276 12.8112 28.0175 12.8796 28.0848 12.8291L28.6053 12.4397L29.1258 12.8291C29.1932 12.8796 29.2831 12.8111 29.2581 12.7285L29.0651 12.09L29.5797 11.6922C29.6464 11.6406 29.612 11.5301 29.5292 11.5294L28.8895 11.5242L28.6871 10.8889C28.6609 10.8066 28.5497 10.8066 28.5235 10.8889Z" fill="#F5F5F5"/>
</svg>
