<svg width="36" height="35" viewBox="0 0 36 35" fill="none" xmlns="http://www.w3.org/2000/svg">
<g clip-path="url(#clip0_1_3455)">
<path d="M34.5586 28.9652H0.765585C0.432334 28.9652 0.162109 28.695 0.162109 28.3617V6.63765C0.162109 6.3044 0.432334 6.03418 0.765585 6.03418H34.5586C34.8919 6.03418 35.1621 6.3044 35.1621 6.63765V28.3617C35.162 28.6951 34.8918 28.9652 34.5586 28.9652Z" fill="#F5F5F5"/>
<path d="M27.3179 6.03418H8.00781V28.9653H27.3179V6.03418Z" fill="#F5F5F5"/>
<path d="M0.765585 6.03418C0.432333 6.03418 0.162109 6.30434 0.162109 6.63759V28.3617C0.162109 28.6949 0.432333 28.9651 0.765585 28.9651H8.00695V6.03418H0.765585Z" fill="#FF4B55"/>
<path d="M34.5587 6.03418H27.3174V28.9652H34.5587C34.892 28.9652 35.1622 28.6949 35.1622 28.3617V6.63759C35.1622 6.30434 34.892 6.03418 34.5587 6.03418Z" fill="#FF4B55"/>
<path d="M21.3241 20.1492L24.9049 18.103L24.0832 17.6922C23.8528 17.577 23.7209 17.3281 23.755 17.0727L24.0223 15.0682L22.5063 15.5093C22.1714 15.6068 21.8239 15.4007 21.7486 15.0602L21.6034 14.404L20.1799 16.0699C19.9826 16.3008 19.6067 16.1245 19.6581 15.825L20.2661 12.2903L19.3354 12.5449C19.0635 12.6193 18.7764 12.4955 18.6438 12.2468L17.6638 10.41V10.4072L17.6631 10.4086L17.6623 10.4072V10.41L16.6823 12.2468C16.5496 12.4955 16.2625 12.6192 15.9906 12.5449L15.0598 12.2903L15.6677 15.825C15.7192 16.1243 15.3432 16.3008 15.1459 16.0699L13.7224 14.404L13.5773 15.0602C13.5019 15.4008 13.1544 15.6067 12.8195 15.5093L11.3035 15.0682L11.5708 17.0727C11.6049 17.3281 11.473 17.577 11.2426 17.6922L10.4209 18.103L14.0018 20.1492C14.3727 20.3612 14.5352 20.8108 14.3856 21.2109L14.0795 22.0296L17.1478 21.7676C17.3176 21.7532 17.4621 21.8899 17.4571 22.0602L17.3605 25.3444H17.9639L17.8672 22.06C17.8622 21.8897 18.0067 21.753 18.1765 21.7675L21.2463 22.0296L20.9402 21.2109C20.7907 20.8107 20.9531 20.3611 21.3241 20.1492Z" fill="#FF4B55"/>
</g>
<defs>
<clipPath id="clip0_1_3455">
<rect width="35" height="35" fill="white" transform="translate(0.162109)"/>
</clipPath>
</defs>
</svg>
