<svg width="35" height="35" viewBox="0 0 35 35" fill="none" xmlns="http://www.w3.org/2000/svg">
<g clip-path="url(#clip0_1_3462)">
<path d="M34.3965 28.9652H0.603475C0.270224 28.9652 0 28.695 0 28.3618V6.63765C0 6.3044 0.270224 6.03418 0.603475 6.03418H34.3965C34.7298 6.03418 35 6.3044 35 6.63765V28.3618C34.9999 28.6951 34.7297 28.9652 34.3965 28.9652Z" fill="#41479B"/>
<path d="M17.7451 8.66029L17.9871 9.38578L18.7518 9.39173C18.8509 9.39248 18.8919 9.51881 18.8123 9.57767L18.197 10.032L18.4277 10.7611C18.4576 10.8554 18.3501 10.9336 18.2695 10.876L17.6474 10.4313L17.0252 10.876C16.9447 10.9336 16.8372 10.8555 16.867 10.7611L17.0977 10.032L16.4825 9.57767C16.4028 9.51881 16.4438 9.39248 16.5429 9.39173L17.3076 9.38578L17.5496 8.66029C17.5809 8.56636 17.7138 8.56636 17.7451 8.66029Z" fill="#FFE15A"/>
<path d="M17.7451 24.2365L17.9871 24.962L18.7518 24.9679C18.8509 24.9687 18.8919 25.095 18.8123 25.1538L18.197 25.6082L18.4277 26.3373C18.4576 26.4316 18.3501 26.5098 18.2695 26.4522L17.6474 26.0074L17.0252 26.4522C16.9447 26.5097 16.8372 26.4317 16.867 26.3373L17.0977 25.6082L16.4825 25.1538C16.4028 25.095 16.4438 24.9687 16.5429 24.9679L17.3076 24.962L17.5496 24.2365C17.5809 24.1425 17.7138 24.1425 17.7451 24.2365Z" fill="#FFE15A"/>
<path d="M25.5342 16.4484L25.7762 17.1739L26.5409 17.1798C26.64 17.1806 26.681 17.3069 26.6013 17.3658L25.9861 17.8201L26.2168 18.5492C26.2466 18.6435 26.1392 18.7217 26.0586 18.6641L25.4364 18.2194L24.8143 18.6641C24.7338 18.7217 24.6262 18.6436 24.6561 18.5492L24.8868 17.8201L24.2715 17.3658C24.1919 17.3069 24.2329 17.1806 24.3319 17.1798L25.0967 17.1739L25.3387 16.4484C25.3699 16.3544 25.5029 16.3544 25.5342 16.4484Z" fill="#FFE15A"/>
<path d="M9.95704 16.4484L10.199 17.1739L10.9638 17.1798C11.0628 17.1806 11.1038 17.3069 11.0242 17.3658L10.409 17.8201L10.6396 18.5492C10.6695 18.6435 10.562 18.7217 10.4814 18.6641L9.85928 18.2194L9.23714 18.6641C9.15662 18.7217 9.04909 18.6436 9.07896 18.5492L9.3096 17.8201L8.69437 17.3658C8.61473 17.3069 8.65575 17.1806 8.7548 17.1798L9.51954 17.1739L9.76153 16.4484C9.79284 16.3544 9.9258 16.3544 9.95704 16.4484Z" fill="#FFE15A"/>
<path d="M11.126 12.381L11.368 13.1065L12.1327 13.1124C12.2318 13.1132 12.2728 13.2395 12.1931 13.2984L11.5779 13.7527L11.8085 14.4818C11.8384 14.5761 11.731 14.6543 11.6504 14.5967L11.0282 14.152L10.4061 14.5967C10.3256 14.6543 10.218 14.5762 10.2479 14.4818L10.4785 13.7527L9.86332 13.2984C9.78368 13.2395 9.82469 13.1132 9.92375 13.1124L10.6885 13.1065L10.9305 12.381C10.9618 12.2871 11.0946 12.2871 11.126 12.381Z" fill="#FFE15A"/>
<path d="M24.6152 20.1701L24.8572 20.8956L25.622 20.9015C25.721 20.9023 25.762 21.0286 25.6824 21.0874L25.0672 21.5418L25.2978 22.2709C25.3277 22.3652 25.2202 22.4434 25.1396 22.3858L24.5175 21.941L23.8953 22.3858C23.8148 22.4433 23.7073 22.3653 23.7372 22.2709L23.9678 21.5418L23.3526 21.0874C23.2729 21.0286 23.314 20.9023 23.413 20.9015L24.1777 20.8956L24.4197 20.1701C24.451 20.0761 24.5839 20.0761 24.6152 20.1701Z" fill="#FFE15A"/>
<path d="M21.7656 9.53041L22.0076 10.2559L22.7724 10.2618C22.8714 10.2626 22.9124 10.3889 22.8328 10.4478L22.2175 10.9021L22.4482 11.6312C22.4781 11.7256 22.3706 11.8038 22.29 11.7461L21.6679 11.3014L21.0457 11.7461C20.9652 11.8037 20.8577 11.7256 20.8876 11.6312L21.1182 10.9021L20.503 10.4478C20.4233 10.3889 20.4643 10.2626 20.5634 10.2618L21.3281 10.2559L21.5701 9.53041C21.6014 9.43648 21.7342 9.43648 21.7656 9.53041Z" fill="#FFE15A"/>
<path d="M13.9766 23.0206L14.2186 23.7461L14.9833 23.7521C15.0823 23.7528 15.1234 23.8792 15.0437 23.938L14.4285 24.3923L14.6591 25.1215C14.689 25.2158 14.5815 25.294 14.5009 25.2364L13.8788 24.7916L13.2567 25.2364C13.1761 25.2939 13.0686 25.2159 13.0985 25.1215L13.3291 24.3923L12.7139 23.938C12.6343 23.8792 12.6753 23.7528 12.7743 23.7521L13.5391 23.7461L13.7811 23.0206C13.8124 22.9267 13.9452 22.9267 13.9766 23.0206Z" fill="#FFE15A"/>
<path d="M24.4197 12.381L24.1777 13.1065L23.413 13.1124C23.314 13.1132 23.2729 13.2395 23.3526 13.2984L23.9678 13.7527L23.7372 14.4818C23.7073 14.5761 23.8148 14.6543 23.8953 14.5967L24.5175 14.152L25.1396 14.5967C25.2201 14.6543 25.3277 14.5762 25.2978 14.4818L25.0672 13.7527L25.6824 13.2984C25.762 13.2395 25.721 13.1132 25.622 13.1124L24.8572 13.1065L24.6152 12.381C24.5839 12.2871 24.451 12.2871 24.4197 12.381Z" fill="#FFE15A"/>
<path d="M10.9305 20.1701L10.6885 20.8956L9.92375 20.9015C9.82469 20.9023 9.78368 21.0286 9.86332 21.0874L10.4785 21.5418L10.2479 22.2709C10.218 22.3652 10.3255 22.4434 10.4061 22.3858L11.0282 21.941L11.6504 22.3858C11.7309 22.4433 11.8384 22.3653 11.8085 22.2709L11.5779 21.5418L12.1931 21.0874C12.2728 21.0286 12.2318 20.9023 12.1327 20.9015L11.368 20.8956L11.126 20.1701C11.0946 20.0761 10.9618 20.0761 10.9305 20.1701Z" fill="#FFE15A"/>
<path d="M13.7811 9.53041L13.5391 10.2559L12.7743 10.2618C12.6753 10.2626 12.6343 10.3889 12.7139 10.4478L13.3291 10.9021L13.0985 11.6312C13.0686 11.7256 13.1761 11.8038 13.2567 11.7461L13.8788 11.3014L14.5009 11.7461C14.5815 11.8037 14.689 11.7256 14.6591 11.6312L14.4285 10.9021L15.0437 10.4478C15.1234 10.3889 15.0823 10.2626 14.9833 10.2618L14.2186 10.2559L13.9766 9.53041C13.9452 9.43648 13.8124 9.43648 13.7811 9.53041Z" fill="#FFE15A"/>
<path d="M21.5691 23.0206L21.3271 23.7461L20.5624 23.7521C20.4634 23.7528 20.4223 23.8792 20.502 23.938L21.1172 24.3923L20.8866 25.1215C20.8567 25.2158 20.9642 25.294 21.0448 25.2364L21.6669 24.7916L22.289 25.2364C22.3696 25.2939 22.4771 25.2159 22.4472 25.1215L22.2166 24.3923L22.8318 23.938C22.9114 23.8792 22.8704 23.7528 22.7714 23.7521L22.0066 23.7461L21.7646 23.0206C21.7333 22.9267 21.6005 22.9267 21.5691 23.0206Z" fill="#FFE15A"/>
</g>
<defs>
<clipPath id="clip0_1_3462">
<rect width="35" height="35" fill="white"/>
</clipPath>
</defs>
</svg>
