<svg width="38" height="37" viewBox="0 0 38 37" fill="none" xmlns="http://www.w3.org/2000/svg">
<path opacity="0.1" fill-rule="evenodd" clip-rule="evenodd" d="M19 1C9.33502 1 1.5 8.83502 1.5 18.5C1.5 28.165 9.33502 36 19 36C28.665 36 36.5 28.165 36.5 18.5C36.5 8.83502 28.665 1 19 1ZM0.5 18.5C0.5 8.28273 8.78273 0 19 0C29.2173 0 37.5 8.28273 37.5 18.5C37.5 28.7173 29.2173 37 19 37C8.78273 37 0.5 28.7173 0.5 18.5Z" fill="white"/>
<path d="M20.876 29.0836V19.2907H23.5793L23.9375 15.916H20.876L20.8806 14.2269C20.8806 13.3467 20.9642 12.8751 22.2284 12.8751H23.9184V9.5H21.2147C17.9672 9.5 16.8241 11.1371 16.8241 13.8902V15.9163H14.7998V19.291H16.8241V29.0836H20.876Z" fill="#F7F8FA"/>
</svg>
