<svg width="20" height="20" viewBox="0 0 20 20" fill="none" xmlns="http://www.w3.org/2000/svg">
<path d="M13.8571 18.9883V19.7383C14.2714 19.7383 14.6071 19.4025 14.6071 18.9883H13.8571ZM1 18.9883H0.25C0.25 19.4025 0.585786 19.7383 1 19.7383L1 18.9883ZM19 19V19.75C19.4142 19.75 19.75 19.4142 19.75 19H19ZM10.5357 4.85463C10.5357 6.56899 9.14525 7.95926 7.42857 7.95926V9.45926C9.97275 9.45926 12.0357 7.39834 12.0357 4.85463H10.5357ZM7.42857 7.95926C5.71189 7.95926 4.32143 6.56899 4.32143 4.85463H2.82143C2.82143 7.39834 4.88439 9.45926 7.42857 9.45926V7.95926ZM4.32143 4.85463C4.32143 3.14026 5.71189 1.75 7.42857 1.75V0.25C4.88439 0.25 2.82143 2.31091 2.82143 4.85463H4.32143ZM7.42857 1.75C9.14525 1.75 10.5357 3.14026 10.5357 4.85463H12.0357C12.0357 2.31091 9.97275 0.25 7.42857 0.25V1.75ZM13.8571 18.2383H1V19.7383H13.8571V18.2383ZM1.75 18.9883C1.75 18.9865 1.75 18.9847 1.75 18.9829C1.75 18.9811 1.75 18.9794 1.75 18.9776C1.75 18.9758 1.75 18.974 1.75 18.9722C1.75 18.9705 1.75 18.9687 1.75 18.9669C1.75 18.9651 1.75 18.9633 1.75 18.9615C1.75 18.9598 1.75 18.958 1.75 18.9562C1.75 18.9544 1.75 18.9526 1.75 18.9509C1.75 18.9491 1.75 18.9473 1.75 18.9455C1.75 18.9437 1.75 18.942 1.75 18.9402C1.75 18.9384 1.75 18.9366 1.75 18.9348C1.75 18.9331 1.75 18.9313 1.75 18.9295C1.75 18.9277 1.75 18.9259 1.75 18.9242C1.75 18.9224 1.75 18.9206 1.75 18.9188C1.75 18.917 1.75 18.9153 1.75 18.9135C1.75 18.9117 1.75 18.9099 1.75 18.9082C1.75 18.9064 1.75 18.9046 1.75 18.9028C1.75 18.901 1.75 18.8993 1.75 18.8975C1.75 18.8957 1.75 18.8939 1.75 18.8922C1.75 18.8904 1.75 18.8886 1.75 18.8868C1.75 18.8851 1.75 18.8833 1.75 18.8815C1.75 18.8797 1.75 18.8779 1.75 18.8762C1.75 18.8744 1.75 18.8726 1.75 18.8708C1.75 18.8691 1.75 18.8673 1.75 18.8655C1.75 18.8637 1.75 18.862 1.75 18.8602C1.75 18.8584 1.75 18.8566 1.75 18.8549C1.75 18.8531 1.75 18.8513 1.75 18.8495C1.75 18.8478 1.75 18.846 1.75 18.8442C1.75 18.8425 1.75 18.8407 1.75 18.8389C1.75 18.8371 1.75 18.8354 1.75 18.8336C1.75 18.8318 1.75 18.83 1.75 18.8283C1.75 18.8265 1.75 18.8247 1.75 18.823C1.75 18.8212 1.75 18.8194 1.75 18.8176C1.75 18.8159 1.75 18.8141 1.75 18.8123C1.75 18.8105 1.75 18.8088 1.75 18.807C1.75 18.8052 1.75 18.8035 1.75 18.8017C1.75 18.7999 1.75 18.7981 1.75 18.7964C1.75 18.7946 1.75 18.7928 1.75 18.7911C1.75 18.7893 1.75 18.7875 1.75 18.7858C1.75 18.784 1.75 18.7822 1.75 18.7805C1.75 18.7787 1.75 18.7769 1.75 18.7751C1.75 18.7734 1.75 18.7716 1.75 18.7698C1.75 18.7681 1.75 18.7663 1.75 18.7645C1.75 18.7628 1.75 18.761 1.75 18.7592C1.75 18.7575 1.75 18.7557 1.75 18.7539C1.75 18.7522 1.75 18.7504 1.75 18.7486C1.75 18.7469 1.75 18.7451 1.75 18.7433C1.75 18.7416 1.75 18.7398 1.75 18.738C1.75 18.7363 1.75 18.7345 1.75 18.7327C1.75 18.731 1.75 18.7292 1.75 18.7274C1.75 18.7257 1.75 18.7239 1.75 18.7221C1.75 18.7204 1.75 18.7186 1.75 18.7168C1.75 18.7151 1.75 18.7133 1.75 18.7115C1.75 18.7098 1.75 18.708 1.75 18.7062C1.75 18.7045 1.75 18.7027 1.75 18.701C1.75 18.6992 1.75 18.6974 1.75 18.6957C1.75 18.6939 1.75 18.6921 1.75 18.6904C1.75 18.6886 1.75 18.6868 1.75 18.6851C1.75 18.6833 1.75 18.6816 1.75 18.6798C1.75 18.678 1.75 18.6763 1.75 18.6745C1.75 18.6727 1.75 18.671 1.75 18.6692C1.75 18.6675 1.75 18.6657 1.75 18.6639C1.75 18.6622 1.75 18.6604 1.75 18.6587C1.75 18.6569 1.75 18.6551 1.75 18.6534C1.75 18.6516 1.75 18.6498 1.75 18.6481C1.75 18.6463 1.75 18.6446 1.75 18.6428C1.75 18.641 1.75 18.6393 1.75 18.6375C1.75 18.6358 1.75 18.634 1.75 18.6323C1.75 18.6305 1.75 18.6287 1.75 18.627C1.75 18.6252 1.75 18.6235 1.75 18.6217C1.75 18.6199 1.75 18.6182 1.75 18.6164C1.75 18.6147 1.75 18.6129 1.75 18.6112C1.75 18.6094 1.75 18.6076 1.75 18.6059C1.75 18.6041 1.75 18.6024 1.75 18.6006C1.75 18.5989 1.75 18.5971 1.75 18.5953C1.75 18.5936 1.75 18.5918 1.75 18.5901C1.75 18.5883 1.75 18.5866 1.75 18.5848C1.75 18.583 1.75 18.5813 1.75 18.5795C1.75 18.5778 1.75 18.576 1.75 18.5743C1.75 18.5725 1.75 18.5708 1.75 18.569C1.75 18.5673 1.75 18.5655 1.75 18.5637C1.75 18.562 1.75 18.5602 1.75 18.5585C1.75 18.5567 1.75 18.555 1.75 18.5532C1.75 18.5515 1.75 18.5497 1.75 18.548C1.75 18.5462 1.75 18.5445 1.75 18.5427C1.75 18.541 1.75 18.5392 1.75 18.5374C1.75 18.5357 1.75 18.5339 1.75 18.5322C1.75 18.5304 1.75 18.5287 1.75 18.5269C1.75 18.5252 1.75 18.5234 1.75 18.5217C1.75 18.5199 1.75 18.5182 1.75 18.5164C1.75 18.5147 1.75 18.5129 1.75 18.5112C1.75 18.5094 1.75 18.5077 1.75 18.5059C1.75 18.5042 1.75 18.5024 1.75 18.5007C1.75 18.4989 1.75 18.4972 1.75 18.4954C1.75 18.4937 1.75 18.4919 1.75 18.4902C1.75 18.4884 1.75 18.4867 1.75 18.4849C1.75 18.4832 1.75 18.4814 1.75 18.4797C1.75 18.4779 1.75 18.4762 1.75 18.4745C1.75 18.4727 1.75 18.471 1.75 18.4692C1.75 18.4675 1.75 18.4657 1.75 18.464C1.75 18.4622 1.75 18.4605 1.75 18.4587C1.75 18.457 1.75 18.4552 1.75 18.4535C1.75 18.4517 1.75 18.45 1.75 18.4483C1.75 18.4465 1.75 18.4448 1.75 18.443C1.75 18.4413 1.75 18.4395 1.75 18.4378C1.75 18.436 1.75 18.4343 1.75 18.4325C1.75 18.4308 1.75 18.4291 1.75 18.4273C1.75 18.4256 1.75 18.4238 1.75 18.4221C1.75 18.4203 1.75 18.4186 1.75 18.4169C1.75 18.4151 1.75 18.4134 1.75 18.4116C1.75 18.4099 1.75 18.4081 1.75 18.4064C1.75 18.4047 1.75 18.4029 1.75 18.4012C1.75 18.3994 1.75 18.3977 1.75 18.3959C1.75 18.3942 1.75 18.3925 1.75 18.3907C1.75 18.389 1.75 18.3872 1.75 18.3855C1.75 18.3838 1.75 18.382 1.75 18.3803C1.75 18.3785 1.75 18.3768 1.75 18.3751C1.75 18.3733 1.75 18.3716 1.75 18.3698C1.75 18.3681 1.75 18.3664 1.75 18.3646C1.75 18.3629 1.75 18.3611 1.75 18.3594C1.75 18.3577 1.75 18.3559 1.75 18.3542C1.75 18.3524 1.75 18.3507 1.75 18.349C1.75 18.3472 1.75 18.3455 1.75 18.3438C1.75 18.342 1.75 18.3403 1.75 18.3385C1.75 18.3368 1.75 18.3351 1.75 18.3333C1.75 18.3316 1.75 18.3299 1.75 18.3281C1.75 18.3264 1.75 18.3247 1.75 18.3229C1.75 18.3212 1.75 18.3194 1.75 18.3177C1.75 18.316 1.75 18.3142 1.75 18.3125C1.75 18.3108 1.75 18.309 1.75 18.3073C1.75 18.3056 1.75 18.3038 1.75 18.3021C1.75 18.3004 1.75 18.2986 1.75 18.2969C1.75 18.2952 1.75 18.2934 1.75 18.2917C1.75 18.29 1.75 18.2882 1.75 18.2865C1.75 18.2848 1.75 18.283 1.75 18.2813C1.75 18.2796 1.75 18.2778 1.75 18.2761C1.75 18.2744 1.75 18.2726 1.75 18.2709C1.75 18.2692 1.75 18.2674 1.75 18.2657C1.75 18.264 1.75 18.2622 1.75 18.2605C1.75 18.2588 1.75 18.2571 1.75 18.2553C1.75 18.2536 1.75 18.2519 1.75 18.2501C1.75 18.2484 1.75 18.2467 1.75 18.2449C1.75 18.2432 1.75 18.2415 1.75 18.2398C1.75 18.238 1.75 18.2363 1.75 18.2346C1.75 18.2328 1.75 18.2311 1.75 18.2294C1.75 18.2277 1.75 18.2259 1.75 18.2242C1.75 18.2225 1.75 18.2207 1.75 18.219C1.75 18.2173 1.75 18.2156 1.75 18.2138C1.75 18.2121 1.75 18.2104 1.75 18.2087C1.75 18.2069 1.75 18.2052 1.75 18.2035C1.75 18.2017 1.75 18.2 1.75 18.1983C1.75 18.1966 1.75 18.1948 1.75 18.1931C1.75 18.1914 1.75 18.1897 1.75 18.1879C1.75 18.1862 1.75 18.1845 1.75 18.1828C1.75 18.181 1.75 18.1793 1.75 18.1776C1.75 18.1759 1.75 18.1741 1.75 18.1724C1.75 18.1707 1.75 18.169 1.75 18.1672C1.75 18.1655 1.75 18.1638 1.75 18.1621C1.75 18.1604 1.75 18.1586 1.75 18.1569C1.75 18.1552 1.75 18.1535 1.75 18.1517C1.75 18.15 1.75 18.1483 1.75 18.1466C1.75 18.1449 1.75 18.1431 1.75 18.1414C1.75 18.1397 1.75 18.138 1.75 18.1363C1.75 18.1345 1.75 18.1328 1.75 18.1311C1.75 18.1294 1.75 18.1276 1.75 18.1259C1.75 18.1242 1.75 18.1225 1.75 18.1208C1.75 18.1191 1.75 18.1173 1.75 18.1156C1.75 18.1139 1.75 18.1122 1.75 18.1105C1.75 18.1087 1.75 18.107 1.75 18.1053C1.75 18.1036 1.75 18.1019 1.75 18.1001C1.75 18.0984 1.75 18.0967 1.75 18.095C1.75 18.0933 1.75 18.0916 1.75 18.0898C1.75 18.0881 1.75 18.0864 1.75 18.0847C1.75 18.083 1.75 18.0813 1.75 18.0795C1.75 18.0778 1.75 18.0761 1.75 18.0744C1.75 18.0727 1.75 18.071 1.75 18.0693C1.75 18.0675 1.75 18.0658 1.75 18.0641C1.75 18.0624 1.75 18.0607 1.75 18.059C1.75 18.0572 1.75 18.0555 1.75 18.0538C1.75 18.0521 1.75 18.0504 1.75 18.0487C1.75 18.047 1.75 18.0453 1.75 18.0435C1.75 18.0418 1.75 18.0401 1.75 18.0384C1.75 18.0367 1.75 18.035 1.75 18.0333C1.75 18.0316 1.75 18.0298 1.75 18.0281C1.75 18.0264 1.75 18.0247 1.75 18.023C1.75 18.0213 1.75 18.0196 1.75 18.0179C1.75 18.0162 1.75 18.0144 1.75 18.0127C1.75 18.011 1.75 18.0093 1.75 18.0076C1.75 18.0059 1.75 18.0042 1.75 18.0025C1.75 18.0008 1.75 17.9991 1.75 17.9973C1.75 17.9956 1.75 17.9939 1.75 17.9922C1.75 17.9905 1.75 17.9888 1.75 17.9871C1.75 17.9854 1.75 17.9837 1.75 17.982C1.75 17.9803 1.75 17.9786 1.75 17.9768C1.75 17.9751 1.75 17.9734 1.75 17.9717C1.75 17.97 1.75 17.9683 1.75 17.9666C1.75 17.9649 1.75 17.9632 1.75 17.9615C1.75 17.9598 1.75 17.9581 1.75 17.9564C1.75 17.9547 1.75 17.953 1.75 17.9513C1.75 17.9496 1.75 17.9478 1.75 17.9461C1.75 17.9444 1.75 17.9427 1.75 17.941C1.75 17.9393 1.75 17.9376 1.75 17.9359C1.75 17.9342 1.75 17.9325 1.75 17.9308C1.75 17.9291 1.75 17.9274 1.75 17.9257C1.75 17.924 1.75 17.9223 1.75 17.9206C1.75 17.9189 1.75 17.9172 1.75 17.9155C1.75 17.9138 1.75 17.9121 1.75 17.9104C1.75 17.9087 1.75 17.907 1.75 17.9053C1.75 17.9036 1.75 17.9019 1.75 17.9002C1.75 17.8985 1.75 17.8968 1.75 17.8951C1.75 17.8934 1.75 17.8917 1.75 17.89C1.75 17.8883 1.75 17.8866 1.75 17.8849C1.75 17.8832 1.75 17.8815 1.75 17.8798C1.75 17.8781 1.75 17.8764 1.75 17.8747C1.75 17.873 1.75 17.8713 1.75 17.8696C1.75 17.8679 1.75 17.8662 1.75 17.8645C1.75 17.8628 1.75 17.8611 1.75 17.8594C1.75 17.8577 1.75 17.856 1.75 17.8543C1.75 17.8526 1.75 17.8509 1.75 17.8492C1.75 17.8475 1.75 17.8458 1.75 17.8441C1.75 17.8424 1.75 17.8408 1.75 17.8391C1.75 17.8374 1.75 17.8357 1.75 17.834C1.75 17.8323 1.75 17.8306 1.75 17.8289C1.75 17.8272 1.75 17.8255 1.75 17.8238C1.75 17.8221 1.75 17.8204 1.75 17.8187C1.75 17.817 1.75 17.8153 1.75 17.8137C1.75 17.812 1.75 17.8103 1.75 17.8086C1.75 17.8069 1.75 17.8052 1.75 17.8035C1.75 17.8018 1.75 17.8001 1.75 17.7984C1.75 17.7967 1.75 17.795 1.75 17.7934C1.75 17.7917 1.75 17.79 1.75 17.7883C1.75 17.7866 1.75 17.7849 1.75 17.7832C1.75 17.7815 1.75 17.7798 1.75 17.7781C1.75 17.7765 1.75 17.7748 1.75 17.7731C1.75 17.7714 1.75 17.7697 1.75 17.768C1.75 17.7663 1.75 17.7646 1.75 17.7629C1.75 17.7613 1.75 17.7596 1.75 17.7579C1.75 17.7562 1.75 17.7545 1.75 17.7528C1.75 17.7511 1.75 17.7494 1.75 17.7478C1.75 17.7461 1.75 17.7444 1.75 17.7427C1.75 17.741 1.75 17.7393 1.75 17.7376C1.75 17.736 1.75 17.7343 1.75 17.7326C1.75 17.7309 1.75 17.7292 1.75 17.7275C1.75 17.7258 1.75 17.7242 1.75 17.7225C1.75 17.7208 1.75 17.7191 1.75 17.7174C1.75 17.7157 1.75 17.7141 1.75 17.7124C1.75 17.7107 1.75 17.709 1.75 17.7073C1.75 17.7056 1.75 17.704 1.75 17.7023C1.75 17.7006 1.75 17.6989 1.75 17.6972C1.75 17.6956 1.75 17.6939 1.75 17.6922C1.75 17.6905 1.75 17.6888 1.75 17.6871C1.75 17.6855 1.75 17.6838 1.75 17.6821C1.75 17.6804 1.75 17.6787 1.75 17.6771C1.75 17.6754 1.75 17.6737 1.75 17.672C1.75 17.6703 1.75 17.6687 1.75 17.667C1.75 17.6653 1.75 17.6636 1.75 17.662C1.75 17.6603 1.75 17.6586 1.75 17.6569C1.75 17.6552 1.75 17.6536 1.75 17.6519C1.75 17.6502 1.75 17.6485 1.75 17.6469C1.75 17.6452 1.75 17.6435 1.75 17.6418C1.75 17.6401 1.75 17.6385 1.75 17.6368C1.75 17.6351 1.75 17.6334 1.75 17.6318C1.75 17.6301 1.75 17.6284 1.75 17.6267C1.75 17.6251 1.75 17.6234 1.75 17.6217C1.75 17.62 1.75 17.6184 1.75 17.6167C1.75 17.615 1.75 17.6133 1.75 17.6117C1.75 17.61 1.75 17.6083 1.75 17.6067C1.75 17.605 1.75 17.6033 1.75 17.6016C1.75 17.6 1.75 17.5983 1.75 17.5966C1.75 17.5949 1.75 17.5933 1.75 17.5916C1.75 17.5899 1.75 17.5883 1.75 17.5866C1.75 17.5849 1.75 17.5832 1.75 17.5816C1.75 17.5799 1.75 17.5782 1.75 17.5766C1.75 17.5749 1.75 17.5732 1.75 17.5716C1.75 17.5699 1.75 17.5682 1.75 17.5665C1.75 17.5649 1.75 17.5632 1.75 17.5615C1.75 17.5599 1.75 17.5582 1.75 17.5565C1.75 17.5549 1.75 17.5532 1.75 17.5515C1.75 17.5499 1.75 17.5482 1.75 17.5465C1.75 17.5449 1.75 17.5432 1.75 17.5415C1.75 17.5399 1.75 17.5382 1.75 17.5365C1.75 17.5349 1.75 17.5332 1.75 17.5315C1.75 17.5299 1.75 17.5282 1.75 17.5265C1.75 17.5249 1.75 17.5232 1.75 17.5215C1.75 17.5199 1.75 17.5182 1.75 17.5165C1.75 17.5149 1.75 17.5132 1.75 17.5116C1.75 17.5099 1.75 17.5082 1.75 17.5066C1.75 17.5049 1.75 17.5032 1.75 17.5016C1.75 17.4999 1.75 17.4982 1.75 17.4966C1.75 17.4949 1.75 17.4933 1.75 17.4916C1.75 17.4899 1.75 17.4883 1.75 17.4866C1.75 17.485 1.75 17.4833 1.75 17.4816C1.75 17.48 1.75 17.4783 1.75 17.4767C1.75 17.475 1.75 17.4733 1.75 17.4717C1.75 17.47 1.75 17.4684 1.75 17.4667C1.75 17.465 1.75 17.4634 1.75 17.4617C1.75 17.4601 1.75 17.4584 1.75 17.4567C1.75 17.4551 1.75 17.4534 1.75 17.4518C1.75 17.4501 1.75 17.4485 1.75 17.4468C1.75 17.4451 1.75 17.4435 1.75 17.4418C1.75 17.4402 1.75 17.4385 1.75 17.4369C1.75 17.4352 1.75 17.4335 1.75 17.4319C1.75 17.4302 1.75 17.4286 1.75 17.4269C1.75 17.4253 1.75 17.4236 1.75 17.422C1.75 17.4203 1.75 17.4186 1.75 17.417C1.75 17.4153 1.75 17.4137 1.75 17.412C1.75 17.4104 1.75 17.4087 1.75 17.4071C1.75 17.4054 1.75 17.4038 1.75 17.4021C1.75 17.4005 1.75 17.3988 1.75 17.3972C1.75 17.3955 1.75 17.3939 1.75 17.3922C1.75 17.3905 1.75 17.3889 1.75 17.3872C1.75 17.3856 1.75 17.3839 1.75 17.3823C1.75 17.3806 1.75 17.379 1.75 17.3773C1.75 17.3757 1.75 17.374 1.75 17.3724C1.75 17.3707 1.75 17.3691 1.75 17.3674C1.75 17.3658 1.75 17.3641 1.75 17.3625C1.75 17.3609 1.75 17.3592 1.75 17.3576C1.75 17.3559 1.75 17.3543 1.75 17.3526C1.75 17.351 1.75 17.3493 1.75 17.3477C1.75 17.346 1.75 17.3444 1.75 17.3427C1.75 17.3411 1.75 17.3394 1.75 17.3378C1.75 17.3361 1.75 17.3345 1.75 17.3329C1.75 17.3312 1.75 17.3296 1.75 17.3279C1.75 17.3263 1.75 17.3246 1.75 17.323C1.75 17.3213 1.75 17.3197 1.75 17.3181C1.75 17.3164 1.75 17.3148 1.75 17.3131C1.75 17.3115 1.75 17.3098 1.75 17.3082C1.75 17.3066 1.75 17.3049 1.75 17.3033C1.75 17.3016 1.75 17.3 1.75 17.2983C1.75 17.2967 1.75 17.2951 1.75 17.2934C1.75 17.2918 1.75 17.2901 1.75 17.2885C1.75 17.2869 1.75 17.2852 1.75 17.2836C1.75 17.2819 1.75 17.2803 1.75 17.2787C1.75 17.277 1.75 17.2754 1.75 17.2737C1.75 17.2721 1.75 17.2705 1.75 17.2688C1.75 17.2672 1.75 17.2655 1.75 17.2639C1.75 17.2623 1.75 17.2606 1.75 17.259C1.75 17.2574 1.75 17.2557 1.75 17.2541C1.75 17.2524 1.75 17.2508 1.75 17.2492C1.75 17.2475 1.75 17.2459 1.75 17.2443C1.75 17.2426 1.75 17.241 1.75 17.2394C1.75 17.2377 1.75 17.2361 1.75 17.2344C1.75 17.2328 1.75 17.2312 1.75 17.2295C1.75 17.2279 1.75 17.2263 1.75 17.2246C1.75 17.223 1.75 17.2214 1.75 17.2197C1.75 17.2181 1.75 17.2165 1.75 17.2148C1.75 17.2132 1.75 17.2116 1.75 17.2099C1.75 17.2083 1.75 17.2067 1.75 17.205C1.75 17.2034 1.75 17.2018 1.75 17.2002C1.75 17.1985 1.75 17.1969 1.75 17.1953C1.75 17.1936 1.75 17.192 1.75 17.1904C1.75 17.1887 1.75 17.1871 1.75 17.1855C1.75 17.1838 1.75 17.1822 1.75 17.1806C1.75 17.179 1.75 17.1773 1.75 17.1757C1.75 17.1741 1.75 17.1724 1.75 17.1708C1.75 17.1692 1.75 17.1676 1.75 17.1659C1.75 17.1643 1.75 17.1627 1.75 17.1611C1.75 17.1594 1.75 17.1578 1.75 17.1562C1.75 17.1545 1.75 17.1529 1.75 17.1513C1.75 17.1497 1.75 17.148 1.75 17.1464C1.75 17.1448 1.75 17.1432 1.75 17.1415C1.75 17.1399 1.75 17.1383 1.75 17.1367C1.75 17.135 1.75 17.1334 1.75 17.1318C1.75 17.1302 1.75 17.1286 1.75 17.1269C1.75 17.1253 1.75 17.1237 1.75 17.1221C1.75 17.1204 1.75 17.1188 1.75 17.1172C1.75 17.1156 1.75 17.1139 1.75 17.1123C1.75 17.1107 1.75 17.1091 1.75 17.1075C1.75 17.1058 1.75 17.1042 1.75 17.1026C1.75 17.101 1.75 17.0994 1.75 17.0977C1.75 17.0961 1.75 17.0945 1.75 17.0929C1.75 17.0913 1.75 17.0896 1.75 17.088C1.75 17.0864 1.75 17.0848 1.75 17.0832C1.75 17.0816 1.75 17.0799 1.75 17.0783C1.75 17.0767 1.75 17.0751 1.75 17.0735C1.75 17.0718 1.75 17.0702 1.75 17.0686C1.75 17.067 1.75 17.0654 1.75 17.0638C1.75 17.0621 1.75 17.0605 1.75 17.0589C1.75 17.0573 1.75 17.0557 1.75 17.0541C1.75 17.0525 1.75 17.0508 1.75 17.0492C1.75 17.0476 1.75 17.046 1.75 17.0444C1.75 17.0428 1.75 17.0412 1.75 17.0395C1.75 17.0379 1.75 17.0363 1.75 17.0347C1.75 17.0331 1.75 17.0315 1.75 17.0299C1.75 17.0283 1.75 17.0266 1.75 17.025C1.75 17.0234 1.75 17.0218 1.75 17.0202C1.75 17.0186 1.75 17.017 1.75 17.0154C1.75 17.0138 1.75 17.0121 1.75 17.0105C1.75 17.0089 1.75 17.0073 1.75 17.0057C1.75 17.0041 1.75 17.0025 1.75 17.0009C1.75 16.9993 1.75 16.9977 1.75 16.9961C1.75 16.9944 1.75 16.9928 1.75 16.9912C1.75 16.9896 1.75 16.988 1.75 16.9864C1.75 16.9848 1.75 16.9832 1.75 16.9816C1.75 16.98 1.75 16.9784 1.75 16.9768C1.75 16.9752 1.75 16.9736 1.75 16.972C1.75 16.9703 1.75 16.9687 1.75 16.9671C1.75 16.9655 1.75 16.9639 1.75 16.9623C1.75 16.9607 1.75 16.9591 1.75 16.9575C1.75 16.9559 1.75 16.9543 1.75 16.9527C1.75 16.9511 1.75 16.9495 1.75 16.9479C1.75 16.9463 1.75 16.9447 1.75 16.9431C1.75 16.9415 1.75 16.9399 1.75 16.9383C1.75 16.9367 1.75 16.9351 1.75 16.9335C1.75 16.9319 1.75 16.9303 1.75 16.9287C1.75 16.9271 1.75 16.9255 1.75 16.9239C1.75 16.9223 1.75 16.9207 1.75 16.9191C1.75 16.9175 1.75 16.9159 1.75 16.9143C1.75 16.9127 1.75 16.9111 1.75 16.9095C1.75 16.9079 1.75 16.9063 1.75 16.9047C1.75 16.9031 1.75 16.9015 1.75 16.8999C1.75 16.8983 1.75 16.8967 1.75 16.8951C1.75 16.8935 1.75 16.8919 1.75 16.8903C1.75 16.8887 1.75 16.8871 1.75 16.8855C1.75 16.8839 1.75 16.8823 1.75 16.8807C1.75 16.8791 1.75 16.8776 1.75 16.876C1.75 16.8744 1.75 16.8728 1.75 16.8712C1.75 16.8696 1.75 16.868 1.75 16.8664C1.75 16.8648 1.75 16.8632 1.75 16.8616C1.75 16.86 1.75 16.8584 1.75 16.8568C1.75 16.8553 1.75 16.8537 1.75 16.8521C1.75 16.8505 1.75 16.8489 1.75 16.8473C1.75 16.8457 1.75 16.8441 1.75 16.8425C1.75 16.8409 1.75 16.8393 1.75 16.8378C1.75 16.8362 1.75 16.8346 1.75 16.833C1.75 16.8314 1.75 16.8298 1.75 16.8282C1.75 16.8266 1.75 16.825 1.75 16.8235C1.75 16.8219 1.75 16.8203 1.75 16.8187C1.75 16.8171 1.75 16.8155 1.75 16.8139C1.75 16.8123 1.75 16.8108 1.75 16.8092C1.75 16.8076 1.75 16.806 1.75 16.8044C1.75 16.8028 1.75 16.8012 1.75 16.7997C1.75 16.7981 1.75 16.7965 1.75 16.7949C1.75 16.7933 1.75 16.7917 1.75 16.7902C1.75 16.7886 1.75 16.787 1.75 16.7854C1.75 16.7838 1.75 16.7822 1.75 16.7807C1.75 16.7791 1.75 16.7775 1.75 16.7759C1.75 16.7743 1.75 16.7727 1.75 16.7712C1.75 16.7696 1.75 16.768 1.75 16.7664C1.75 16.7648 1.75 16.7633 1.75 16.7617C1.75 16.7601 1.75 16.7585 1.75 16.7569C1.75 16.7554 1.75 16.7538 1.75 16.7522C1.75 16.7506 1.75 16.749 1.75 16.7475C1.75 16.7459 1.75 16.7443 1.75 16.7427C1.75 16.7412 1.75 16.7396 1.75 16.738C1.75 16.7364 1.75 16.7348 1.75 16.7333C1.75 16.7317 1.75 16.7301 1.75 16.7285C1.75 16.727 1.75 16.7254 1.75 16.7238C1.75 16.7222 1.75 16.7207 1.75 16.7191C1.75 16.7175 1.75 16.7159 1.75 16.7144C1.75 16.7128 1.75 16.7112 1.75 16.7096C1.75 16.7081 1.75 16.7065 1.75 16.7049C1.75 16.7033 1.75 16.7018 1.75 16.7002C1.75 16.6986 1.75 16.6971 1.75 16.6955C1.75 16.6939 1.75 16.6923 1.75 16.6908C1.75 16.6892 1.75 16.6876 1.75 16.6861C1.75 16.6845 1.75 16.6829 1.75 16.6813C1.75 16.6798 1.75 16.6782 1.75 16.6766C1.75 16.6751 1.75 16.6735 1.75 16.6719C1.75 16.6704 1.75 16.6688 1.75 16.6672C1.75 16.6656 1.75 16.6641 1.75 16.6625C1.75 16.6609 1.75 16.6594 1.75 16.6578C1.75 16.6562 1.75 16.6547 1.75 16.6531C1.75 16.6515 1.75 16.65 1.75 16.6484C1.75 16.6468 1.75 16.6453 1.75 16.6437C1.75 16.6421 1.75 16.6406 1.75 16.639C1.75 16.6374 1.75 16.6359 1.75 16.6343C1.75 16.6328 1.75 16.6312 1.75 16.6296C1.75 16.6281 1.75 16.6265 1.75 16.6249C1.75 16.6234 1.75 16.6218 1.75 16.6202C1.75 16.6187 1.75 16.6171 1.75 16.6156C1.75 16.614 1.75 16.6124 1.75 16.6109C1.75 16.6093 1.75 16.6078 1.75 16.6062C1.75 16.6046 1.75 16.6031 1.75 16.6015C1.75 16.6 1.75 16.5984 1.75 16.5968C1.75 16.5953 1.75 16.5937 1.75 16.5922C1.75 16.5906 1.75 16.589 1.75 16.5875C1.75 16.5859 1.75 16.5844 1.75 16.5828C1.75 16.5813 1.75 16.5797 1.75 16.5781C1.75 16.5766 1.75 16.575 1.75 16.5735C1.75 16.5719 1.75 16.5704 1.75 16.5688C1.75 16.5672 1.75 16.5657 1.75 16.5641C1.75 16.5626 1.75 16.561 1.75 16.5595C1.75 16.5579 1.75 16.5564 1.75 16.5548C1.75 16.5532 1.75 16.5517 1.75 16.5501C1.75 16.5486 1.75 16.547 1.75 16.5455C1.75 16.5439 1.75 16.5424 1.75 16.5408C1.75 16.5393 1.75 16.5377 1.75 16.5362C1.75 16.5346 1.75 16.5331 1.75 16.5315C1.75 16.53 1.75 16.5284 1.75 16.5269C1.75 16.5253 1.75 16.5238 1.75 16.5222C1.75 16.5207 1.75 16.5191 1.75 16.5176C1.75 16.516 1.75 16.5145 1.75 16.5129C1.75 16.5114 1.75 16.5098 1.75 16.5083C1.75 16.5067 1.75 16.5052 1.75 16.5036C1.75 16.5021 1.75 16.5005 1.75 16.499C1.75 16.4974 1.75 16.4959 1.75 16.4944C1.75 16.4928 1.75 16.4913 1.75 16.4897C1.75 16.4882 1.75 16.4866 1.75 16.4851C1.75 16.4835 1.75 16.482 1.75 16.4804C1.75 16.4789 1.75 16.4774 1.75 16.4758C1.75 16.4743 1.75 16.4727 1.75 16.4712C1.75 16.4696 1.75 16.4681 1.75 16.4666C1.75 16.465 1.75 16.4635 1.75 16.4619C1.75 16.4604 1.75 16.4588 1.75 16.4573C1.75 16.4558 1.75 16.4542 1.75 16.4527C1.75 16.4511 1.75 16.4496 1.75 16.4481C1.75 16.4465 1.75 16.445 1.75 16.4434C1.75 16.4419 1.75 16.4404 1.75 16.4388C1.75 16.4373 1.75 16.4358 1.75 16.4342C1.75 16.4327 1.75 16.4311 1.75 16.4296C1.75 16.4281 1.75 16.4265 1.75 16.425C1.75 16.4235 1.75 16.4219 1.75 16.4204H0.25C0.25 16.4219 0.25 16.4235 0.25 16.425C0.25 16.4265 0.25 16.4281 0.25 16.4296C0.25 16.4311 0.25 16.4327 0.25 16.4342C0.25 16.4358 0.25 16.4373 0.25 16.4388C0.25 16.4404 0.25 16.4419 0.25 16.4434C0.25 16.445 0.25 16.4465 0.25 16.4481C0.25 16.4496 0.25 16.4511 0.25 16.4527C0.25 16.4542 0.25 16.4558 0.25 16.4573C0.25 16.4588 0.25 16.4604 0.25 16.4619C0.25 16.4635 0.25 16.465 0.25 16.4666C0.25 16.4681 0.25 16.4696 0.25 16.4712C0.25 16.4727 0.25 16.4743 0.25 16.4758C0.25 16.4774 0.25 16.4789 0.25 16.4804C0.25 16.482 0.25 16.4835 0.25 16.4851C0.25 16.4866 0.25 16.4882 0.25 16.4897C0.25 16.4913 0.25 16.4928 0.25 16.4944C0.25 16.4959 0.25 16.4974 0.25 16.499C0.25 16.5005 0.25 16.5021 0.25 16.5036C0.25 16.5052 0.25 16.5067 0.25 16.5083C0.25 16.5098 0.25 16.5114 0.25 16.5129C0.25 16.5145 0.25 16.516 0.25 16.5176C0.25 16.5191 0.25 16.5207 0.25 16.5222C0.25 16.5238 0.25 16.5253 0.25 16.5269C0.25 16.5284 0.25 16.53 0.25 16.5315C0.25 16.5331 0.25 16.5346 0.25 16.5362C0.25 16.5377 0.25 16.5393 0.25 16.5408C0.25 16.5424 0.25 16.5439 0.25 16.5455C0.25 16.547 0.25 16.5486 0.25 16.5501C0.25 16.5517 0.25 16.5532 0.25 16.5548C0.25 16.5564 0.25 16.5579 0.25 16.5595C0.25 16.561 0.25 16.5626 0.25 16.5641C0.25 16.5657 0.25 16.5672 0.25 16.5688C0.25 16.5704 0.25 16.5719 0.25 16.5735C0.25 16.575 0.25 16.5766 0.25 16.5781C0.25 16.5797 0.25 16.5813 0.25 16.5828C0.25 16.5844 0.25 16.5859 0.25 16.5875C0.25 16.589 0.25 16.5906 0.25 16.5922C0.25 16.5937 0.25 16.5953 0.25 16.5968C0.25 16.5984 0.25 16.6 0.25 16.6015C0.25 16.6031 0.25 16.6046 0.25 16.6062C0.25 16.6078 0.25 16.6093 0.25 16.6109C0.25 16.6124 0.25 16.614 0.25 16.6156C0.25 16.6171 0.25 16.6187 0.25 16.6202C0.25 16.6218 0.25 16.6234 0.25 16.6249C0.25 16.6265 0.25 16.6281 0.25 16.6296C0.25 16.6312 0.25 16.6328 0.25 16.6343C0.25 16.6359 0.25 16.6374 0.25 16.639C0.25 16.6406 0.25 16.6421 0.25 16.6437C0.25 16.6453 0.25 16.6468 0.25 16.6484C0.25 16.65 0.25 16.6515 0.25 16.6531C0.25 16.6547 0.25 16.6562 0.25 16.6578C0.25 16.6594 0.25 16.6609 0.25 16.6625C0.25 16.6641 0.25 16.6656 0.25 16.6672C0.25 16.6688 0.25 16.6704 0.25 16.6719C0.25 16.6735 0.25 16.6751 0.25 16.6766C0.25 16.6782 0.25 16.6798 0.25 16.6813C0.25 16.6829 0.25 16.6845 0.25 16.6861C0.25 16.6876 0.25 16.6892 0.25 16.6908C0.25 16.6923 0.25 16.6939 0.25 16.6955C0.25 16.6971 0.25 16.6986 0.25 16.7002C0.25 16.7018 0.25 16.7033 0.25 16.7049C0.25 16.7065 0.25 16.7081 0.25 16.7096C0.25 16.7112 0.25 16.7128 0.25 16.7144C0.25 16.7159 0.25 16.7175 0.25 16.7191C0.25 16.7207 0.25 16.7222 0.25 16.7238C0.25 16.7254 0.25 16.727 0.25 16.7285C0.25 16.7301 0.25 16.7317 0.25 16.7333C0.25 16.7348 0.25 16.7364 0.25 16.738C0.25 16.7396 0.25 16.7412 0.25 16.7427C0.25 16.7443 0.25 16.7459 0.25 16.7475C0.25 16.749 0.25 16.7506 0.25 16.7522C0.25 16.7538 0.25 16.7554 0.25 16.7569C0.25 16.7585 0.25 16.7601 0.25 16.7617C0.25 16.7633 0.25 16.7648 0.25 16.7664C0.25 16.768 0.25 16.7696 0.25 16.7712C0.25 16.7727 0.25 16.7743 0.25 16.7759C0.25 16.7775 0.25 16.7791 0.25 16.7807C0.25 16.7822 0.25 16.7838 0.25 16.7854C0.25 16.787 0.25 16.7886 0.25 16.7902C0.25 16.7917 0.25 16.7933 0.25 16.7949C0.25 16.7965 0.25 16.7981 0.25 16.7997C0.25 16.8012 0.25 16.8028 0.25 16.8044C0.25 16.806 0.25 16.8076 0.25 16.8092C0.25 16.8108 0.25 16.8123 0.25 16.8139C0.25 16.8155 0.25 16.8171 0.25 16.8187C0.25 16.8203 0.25 16.8219 0.25 16.8235C0.25 16.825 0.25 16.8266 0.25 16.8282C0.25 16.8298 0.25 16.8314 0.25 16.833C0.25 16.8346 0.25 16.8362 0.25 16.8378C0.25 16.8393 0.25 16.8409 0.25 16.8425C0.25 16.8441 0.25 16.8457 0.25 16.8473C0.25 16.8489 0.25 16.8505 0.25 16.8521C0.25 16.8537 0.25 16.8553 0.25 16.8568C0.25 16.8584 0.25 16.86 0.25 16.8616C0.25 16.8632 0.25 16.8648 0.25 16.8664C0.25 16.868 0.25 16.8696 0.25 16.8712C0.25 16.8728 0.25 16.8744 0.25 16.876C0.25 16.8776 0.25 16.8791 0.25 16.8807C0.25 16.8823 0.25 16.8839 0.25 16.8855C0.25 16.8871 0.25 16.8887 0.25 16.8903C0.25 16.8919 0.25 16.8935 0.25 16.8951C0.25 16.8967 0.25 16.8983 0.25 16.8999C0.25 16.9015 0.25 16.9031 0.25 16.9047C0.25 16.9063 0.25 16.9079 0.25 16.9095C0.25 16.9111 0.25 16.9127 0.25 16.9143C0.25 16.9159 0.25 16.9175 0.25 16.9191C0.25 16.9207 0.25 16.9223 0.25 16.9239C0.25 16.9255 0.25 16.9271 0.25 16.9287C0.25 16.9303 0.25 16.9319 0.25 16.9335C0.25 16.9351 0.25 16.9367 0.25 16.9383C0.25 16.9399 0.25 16.9415 0.25 16.9431C0.25 16.9447 0.25 16.9463 0.25 16.9479C0.25 16.9495 0.25 16.9511 0.25 16.9527C0.25 16.9543 0.25 16.9559 0.25 16.9575C0.25 16.9591 0.25 16.9607 0.25 16.9623C0.25 16.9639 0.25 16.9655 0.25 16.9671C0.25 16.9687 0.25 16.9703 0.25 16.972C0.25 16.9736 0.25 16.9752 0.25 16.9768C0.25 16.9784 0.25 16.98 0.25 16.9816C0.25 16.9832 0.25 16.9848 0.25 16.9864C0.25 16.988 0.25 16.9896 0.25 16.9912C0.25 16.9928 0.25 16.9944 0.25 16.9961C0.25 16.9977 0.25 16.9993 0.25 17.0009C0.25 17.0025 0.25 17.0041 0.25 17.0057C0.25 17.0073 0.25 17.0089 0.25 17.0105C0.25 17.0121 0.25 17.0138 0.25 17.0154C0.25 17.017 0.25 17.0186 0.25 17.0202C0.25 17.0218 0.25 17.0234 0.25 17.025C0.25 17.0266 0.25 17.0283 0.25 17.0299C0.25 17.0315 0.25 17.0331 0.25 17.0347C0.25 17.0363 0.25 17.0379 0.25 17.0395C0.25 17.0412 0.25 17.0428 0.25 17.0444C0.25 17.046 0.25 17.0476 0.25 17.0492C0.25 17.0508 0.25 17.0525 0.25 17.0541C0.25 17.0557 0.25 17.0573 0.25 17.0589C0.25 17.0605 0.25 17.0621 0.25 17.0638C0.25 17.0654 0.25 17.067 0.25 17.0686C0.25 17.0702 0.25 17.0718 0.25 17.0735C0.25 17.0751 0.25 17.0767 0.25 17.0783C0.25 17.0799 0.25 17.0816 0.25 17.0832C0.25 17.0848 0.25 17.0864 0.25 17.088C0.25 17.0896 0.25 17.0913 0.25 17.0929C0.25 17.0945 0.25 17.0961 0.25 17.0977C0.25 17.0994 0.25 17.101 0.25 17.1026C0.25 17.1042 0.25 17.1058 0.25 17.1075C0.25 17.1091 0.25 17.1107 0.25 17.1123C0.25 17.1139 0.25 17.1156 0.25 17.1172C0.25 17.1188 0.25 17.1204 0.25 17.1221C0.25 17.1237 0.25 17.1253 0.25 17.1269C0.25 17.1286 0.25 17.1302 0.25 17.1318C0.25 17.1334 0.25 17.135 0.25 17.1367C0.25 17.1383 0.25 17.1399 0.25 17.1415C0.25 17.1432 0.25 17.1448 0.25 17.1464C0.25 17.148 0.25 17.1497 0.25 17.1513C0.25 17.1529 0.25 17.1545 0.25 17.1562C0.25 17.1578 0.25 17.1594 0.25 17.1611C0.25 17.1627 0.25 17.1643 0.25 17.1659C0.25 17.1676 0.25 17.1692 0.25 17.1708C0.25 17.1724 0.25 17.1741 0.25 17.1757C0.25 17.1773 0.25 17.179 0.25 17.1806C0.25 17.1822 0.25 17.1838 0.25 17.1855C0.25 17.1871 0.25 17.1887 0.25 17.1904C0.25 17.192 0.25 17.1936 0.25 17.1953C0.25 17.1969 0.25 17.1985 0.25 17.2002C0.25 17.2018 0.25 17.2034 0.25 17.205C0.25 17.2067 0.25 17.2083 0.25 17.2099C0.25 17.2116 0.25 17.2132 0.25 17.2148C0.25 17.2165 0.25 17.2181 0.25 17.2197C0.25 17.2214 0.25 17.223 0.25 17.2246C0.25 17.2263 0.25 17.2279 0.25 17.2295C0.25 17.2312 0.25 17.2328 0.25 17.2344C0.25 17.2361 0.25 17.2377 0.25 17.2394C0.25 17.241 0.25 17.2426 0.25 17.2443C0.25 17.2459 0.25 17.2475 0.25 17.2492C0.25 17.2508 0.25 17.2524 0.25 17.2541C0.25 17.2557 0.25 17.2574 0.25 17.259C0.25 17.2606 0.25 17.2623 0.25 17.2639C0.25 17.2655 0.25 17.2672 0.25 17.2688C0.25 17.2705 0.25 17.2721 0.25 17.2737C0.25 17.2754 0.25 17.277 0.25 17.2787C0.25 17.2803 0.25 17.2819 0.25 17.2836C0.25 17.2852 0.25 17.2869 0.25 17.2885C0.25 17.2901 0.25 17.2918 0.25 17.2934C0.25 17.2951 0.25 17.2967 0.25 17.2983C0.25 17.3 0.25 17.3016 0.25 17.3033C0.25 17.3049 0.25 17.3066 0.25 17.3082C0.25 17.3098 0.25 17.3115 0.25 17.3131C0.25 17.3148 0.25 17.3164 0.25 17.3181C0.25 17.3197 0.25 17.3213 0.25 17.323C0.25 17.3246 0.25 17.3263 0.25 17.3279C0.25 17.3296 0.25 17.3312 0.25 17.3329C0.25 17.3345 0.25 17.3361 0.25 17.3378C0.25 17.3394 0.25 17.3411 0.25 17.3427C0.25 17.3444 0.25 17.346 0.25 17.3477C0.25 17.3493 0.25 17.351 0.25 17.3526C0.25 17.3543 0.25 17.3559 0.25 17.3576C0.25 17.3592 0.25 17.3609 0.25 17.3625C0.25 17.3641 0.25 17.3658 0.25 17.3674C0.25 17.3691 0.25 17.3707 0.25 17.3724C0.25 17.374 0.25 17.3757 0.25 17.3773C0.25 17.379 0.25 17.3806 0.25 17.3823C0.25 17.3839 0.25 17.3856 0.25 17.3872C0.25 17.3889 0.25 17.3905 0.25 17.3922C0.25 17.3939 0.25 17.3955 0.25 17.3972C0.25 17.3988 0.25 17.4005 0.25 17.4021C0.25 17.4038 0.25 17.4054 0.25 17.4071C0.25 17.4087 0.25 17.4104 0.25 17.412C0.25 17.4137 0.25 17.4153 0.25 17.417C0.25 17.4186 0.25 17.4203 0.25 17.422C0.25 17.4236 0.25 17.4253 0.25 17.4269C0.25 17.4286 0.25 17.4302 0.25 17.4319C0.25 17.4335 0.25 17.4352 0.25 17.4369C0.25 17.4385 0.25 17.4402 0.25 17.4418C0.25 17.4435 0.25 17.4451 0.25 17.4468C0.25 17.4485 0.25 17.4501 0.25 17.4518C0.25 17.4534 0.25 17.4551 0.25 17.4567C0.25 17.4584 0.25 17.4601 0.25 17.4617C0.25 17.4634 0.25 17.465 0.25 17.4667C0.25 17.4684 0.25 17.47 0.25 17.4717C0.25 17.4733 0.25 17.475 0.25 17.4767C0.25 17.4783 0.25 17.48 0.25 17.4816C0.25 17.4833 0.25 17.485 0.25 17.4866C0.25 17.4883 0.25 17.4899 0.25 17.4916C0.25 17.4933 0.25 17.4949 0.25 17.4966C0.25 17.4982 0.25 17.4999 0.25 17.5016C0.25 17.5032 0.25 17.5049 0.25 17.5066C0.25 17.5082 0.25 17.5099 0.25 17.5116C0.25 17.5132 0.25 17.5149 0.25 17.5165C0.25 17.5182 0.25 17.5199 0.25 17.5215C0.25 17.5232 0.25 17.5249 0.25 17.5265C0.25 17.5282 0.25 17.5299 0.25 17.5315C0.25 17.5332 0.25 17.5349 0.25 17.5365C0.25 17.5382 0.25 17.5399 0.25 17.5415C0.25 17.5432 0.25 17.5449 0.25 17.5465C0.25 17.5482 0.25 17.5499 0.25 17.5515C0.25 17.5532 0.25 17.5549 0.25 17.5565C0.25 17.5582 0.25 17.5599 0.25 17.5615C0.25 17.5632 0.25 17.5649 0.25 17.5665C0.25 17.5682 0.25 17.5699 0.25 17.5716C0.25 17.5732 0.25 17.5749 0.25 17.5766C0.25 17.5782 0.25 17.5799 0.25 17.5816C0.25 17.5832 0.25 17.5849 0.25 17.5866C0.25 17.5883 0.25 17.5899 0.25 17.5916C0.25 17.5933 0.25 17.5949 0.25 17.5966C0.25 17.5983 0.25 17.6 0.25 17.6016C0.25 17.6033 0.25 17.605 0.25 17.6067C0.25 17.6083 0.25 17.61 0.25 17.6117C0.25 17.6133 0.25 17.615 0.25 17.6167C0.25 17.6184 0.25 17.62 0.25 17.6217C0.25 17.6234 0.25 17.6251 0.25 17.6267C0.25 17.6284 0.25 17.6301 0.25 17.6318C0.25 17.6334 0.25 17.6351 0.25 17.6368C0.25 17.6385 0.25 17.6401 0.25 17.6418C0.25 17.6435 0.25 17.6452 0.25 17.6469C0.25 17.6485 0.25 17.6502 0.25 17.6519C0.25 17.6536 0.25 17.6552 0.25 17.6569C0.25 17.6586 0.25 17.6603 0.25 17.662C0.25 17.6636 0.25 17.6653 0.25 17.667C0.25 17.6687 0.25 17.6703 0.25 17.672C0.25 17.6737 0.25 17.6754 0.25 17.6771C0.25 17.6787 0.25 17.6804 0.25 17.6821C0.25 17.6838 0.25 17.6855 0.25 17.6871C0.25 17.6888 0.25 17.6905 0.25 17.6922C0.25 17.6939 0.25 17.6956 0.25 17.6972C0.25 17.6989 0.25 17.7006 0.25 17.7023C0.25 17.704 0.25 17.7056 0.25 17.7073C0.25 17.709 0.25 17.7107 0.25 17.7124C0.25 17.7141 0.25 17.7157 0.25 17.7174C0.25 17.7191 0.25 17.7208 0.25 17.7225C0.25 17.7242 0.25 17.7258 0.25 17.7275C0.25 17.7292 0.25 17.7309 0.25 17.7326C0.25 17.7343 0.25 17.736 0.25 17.7376C0.25 17.7393 0.25 17.741 0.25 17.7427C0.25 17.7444 0.25 17.7461 0.25 17.7478C0.25 17.7494 0.25 17.7511 0.25 17.7528C0.25 17.7545 0.25 17.7562 0.25 17.7579C0.25 17.7596 0.25 17.7613 0.25 17.7629C0.25 17.7646 0.25 17.7663 0.25 17.768C0.25 17.7697 0.25 17.7714 0.25 17.7731C0.25 17.7748 0.25 17.7765 0.25 17.7781C0.25 17.7798 0.25 17.7815 0.25 17.7832C0.25 17.7849 0.25 17.7866 0.25 17.7883C0.25 17.79 0.25 17.7917 0.25 17.7934C0.25 17.795 0.25 17.7967 0.25 17.7984C0.25 17.8001 0.25 17.8018 0.25 17.8035C0.25 17.8052 0.25 17.8069 0.25 17.8086C0.25 17.8103 0.25 17.812 0.25 17.8137C0.25 17.8153 0.25 17.817 0.25 17.8187C0.25 17.8204 0.25 17.8221 0.25 17.8238C0.25 17.8255 0.25 17.8272 0.25 17.8289C0.25 17.8306 0.25 17.8323 0.25 17.834C0.25 17.8357 0.25 17.8374 0.25 17.8391C0.25 17.8408 0.25 17.8424 0.25 17.8441C0.25 17.8458 0.25 17.8475 0.25 17.8492C0.25 17.8509 0.25 17.8526 0.25 17.8543C0.25 17.856 0.25 17.8577 0.25 17.8594C0.25 17.8611 0.25 17.8628 0.25 17.8645C0.25 17.8662 0.25 17.8679 0.25 17.8696C0.25 17.8713 0.25 17.873 0.25 17.8747C0.25 17.8764 0.25 17.8781 0.25 17.8798C0.25 17.8815 0.25 17.8832 0.25 17.8849C0.25 17.8866 0.25 17.8883 0.25 17.89C0.25 17.8917 0.25 17.8934 0.25 17.8951C0.25 17.8968 0.25 17.8985 0.25 17.9002C0.25 17.9019 0.25 17.9036 0.25 17.9053C0.25 17.907 0.25 17.9087 0.25 17.9104C0.25 17.9121 0.25 17.9138 0.25 17.9155C0.25 17.9172 0.25 17.9189 0.25 17.9206C0.25 17.9223 0.25 17.924 0.25 17.9257C0.25 17.9274 0.25 17.9291 0.25 17.9308C0.25 17.9325 0.25 17.9342 0.25 17.9359C0.25 17.9376 0.25 17.9393 0.25 17.941C0.25 17.9427 0.25 17.9444 0.25 17.9461C0.25 17.9478 0.25 17.9496 0.25 17.9513C0.25 17.953 0.25 17.9547 0.25 17.9564C0.25 17.9581 0.25 17.9598 0.25 17.9615C0.25 17.9632 0.25 17.9649 0.25 17.9666C0.25 17.9683 0.25 17.97 0.25 17.9717C0.25 17.9734 0.25 17.9751 0.25 17.9768C0.25 17.9786 0.25 17.9803 0.25 17.982C0.25 17.9837 0.25 17.9854 0.25 17.9871C0.25 17.9888 0.25 17.9905 0.25 17.9922C0.25 17.9939 0.25 17.9956 0.25 17.9973C0.25 17.9991 0.25 18.0008 0.25 18.0025C0.25 18.0042 0.25 18.0059 0.25 18.0076C0.25 18.0093 0.25 18.011 0.25 18.0127C0.25 18.0144 0.25 18.0162 0.25 18.0179C0.25 18.0196 0.25 18.0213 0.25 18.023C0.25 18.0247 0.25 18.0264 0.25 18.0281C0.25 18.0298 0.25 18.0316 0.25 18.0333C0.25 18.035 0.25 18.0367 0.25 18.0384C0.25 18.0401 0.25 18.0418 0.25 18.0435C0.25 18.0453 0.25 18.047 0.25 18.0487C0.25 18.0504 0.25 18.0521 0.25 18.0538C0.25 18.0555 0.25 18.0572 0.25 18.059C0.25 18.0607 0.25 18.0624 0.25 18.0641C0.25 18.0658 0.25 18.0675 0.25 18.0693C0.25 18.071 0.25 18.0727 0.25 18.0744C0.25 18.0761 0.25 18.0778 0.25 18.0795C0.25 18.0813 0.25 18.083 0.25 18.0847C0.25 18.0864 0.25 18.0881 0.25 18.0898C0.25 18.0916 0.25 18.0933 0.25 18.095C0.25 18.0967 0.25 18.0984 0.25 18.1001C0.25 18.1019 0.25 18.1036 0.25 18.1053C0.25 18.107 0.25 18.1087 0.25 18.1105C0.25 18.1122 0.25 18.1139 0.25 18.1156C0.25 18.1173 0.25 18.1191 0.25 18.1208C0.25 18.1225 0.25 18.1242 0.25 18.1259C0.25 18.1276 0.25 18.1294 0.25 18.1311C0.25 18.1328 0.25 18.1345 0.25 18.1363C0.25 18.138 0.25 18.1397 0.25 18.1414C0.25 18.1431 0.25 18.1449 0.25 18.1466C0.25 18.1483 0.25 18.15 0.25 18.1517C0.25 18.1535 0.25 18.1552 0.25 18.1569C0.25 18.1586 0.25 18.1604 0.25 18.1621C0.25 18.1638 0.25 18.1655 0.25 18.1672C0.25 18.169 0.25 18.1707 0.25 18.1724C0.25 18.1741 0.25 18.1759 0.25 18.1776C0.25 18.1793 0.25 18.181 0.25 18.1828C0.25 18.1845 0.25 18.1862 0.25 18.1879C0.25 18.1897 0.25 18.1914 0.25 18.1931C0.25 18.1948 0.25 18.1966 0.25 18.1983C0.25 18.2 0.25 18.2017 0.25 18.2035C0.25 18.2052 0.25 18.2069 0.25 18.2087C0.25 18.2104 0.25 18.2121 0.25 18.2138C0.25 18.2156 0.25 18.2173 0.25 18.219C0.25 18.2207 0.25 18.2225 0.25 18.2242C0.25 18.2259 0.25 18.2277 0.25 18.2294C0.25 18.2311 0.25 18.2328 0.25 18.2346C0.25 18.2363 0.25 18.238 0.25 18.2398C0.25 18.2415 0.25 18.2432 0.25 18.2449C0.25 18.2467 0.25 18.2484 0.25 18.2501C0.25 18.2519 0.25 18.2536 0.25 18.2553C0.25 18.2571 0.25 18.2588 0.25 18.2605C0.25 18.2622 0.25 18.264 0.25 18.2657C0.25 18.2674 0.25 18.2692 0.25 18.2709C0.25 18.2726 0.25 18.2744 0.25 18.2761C0.25 18.2778 0.25 18.2796 0.25 18.2813C0.25 18.283 0.25 18.2848 0.25 18.2865C0.25 18.2882 0.25 18.29 0.25 18.2917C0.25 18.2934 0.25 18.2952 0.25 18.2969C0.25 18.2986 0.25 18.3004 0.25 18.3021C0.25 18.3038 0.25 18.3056 0.25 18.3073C0.25 18.309 0.25 18.3108 0.25 18.3125C0.25 18.3142 0.25 18.316 0.25 18.3177C0.25 18.3194 0.25 18.3212 0.25 18.3229C0.25 18.3247 0.25 18.3264 0.25 18.3281C0.25 18.3299 0.25 18.3316 0.25 18.3333C0.25 18.3351 0.25 18.3368 0.25 18.3385C0.25 18.3403 0.25 18.342 0.25 18.3438C0.25 18.3455 0.25 18.3472 0.25 18.349C0.25 18.3507 0.25 18.3524 0.25 18.3542C0.25 18.3559 0.25 18.3577 0.25 18.3594C0.25 18.3611 0.25 18.3629 0.25 18.3646C0.25 18.3664 0.25 18.3681 0.25 18.3698C0.25 18.3716 0.25 18.3733 0.25 18.3751C0.25 18.3768 0.25 18.3785 0.25 18.3803C0.25 18.382 0.25 18.3838 0.25 18.3855C0.25 18.3872 0.25 18.389 0.25 18.3907C0.25 18.3925 0.25 18.3942 0.25 18.3959C0.25 18.3977 0.25 18.3994 0.25 18.4012C0.25 18.4029 0.25 18.4047 0.25 18.4064C0.25 18.4081 0.25 18.4099 0.25 18.4116C0.25 18.4134 0.25 18.4151 0.25 18.4169C0.25 18.4186 0.25 18.4203 0.25 18.4221C0.25 18.4238 0.25 18.4256 0.25 18.4273C0.25 18.4291 0.25 18.4308 0.25 18.4325C0.25 18.4343 0.25 18.436 0.25 18.4378C0.25 18.4395 0.25 18.4413 0.25 18.443C0.25 18.4448 0.25 18.4465 0.25 18.4483C0.25 18.45 0.25 18.4517 0.25 18.4535C0.25 18.4552 0.25 18.457 0.25 18.4587C0.25 18.4605 0.25 18.4622 0.25 18.464C0.25 18.4657 0.25 18.4675 0.25 18.4692C0.25 18.471 0.25 18.4727 0.25 18.4745C0.25 18.4762 0.25 18.4779 0.25 18.4797C0.25 18.4814 0.25 18.4832 0.25 18.4849C0.25 18.4867 0.25 18.4884 0.25 18.4902C0.25 18.4919 0.25 18.4937 0.25 18.4954C0.25 18.4972 0.25 18.4989 0.25 18.5007C0.25 18.5024 0.25 18.5042 0.25 18.5059C0.25 18.5077 0.25 18.5094 0.25 18.5112C0.25 18.5129 0.25 18.5147 0.25 18.5164C0.25 18.5182 0.25 18.5199 0.25 18.5217C0.25 18.5234 0.25 18.5252 0.25 18.5269C0.25 18.5287 0.25 18.5304 0.25 18.5322C0.25 18.5339 0.25 18.5357 0.25 18.5374C0.25 18.5392 0.25 18.541 0.25 18.5427C0.25 18.5445 0.25 18.5462 0.25 18.548C0.25 18.5497 0.25 18.5515 0.25 18.5532C0.25 18.555 0.25 18.5567 0.25 18.5585C0.25 18.5602 0.25 18.562 0.25 18.5637C0.25 18.5655 0.25 18.5673 0.25 18.569C0.25 18.5708 0.25 18.5725 0.25 18.5743C0.25 18.576 0.25 18.5778 0.25 18.5795C0.25 18.5813 0.25 18.583 0.25 18.5848C0.25 18.5866 0.25 18.5883 0.25 18.5901C0.25 18.5918 0.25 18.5936 0.25 18.5953C0.25 18.5971 0.25 18.5989 0.25 18.6006C0.25 18.6024 0.25 18.6041 0.25 18.6059C0.25 18.6076 0.25 18.6094 0.25 18.6112C0.25 18.6129 0.25 18.6147 0.25 18.6164C0.25 18.6182 0.25 18.6199 0.25 18.6217C0.25 18.6235 0.25 18.6252 0.25 18.627C0.25 18.6287 0.25 18.6305 0.25 18.6323C0.25 18.634 0.25 18.6358 0.25 18.6375C0.25 18.6393 0.25 18.641 0.25 18.6428C0.25 18.6446 0.25 18.6463 0.25 18.6481C0.25 18.6498 0.25 18.6516 0.25 18.6534C0.25 18.6551 0.25 18.6569 0.25 18.6587C0.25 18.6604 0.25 18.6622 0.25 18.6639C0.25 18.6657 0.25 18.6675 0.25 18.6692C0.25 18.671 0.25 18.6727 0.25 18.6745C0.25 18.6763 0.25 18.678 0.25 18.6798C0.25 18.6816 0.25 18.6833 0.25 18.6851C0.25 18.6868 0.25 18.6886 0.25 18.6904C0.25 18.6921 0.25 18.6939 0.25 18.6957C0.25 18.6974 0.25 18.6992 0.25 18.701C0.25 18.7027 0.25 18.7045 0.25 18.7062C0.25 18.708 0.25 18.7098 0.25 18.7115C0.25 18.7133 0.25 18.7151 0.25 18.7168C0.25 18.7186 0.25 18.7204 0.25 18.7221C0.25 18.7239 0.25 18.7257 0.25 18.7274C0.25 18.7292 0.25 18.731 0.25 18.7327C0.25 18.7345 0.25 18.7363 0.25 18.738C0.25 18.7398 0.25 18.7416 0.25 18.7433C0.25 18.7451 0.25 18.7469 0.25 18.7486C0.25 18.7504 0.25 18.7522 0.25 18.7539C0.25 18.7557 0.25 18.7575 0.25 18.7592C0.25 18.761 0.25 18.7628 0.25 18.7645C0.25 18.7663 0.25 18.7681 0.25 18.7698C0.25 18.7716 0.25 18.7734 0.25 18.7751C0.25 18.7769 0.25 18.7787 0.25 18.7805C0.25 18.7822 0.25 18.784 0.25 18.7858C0.25 18.7875 0.25 18.7893 0.25 18.7911C0.25 18.7928 0.25 18.7946 0.25 18.7964C0.25 18.7981 0.25 18.7999 0.25 18.8017C0.25 18.8035 0.25 18.8052 0.25 18.807C0.25 18.8088 0.25 18.8105 0.25 18.8123C0.25 18.8141 0.25 18.8159 0.25 18.8176C0.25 18.8194 0.25 18.8212 0.25 18.823C0.25 18.8247 0.25 18.8265 0.25 18.8283C0.25 18.83 0.25 18.8318 0.25 18.8336C0.25 18.8354 0.25 18.8371 0.25 18.8389C0.25 18.8407 0.25 18.8425 0.25 18.8442C0.25 18.846 0.25 18.8478 0.25 18.8495C0.25 18.8513 0.25 18.8531 0.25 18.8549C0.25 18.8566 0.25 18.8584 0.25 18.8602C0.25 18.862 0.25 18.8637 0.25 18.8655C0.25 18.8673 0.25 18.8691 0.25 18.8708C0.25 18.8726 0.25 18.8744 0.25 18.8762C0.25 18.8779 0.25 18.8797 0.25 18.8815C0.25 18.8833 0.25 18.8851 0.25 18.8868C0.25 18.8886 0.25 18.8904 0.25 18.8922C0.25 18.8939 0.25 18.8957 0.25 18.8975C0.25 18.8993 0.25 18.901 0.25 18.9028C0.25 18.9046 0.25 18.9064 0.25 18.9082C0.25 18.9099 0.25 18.9117 0.25 18.9135C0.25 18.9153 0.25 18.917 0.25 18.9188C0.25 18.9206 0.25 18.9224 0.25 18.9242C0.25 18.9259 0.25 18.9277 0.25 18.9295C0.25 18.9313 0.25 18.9331 0.25 18.9348C0.25 18.9366 0.25 18.9384 0.25 18.9402C0.25 18.942 0.25 18.9437 0.25 18.9455C0.25 18.9473 0.25 18.9491 0.25 18.9509C0.25 18.9526 0.25 18.9544 0.25 18.9562C0.25 18.958 0.25 18.9598 0.25 18.9615C0.25 18.9633 0.25 18.9651 0.25 18.9669C0.25 18.9687 0.25 18.9705 0.25 18.9722C0.25 18.974 0.25 18.9758 0.25 18.9776C0.25 18.9794 0.25 18.9811 0.25 18.9829C0.25 18.9847 0.25 18.9865 0.25 18.9883H1.75ZM4.85714 13.3139H10V11.8139H4.85714V13.3139ZM13.1071 16.4204C13.1071 16.4219 13.1071 16.4235 13.1071 16.425C13.1071 16.4265 13.1071 16.4281 13.1071 16.4296C13.1071 16.4311 13.1071 16.4327 13.1071 16.4342C13.1071 16.4358 13.1071 16.4373 13.1071 16.4388C13.1071 16.4404 13.1071 16.4419 13.1071 16.4434C13.1071 16.445 13.1071 16.4465 13.1071 16.4481C13.1071 16.4496 13.1071 16.4511 13.1071 16.4527C13.1071 16.4542 13.1071 16.4558 13.1071 16.4573C13.1071 16.4588 13.1071 16.4604 13.1071 16.4619C13.1071 16.4635 13.1071 16.465 13.1071 16.4666C13.1071 16.4681 13.1071 16.4696 13.1071 16.4712C13.1071 16.4727 13.1071 16.4743 13.1071 16.4758C13.1071 16.4774 13.1071 16.4789 13.1071 16.4804C13.1071 16.482 13.1071 16.4835 13.1071 16.4851C13.1071 16.4866 13.1071 16.4882 13.1071 16.4897C13.1071 16.4913 13.1071 16.4928 13.1071 16.4944C13.1071 16.4959 13.1071 16.4974 13.1071 16.499C13.1071 16.5005 13.1071 16.5021 13.1071 16.5036C13.1071 16.5052 13.1071 16.5067 13.1071 16.5083C13.1071 16.5098 13.1071 16.5114 13.1071 16.5129C13.1071 16.5145 13.1071 16.516 13.1071 16.5176C13.1071 16.5191 13.1071 16.5207 13.1071 16.5222C13.1071 16.5238 13.1071 16.5253 13.1071 16.5269C13.1071 16.5284 13.1071 16.53 13.1071 16.5315C13.1071 16.5331 13.1071 16.5346 13.1071 16.5362C13.1071 16.5377 13.1071 16.5393 13.1071 16.5408C13.1071 16.5424 13.1071 16.5439 13.1071 16.5455C13.1071 16.547 13.1071 16.5486 13.1071 16.5501C13.1071 16.5517 13.1071 16.5532 13.1071 16.5548C13.1071 16.5564 13.1071 16.5579 13.1071 16.5595C13.1071 16.561 13.1071 16.5626 13.1071 16.5641C13.1071 16.5657 13.1071 16.5672 13.1071 16.5688C13.1071 16.5704 13.1071 16.5719 13.1071 16.5735C13.1071 16.575 13.1071 16.5766 13.1071 16.5781C13.1071 16.5797 13.1071 16.5813 13.1071 16.5828C13.1071 16.5844 13.1071 16.5859 13.1071 16.5875C13.1071 16.589 13.1071 16.5906 13.1071 16.5922C13.1071 16.5937 13.1071 16.5953 13.1071 16.5968C13.1071 16.5984 13.1071 16.6 13.1071 16.6015C13.1071 16.6031 13.1071 16.6046 13.1071 16.6062C13.1071 16.6078 13.1071 16.6093 13.1071 16.6109C13.1071 16.6124 13.1071 16.614 13.1071 16.6156C13.1071 16.6171 13.1071 16.6187 13.1071 16.6202C13.1071 16.6218 13.1071 16.6234 13.1071 16.6249C13.1071 16.6265 13.1071 16.6281 13.1071 16.6296C13.1071 16.6312 13.1071 16.6328 13.1071 16.6343C13.1071 16.6359 13.1071 16.6374 13.1071 16.639C13.1071 16.6406 13.1071 16.6421 13.1071 16.6437C13.1071 16.6453 13.1071 16.6468 13.1071 16.6484C13.1071 16.65 13.1071 16.6515 13.1071 16.6531C13.1071 16.6547 13.1071 16.6562 13.1071 16.6578C13.1071 16.6594 13.1071 16.6609 13.1071 16.6625C13.1071 16.6641 13.1071 16.6656 13.1071 16.6672C13.1071 16.6688 13.1071 16.6704 13.1071 16.6719C13.1071 16.6735 13.1071 16.6751 13.1071 16.6766C13.1071 16.6782 13.1071 16.6798 13.1071 16.6813C13.1071 16.6829 13.1071 16.6845 13.1071 16.6861C13.1071 16.6876 13.1071 16.6892 13.1071 16.6908C13.1071 16.6923 13.1071 16.6939 13.1071 16.6955C13.1071 16.6971 13.1071 16.6986 13.1071 16.7002C13.1071 16.7018 13.1071 16.7033 13.1071 16.7049C13.1071 16.7065 13.1071 16.7081 13.1071 16.7096C13.1071 16.7112 13.1071 16.7128 13.1071 16.7144C13.1071 16.7159 13.1071 16.7175 13.1071 16.7191C13.1071 16.7207 13.1071 16.7222 13.1071 16.7238C13.1071 16.7254 13.1071 16.727 13.1071 16.7285C13.1071 16.7301 13.1071 16.7317 13.1071 16.7333C13.1071 16.7348 13.1071 16.7364 13.1071 16.738C13.1071 16.7396 13.1071 16.7412 13.1071 16.7427C13.1071 16.7443 13.1071 16.7459 13.1071 16.7475C13.1071 16.749 13.1071 16.7506 13.1071 16.7522C13.1071 16.7538 13.1071 16.7554 13.1071 16.7569C13.1071 16.7585 13.1071 16.7601 13.1071 16.7617C13.1071 16.7633 13.1071 16.7648 13.1071 16.7664C13.1071 16.768 13.1071 16.7696 13.1071 16.7712C13.1071 16.7727 13.1071 16.7743 13.1071 16.7759C13.1071 16.7775 13.1071 16.7791 13.1071 16.7807C13.1071 16.7822 13.1071 16.7838 13.1071 16.7854C13.1071 16.787 13.1071 16.7886 13.1071 16.7902C13.1071 16.7917 13.1071 16.7933 13.1071 16.7949C13.1071 16.7965 13.1071 16.7981 13.1071 16.7997C13.1071 16.8012 13.1071 16.8028 13.1071 16.8044C13.1071 16.806 13.1071 16.8076 13.1071 16.8092C13.1071 16.8108 13.1071 16.8123 13.1071 16.8139C13.1071 16.8155 13.1071 16.8171 13.1071 16.8187C13.1071 16.8203 13.1071 16.8219 13.1071 16.8235C13.1071 16.825 13.1071 16.8266 13.1071 16.8282C13.1071 16.8298 13.1071 16.8314 13.1071 16.833C13.1071 16.8346 13.1071 16.8362 13.1071 16.8378C13.1071 16.8393 13.1071 16.8409 13.1071 16.8425C13.1071 16.8441 13.1071 16.8457 13.1071 16.8473C13.1071 16.8489 13.1071 16.8505 13.1071 16.8521C13.1071 16.8537 13.1071 16.8553 13.1071 16.8568C13.1071 16.8584 13.1071 16.86 13.1071 16.8616C13.1071 16.8632 13.1071 16.8648 13.1071 16.8664C13.1071 16.868 13.1071 16.8696 13.1071 16.8712C13.1071 16.8728 13.1071 16.8744 13.1071 16.876C13.1071 16.8776 13.1071 16.8791 13.1071 16.8807C13.1071 16.8823 13.1071 16.8839 13.1071 16.8855C13.1071 16.8871 13.1071 16.8887 13.1071 16.8903C13.1071 16.8919 13.1071 16.8935 13.1071 16.8951C13.1071 16.8967 13.1071 16.8983 13.1071 16.8999C13.1071 16.9015 13.1071 16.9031 13.1071 16.9047C13.1071 16.9063 13.1071 16.9079 13.1071 16.9095C13.1071 16.9111 13.1071 16.9127 13.1071 16.9143C13.1071 16.9159 13.1071 16.9175 13.1071 16.9191C13.1071 16.9207 13.1071 16.9223 13.1071 16.9239C13.1071 16.9255 13.1071 16.9271 13.1071 16.9287C13.1071 16.9303 13.1071 16.9319 13.1071 16.9335C13.1071 16.9351 13.1071 16.9367 13.1071 16.9383C13.1071 16.9399 13.1071 16.9415 13.1071 16.9431C13.1071 16.9447 13.1071 16.9463 13.1071 16.9479C13.1071 16.9495 13.1071 16.9511 13.1071 16.9527C13.1071 16.9543 13.1071 16.9559 13.1071 16.9575C13.1071 16.9591 13.1071 16.9607 13.1071 16.9623C13.1071 16.9639 13.1071 16.9655 13.1071 16.9671C13.1071 16.9687 13.1071 16.9703 13.1071 16.972C13.1071 16.9736 13.1071 16.9752 13.1071 16.9768C13.1071 16.9784 13.1071 16.98 13.1071 16.9816C13.1071 16.9832 13.1071 16.9848 13.1071 16.9864C13.1071 16.988 13.1071 16.9896 13.1071 16.9912C13.1071 16.9928 13.1071 16.9944 13.1071 16.9961C13.1071 16.9977 13.1071 16.9993 13.1071 17.0009C13.1071 17.0025 13.1071 17.0041 13.1071 17.0057C13.1071 17.0073 13.1071 17.0089 13.1071 17.0105C13.1071 17.0121 13.1071 17.0138 13.1071 17.0154C13.1071 17.017 13.1071 17.0186 13.1071 17.0202C13.1071 17.0218 13.1071 17.0234 13.1071 17.025C13.1071 17.0266 13.1071 17.0283 13.1071 17.0299C13.1071 17.0315 13.1071 17.0331 13.1071 17.0347C13.1071 17.0363 13.1071 17.0379 13.1071 17.0395C13.1071 17.0412 13.1071 17.0428 13.1071 17.0444C13.1071 17.046 13.1071 17.0476 13.1071 17.0492C13.1071 17.0508 13.1071 17.0525 13.1071 17.0541C13.1071 17.0557 13.1071 17.0573 13.1071 17.0589C13.1071 17.0605 13.1071 17.0621 13.1071 17.0638C13.1071 17.0654 13.1071 17.067 13.1071 17.0686C13.1071 17.0702 13.1071 17.0718 13.1071 17.0735C13.1071 17.0751 13.1071 17.0767 13.1071 17.0783C13.1071 17.0799 13.1071 17.0816 13.1071 17.0832C13.1071 17.0848 13.1071 17.0864 13.1071 17.088C13.1071 17.0896 13.1071 17.0913 13.1071 17.0929C13.1071 17.0945 13.1071 17.0961 13.1071 17.0977C13.1071 17.0994 13.1071 17.101 13.1071 17.1026C13.1071 17.1042 13.1071 17.1058 13.1071 17.1075C13.1071 17.1091 13.1071 17.1107 13.1071 17.1123C13.1071 17.1139 13.1071 17.1156 13.1071 17.1172C13.1071 17.1188 13.1071 17.1204 13.1071 17.1221C13.1071 17.1237 13.1071 17.1253 13.1071 17.1269C13.1071 17.1286 13.1071 17.1302 13.1071 17.1318C13.1071 17.1334 13.1071 17.135 13.1071 17.1367C13.1071 17.1383 13.1071 17.1399 13.1071 17.1415C13.1071 17.1432 13.1071 17.1448 13.1071 17.1464C13.1071 17.148 13.1071 17.1497 13.1071 17.1513C13.1071 17.1529 13.1071 17.1545 13.1071 17.1562C13.1071 17.1578 13.1071 17.1594 13.1071 17.1611C13.1071 17.1627 13.1071 17.1643 13.1071 17.1659C13.1071 17.1676 13.1071 17.1692 13.1071 17.1708C13.1071 17.1724 13.1071 17.1741 13.1071 17.1757C13.1071 17.1773 13.1071 17.179 13.1071 17.1806C13.1071 17.1822 13.1071 17.1838 13.1071 17.1855C13.1071 17.1871 13.1071 17.1887 13.1071 17.1904C13.1071 17.192 13.1071 17.1936 13.1071 17.1953C13.1071 17.1969 13.1071 17.1985 13.1071 17.2002C13.1071 17.2018 13.1071 17.2034 13.1071 17.205C13.1071 17.2067 13.1071 17.2083 13.1071 17.2099C13.1071 17.2116 13.1071 17.2132 13.1071 17.2148C13.1071 17.2165 13.1071 17.2181 13.1071 17.2197C13.1071 17.2214 13.1071 17.223 13.1071 17.2246C13.1071 17.2263 13.1071 17.2279 13.1071 17.2295C13.1071 17.2312 13.1071 17.2328 13.1071 17.2344C13.1071 17.2361 13.1071 17.2377 13.1071 17.2394C13.1071 17.241 13.1071 17.2426 13.1071 17.2443C13.1071 17.2459 13.1071 17.2475 13.1071 17.2492C13.1071 17.2508 13.1071 17.2524 13.1071 17.2541C13.1071 17.2557 13.1071 17.2574 13.1071 17.259C13.1071 17.2606 13.1071 17.2623 13.1071 17.2639C13.1071 17.2655 13.1071 17.2672 13.1071 17.2688C13.1071 17.2705 13.1071 17.2721 13.1071 17.2737C13.1071 17.2754 13.1071 17.277 13.1071 17.2787C13.1071 17.2803 13.1071 17.2819 13.1071 17.2836C13.1071 17.2852 13.1071 17.2869 13.1071 17.2885C13.1071 17.2901 13.1071 17.2918 13.1071 17.2934C13.1071 17.2951 13.1071 17.2967 13.1071 17.2983C13.1071 17.3 13.1071 17.3016 13.1071 17.3033C13.1071 17.3049 13.1071 17.3066 13.1071 17.3082C13.1071 17.3098 13.1071 17.3115 13.1071 17.3131C13.1071 17.3148 13.1071 17.3164 13.1071 17.3181C13.1071 17.3197 13.1071 17.3213 13.1071 17.323C13.1071 17.3246 13.1071 17.3263 13.1071 17.3279C13.1071 17.3296 13.1071 17.3312 13.1071 17.3329C13.1071 17.3345 13.1071 17.3361 13.1071 17.3378C13.1071 17.3394 13.1071 17.3411 13.1071 17.3427C13.1071 17.3444 13.1071 17.346 13.1071 17.3477C13.1071 17.3493 13.1071 17.351 13.1071 17.3526C13.1071 17.3543 13.1071 17.3559 13.1071 17.3576C13.1071 17.3592 13.1071 17.3609 13.1071 17.3625C13.1071 17.3641 13.1071 17.3658 13.1071 17.3674C13.1071 17.3691 13.1071 17.3707 13.1071 17.3724C13.1071 17.374 13.1071 17.3757 13.1071 17.3773C13.1071 17.379 13.1071 17.3806 13.1071 17.3823C13.1071 17.3839 13.1071 17.3856 13.1071 17.3872C13.1071 17.3889 13.1071 17.3905 13.1071 17.3922C13.1071 17.3939 13.1071 17.3955 13.1071 17.3972C13.1071 17.3988 13.1071 17.4005 13.1071 17.4021C13.1071 17.4038 13.1071 17.4054 13.1071 17.4071C13.1071 17.4087 13.1071 17.4104 13.1071 17.412C13.1071 17.4137 13.1071 17.4153 13.1071 17.417C13.1071 17.4186 13.1071 17.4203 13.1071 17.422C13.1071 17.4236 13.1071 17.4253 13.1071 17.4269C13.1071 17.4286 13.1071 17.4302 13.1071 17.4319C13.1071 17.4335 13.1071 17.4352 13.1071 17.4369C13.1071 17.4385 13.1071 17.4402 13.1071 17.4418C13.1071 17.4435 13.1071 17.4451 13.1071 17.4468C13.1071 17.4485 13.1071 17.4501 13.1071 17.4518C13.1071 17.4534 13.1071 17.4551 13.1071 17.4567C13.1071 17.4584 13.1071 17.4601 13.1071 17.4617C13.1071 17.4634 13.1071 17.465 13.1071 17.4667C13.1071 17.4684 13.1071 17.47 13.1071 17.4717C13.1071 17.4733 13.1071 17.475 13.1071 17.4767C13.1071 17.4783 13.1071 17.48 13.1071 17.4816C13.1071 17.4833 13.1071 17.485 13.1071 17.4866C13.1071 17.4883 13.1071 17.4899 13.1071 17.4916C13.1071 17.4933 13.1071 17.4949 13.1071 17.4966C13.1071 17.4982 13.1071 17.4999 13.1071 17.5016C13.1071 17.5032 13.1071 17.5049 13.1071 17.5066C13.1071 17.5082 13.1071 17.5099 13.1071 17.5116C13.1071 17.5132 13.1071 17.5149 13.1071 17.5165C13.1071 17.5182 13.1071 17.5199 13.1071 17.5215C13.1071 17.5232 13.1071 17.5249 13.1071 17.5265C13.1071 17.5282 13.1071 17.5299 13.1071 17.5315C13.1071 17.5332 13.1071 17.5349 13.1071 17.5365C13.1071 17.5382 13.1071 17.5399 13.1071 17.5415C13.1071 17.5432 13.1071 17.5449 13.1071 17.5465C13.1071 17.5482 13.1071 17.5499 13.1071 17.5515C13.1071 17.5532 13.1071 17.5549 13.1071 17.5565C13.1071 17.5582 13.1071 17.5599 13.1071 17.5615C13.1071 17.5632 13.1071 17.5649 13.1071 17.5665C13.1071 17.5682 13.1071 17.5699 13.1071 17.5716C13.1071 17.5732 13.1071 17.5749 13.1071 17.5766C13.1071 17.5782 13.1071 17.5799 13.1071 17.5816C13.1071 17.5832 13.1071 17.5849 13.1071 17.5866C13.1071 17.5883 13.1071 17.5899 13.1071 17.5916C13.1071 17.5933 13.1071 17.5949 13.1071 17.5966C13.1071 17.5983 13.1071 17.6 13.1071 17.6016C13.1071 17.6033 13.1071 17.605 13.1071 17.6067C13.1071 17.6083 13.1071 17.61 13.1071 17.6117C13.1071 17.6133 13.1071 17.615 13.1071 17.6167C13.1071 17.6184 13.1071 17.62 13.1071 17.6217C13.1071 17.6234 13.1071 17.6251 13.1071 17.6267C13.1071 17.6284 13.1071 17.6301 13.1071 17.6318C13.1071 17.6334 13.1071 17.6351 13.1071 17.6368C13.1071 17.6385 13.1071 17.6401 13.1071 17.6418C13.1071 17.6435 13.1071 17.6452 13.1071 17.6469C13.1071 17.6485 13.1071 17.6502 13.1071 17.6519C13.1071 17.6536 13.1071 17.6552 13.1071 17.6569C13.1071 17.6586 13.1071 17.6603 13.1071 17.662C13.1071 17.6636 13.1071 17.6653 13.1071 17.667C13.1071 17.6687 13.1071 17.6703 13.1071 17.672C13.1071 17.6737 13.1071 17.6754 13.1071 17.6771C13.1071 17.6787 13.1071 17.6804 13.1071 17.6821C13.1071 17.6838 13.1071 17.6855 13.1071 17.6871C13.1071 17.6888 13.1071 17.6905 13.1071 17.6922C13.1071 17.6939 13.1071 17.6956 13.1071 17.6972C13.1071 17.6989 13.1071 17.7006 13.1071 17.7023C13.1071 17.704 13.1071 17.7056 13.1071 17.7073C13.1071 17.709 13.1071 17.7107 13.1071 17.7124C13.1071 17.7141 13.1071 17.7157 13.1071 17.7174C13.1071 17.7191 13.1071 17.7208 13.1071 17.7225C13.1071 17.7242 13.1071 17.7258 13.1071 17.7275C13.1071 17.7292 13.1071 17.7309 13.1071 17.7326C13.1071 17.7343 13.1071 17.736 13.1071 17.7376C13.1071 17.7393 13.1071 17.741 13.1071 17.7427C13.1071 17.7444 13.1071 17.7461 13.1071 17.7478C13.1071 17.7494 13.1071 17.7511 13.1071 17.7528C13.1071 17.7545 13.1071 17.7562 13.1071 17.7579C13.1071 17.7596 13.1071 17.7613 13.1071 17.7629C13.1071 17.7646 13.1071 17.7663 13.1071 17.768C13.1071 17.7697 13.1071 17.7714 13.1071 17.7731C13.1071 17.7748 13.1071 17.7765 13.1071 17.7781C13.1071 17.7798 13.1071 17.7815 13.1071 17.7832C13.1071 17.7849 13.1071 17.7866 13.1071 17.7883C13.1071 17.79 13.1071 17.7917 13.1071 17.7934C13.1071 17.795 13.1071 17.7967 13.1071 17.7984C13.1071 17.8001 13.1071 17.8018 13.1071 17.8035C13.1071 17.8052 13.1071 17.8069 13.1071 17.8086C13.1071 17.8103 13.1071 17.812 13.1071 17.8137C13.1071 17.8153 13.1071 17.817 13.1071 17.8187C13.1071 17.8204 13.1071 17.8221 13.1071 17.8238C13.1071 17.8255 13.1071 17.8272 13.1071 17.8289C13.1071 17.8306 13.1071 17.8323 13.1071 17.834C13.1071 17.8357 13.1071 17.8374 13.1071 17.8391C13.1071 17.8408 13.1071 17.8424 13.1071 17.8441C13.1071 17.8458 13.1071 17.8475 13.1071 17.8492C13.1071 17.8509 13.1071 17.8526 13.1071 17.8543C13.1071 17.856 13.1071 17.8577 13.1071 17.8594C13.1071 17.8611 13.1071 17.8628 13.1071 17.8645C13.1071 17.8662 13.1071 17.8679 13.1071 17.8696C13.1071 17.8713 13.1071 17.873 13.1071 17.8747C13.1071 17.8764 13.1071 17.8781 13.1071 17.8798C13.1071 17.8815 13.1071 17.8832 13.1071 17.8849C13.1071 17.8866 13.1071 17.8883 13.1071 17.89C13.1071 17.8917 13.1071 17.8934 13.1071 17.8951C13.1071 17.8968 13.1071 17.8985 13.1071 17.9002C13.1071 17.9019 13.1071 17.9036 13.1071 17.9053C13.1071 17.907 13.1071 17.9087 13.1071 17.9104C13.1071 17.9121 13.1071 17.9138 13.1071 17.9155C13.1071 17.9172 13.1071 17.9189 13.1071 17.9206C13.1071 17.9223 13.1071 17.924 13.1071 17.9257C13.1071 17.9274 13.1071 17.9291 13.1071 17.9308C13.1071 17.9325 13.1071 17.9342 13.1071 17.9359C13.1071 17.9376 13.1071 17.9393 13.1071 17.941C13.1071 17.9427 13.1071 17.9444 13.1071 17.9461C13.1071 17.9478 13.1071 17.9496 13.1071 17.9513C13.1071 17.953 13.1071 17.9547 13.1071 17.9564C13.1071 17.9581 13.1071 17.9598 13.1071 17.9615C13.1071 17.9632 13.1071 17.9649 13.1071 17.9666C13.1071 17.9683 13.1071 17.97 13.1071 17.9717C13.1071 17.9734 13.1071 17.9751 13.1071 17.9768C13.1071 17.9786 13.1071 17.9803 13.1071 17.982C13.1071 17.9837 13.1071 17.9854 13.1071 17.9871C13.1071 17.9888 13.1071 17.9905 13.1071 17.9922C13.1071 17.9939 13.1071 17.9956 13.1071 17.9973C13.1071 17.9991 13.1071 18.0008 13.1071 18.0025C13.1071 18.0042 13.1071 18.0059 13.1071 18.0076C13.1071 18.0093 13.1071 18.011 13.1071 18.0127C13.1071 18.0144 13.1071 18.0162 13.1071 18.0179C13.1071 18.0196 13.1071 18.0213 13.1071 18.023C13.1071 18.0247 13.1071 18.0264 13.1071 18.0281C13.1071 18.0298 13.1071 18.0316 13.1071 18.0333C13.1071 18.035 13.1071 18.0367 13.1071 18.0384C13.1071 18.0401 13.1071 18.0418 13.1071 18.0435C13.1071 18.0453 13.1071 18.047 13.1071 18.0487C13.1071 18.0504 13.1071 18.0521 13.1071 18.0538C13.1071 18.0555 13.1071 18.0572 13.1071 18.059C13.1071 18.0607 13.1071 18.0624 13.1071 18.0641C13.1071 18.0658 13.1071 18.0675 13.1071 18.0693C13.1071 18.071 13.1071 18.0727 13.1071 18.0744C13.1071 18.0761 13.1071 18.0778 13.1071 18.0795C13.1071 18.0813 13.1071 18.083 13.1071 18.0847C13.1071 18.0864 13.1071 18.0881 13.1071 18.0898C13.1071 18.0916 13.1071 18.0933 13.1071 18.095C13.1071 18.0967 13.1071 18.0984 13.1071 18.1001C13.1071 18.1019 13.1071 18.1036 13.1071 18.1053C13.1071 18.107 13.1071 18.1087 13.1071 18.1105C13.1071 18.1122 13.1071 18.1139 13.1071 18.1156C13.1071 18.1173 13.1071 18.1191 13.1071 18.1208C13.1071 18.1225 13.1071 18.1242 13.1071 18.1259C13.1071 18.1276 13.1071 18.1294 13.1071 18.1311C13.1071 18.1328 13.1071 18.1345 13.1071 18.1363C13.1071 18.138 13.1071 18.1397 13.1071 18.1414C13.1071 18.1431 13.1071 18.1449 13.1071 18.1466C13.1071 18.1483 13.1071 18.15 13.1071 18.1517C13.1071 18.1535 13.1071 18.1552 13.1071 18.1569C13.1071 18.1586 13.1071 18.1604 13.1071 18.1621C13.1071 18.1638 13.1071 18.1655 13.1071 18.1672C13.1071 18.169 13.1071 18.1707 13.1071 18.1724C13.1071 18.1741 13.1071 18.1759 13.1071 18.1776C13.1071 18.1793 13.1071 18.181 13.1071 18.1828C13.1071 18.1845 13.1071 18.1862 13.1071 18.1879C13.1071 18.1897 13.1071 18.1914 13.1071 18.1931C13.1071 18.1948 13.1071 18.1966 13.1071 18.1983C13.1071 18.2 13.1071 18.2017 13.1071 18.2035C13.1071 18.2052 13.1071 18.2069 13.1071 18.2087C13.1071 18.2104 13.1071 18.2121 13.1071 18.2138C13.1071 18.2156 13.1071 18.2173 13.1071 18.219C13.1071 18.2207 13.1071 18.2225 13.1071 18.2242C13.1071 18.2259 13.1071 18.2277 13.1071 18.2294C13.1071 18.2311 13.1071 18.2328 13.1071 18.2346C13.1071 18.2363 13.1071 18.238 13.1071 18.2398C13.1071 18.2415 13.1071 18.2432 13.1071 18.2449C13.1071 18.2467 13.1071 18.2484 13.1071 18.2501C13.1071 18.2519 13.1071 18.2536 13.1071 18.2553C13.1071 18.2571 13.1071 18.2588 13.1071 18.2605C13.1071 18.2622 13.1071 18.264 13.1071 18.2657C13.1071 18.2674 13.1071 18.2692 13.1071 18.2709C13.1071 18.2726 13.1071 18.2744 13.1071 18.2761C13.1071 18.2778 13.1071 18.2796 13.1071 18.2813C13.1071 18.283 13.1071 18.2848 13.1071 18.2865C13.1071 18.2882 13.1071 18.29 13.1071 18.2917C13.1071 18.2934 13.1071 18.2952 13.1071 18.2969C13.1071 18.2986 13.1071 18.3004 13.1071 18.3021C13.1071 18.3038 13.1071 18.3056 13.1071 18.3073C13.1071 18.309 13.1071 18.3108 13.1071 18.3125C13.1071 18.3142 13.1071 18.316 13.1071 18.3177C13.1071 18.3194 13.1071 18.3212 13.1071 18.3229C13.1071 18.3247 13.1071 18.3264 13.1071 18.3281C13.1071 18.3299 13.1071 18.3316 13.1071 18.3333C13.1071 18.3351 13.1071 18.3368 13.1071 18.3385C13.1071 18.3403 13.1071 18.342 13.1071 18.3438C13.1071 18.3455 13.1071 18.3472 13.1071 18.349C13.1071 18.3507 13.1071 18.3524 13.1071 18.3542C13.1071 18.3559 13.1071 18.3577 13.1071 18.3594C13.1071 18.3611 13.1071 18.3629 13.1071 18.3646C13.1071 18.3664 13.1071 18.3681 13.1071 18.3698C13.1071 18.3716 13.1071 18.3733 13.1071 18.3751C13.1071 18.3768 13.1071 18.3785 13.1071 18.3803C13.1071 18.382 13.1071 18.3838 13.1071 18.3855C13.1071 18.3872 13.1071 18.389 13.1071 18.3907C13.1071 18.3925 13.1071 18.3942 13.1071 18.3959C13.1071 18.3977 13.1071 18.3994 13.1071 18.4012C13.1071 18.4029 13.1071 18.4047 13.1071 18.4064C13.1071 18.4081 13.1071 18.4099 13.1071 18.4116C13.1071 18.4134 13.1071 18.4151 13.1071 18.4169C13.1071 18.4186 13.1071 18.4203 13.1071 18.4221C13.1071 18.4238 13.1071 18.4256 13.1071 18.4273C13.1071 18.4291 13.1071 18.4308 13.1071 18.4325C13.1071 18.4343 13.1071 18.436 13.1071 18.4378C13.1071 18.4395 13.1071 18.4413 13.1071 18.443C13.1071 18.4448 13.1071 18.4465 13.1071 18.4483C13.1071 18.45 13.1071 18.4517 13.1071 18.4535C13.1071 18.4552 13.1071 18.457 13.1071 18.4587C13.1071 18.4605 13.1071 18.4622 13.1071 18.464C13.1071 18.4657 13.1071 18.4675 13.1071 18.4692C13.1071 18.471 13.1071 18.4727 13.1071 18.4745C13.1071 18.4762 13.1071 18.4779 13.1071 18.4797C13.1071 18.4814 13.1071 18.4832 13.1071 18.4849C13.1071 18.4867 13.1071 18.4884 13.1071 18.4902C13.1071 18.4919 13.1071 18.4937 13.1071 18.4954C13.1071 18.4972 13.1071 18.4989 13.1071 18.5007C13.1071 18.5024 13.1071 18.5042 13.1071 18.5059C13.1071 18.5077 13.1071 18.5094 13.1071 18.5112C13.1071 18.5129 13.1071 18.5147 13.1071 18.5164C13.1071 18.5182 13.1071 18.5199 13.1071 18.5217C13.1071 18.5234 13.1071 18.5252 13.1071 18.5269C13.1071 18.5287 13.1071 18.5304 13.1071 18.5322C13.1071 18.5339 13.1071 18.5357 13.1071 18.5374C13.1071 18.5392 13.1071 18.541 13.1071 18.5427C13.1071 18.5445 13.1071 18.5462 13.1071 18.548C13.1071 18.5497 13.1071 18.5515 13.1071 18.5532C13.1071 18.555 13.1071 18.5567 13.1071 18.5585C13.1071 18.5602 13.1071 18.562 13.1071 18.5637C13.1071 18.5655 13.1071 18.5673 13.1071 18.569C13.1071 18.5708 13.1071 18.5725 13.1071 18.5743C13.1071 18.576 13.1071 18.5778 13.1071 18.5795C13.1071 18.5813 13.1071 18.583 13.1071 18.5848C13.1071 18.5866 13.1071 18.5883 13.1071 18.5901C13.1071 18.5918 13.1071 18.5936 13.1071 18.5953C13.1071 18.5971 13.1071 18.5989 13.1071 18.6006C13.1071 18.6024 13.1071 18.6041 13.1071 18.6059C13.1071 18.6076 13.1071 18.6094 13.1071 18.6112C13.1071 18.6129 13.1071 18.6147 13.1071 18.6164C13.1071 18.6182 13.1071 18.6199 13.1071 18.6217C13.1071 18.6235 13.1071 18.6252 13.1071 18.627C13.1071 18.6287 13.1071 18.6305 13.1071 18.6323C13.1071 18.634 13.1071 18.6358 13.1071 18.6375C13.1071 18.6393 13.1071 18.641 13.1071 18.6428C13.1071 18.6446 13.1071 18.6463 13.1071 18.6481C13.1071 18.6498 13.1071 18.6516 13.1071 18.6534C13.1071 18.6551 13.1071 18.6569 13.1071 18.6587C13.1071 18.6604 13.1071 18.6622 13.1071 18.6639C13.1071 18.6657 13.1071 18.6675 13.1071 18.6692C13.1071 18.671 13.1071 18.6727 13.1071 18.6745C13.1071 18.6763 13.1071 18.678 13.1071 18.6798C13.1071 18.6816 13.1071 18.6833 13.1071 18.6851C13.1071 18.6868 13.1071 18.6886 13.1071 18.6904C13.1071 18.6921 13.1071 18.6939 13.1071 18.6957C13.1071 18.6974 13.1071 18.6992 13.1071 18.701C13.1071 18.7027 13.1071 18.7045 13.1071 18.7062C13.1071 18.708 13.1071 18.7098 13.1071 18.7115C13.1071 18.7133 13.1071 18.7151 13.1071 18.7168C13.1071 18.7186 13.1071 18.7204 13.1071 18.7221C13.1071 18.7239 13.1071 18.7257 13.1071 18.7274C13.1071 18.7292 13.1071 18.731 13.1071 18.7327C13.1071 18.7345 13.1071 18.7363 13.1071 18.738C13.1071 18.7398 13.1071 18.7416 13.1071 18.7433C13.1071 18.7451 13.1071 18.7469 13.1071 18.7486C13.1071 18.7504 13.1071 18.7522 13.1071 18.7539C13.1071 18.7557 13.1071 18.7575 13.1071 18.7592C13.1071 18.761 13.1071 18.7628 13.1071 18.7645C13.1071 18.7663 13.1071 18.7681 13.1071 18.7698C13.1071 18.7716 13.1071 18.7734 13.1071 18.7751C13.1071 18.7769 13.1071 18.7787 13.1071 18.7805C13.1071 18.7822 13.1071 18.784 13.1071 18.7858C13.1071 18.7875 13.1071 18.7893 13.1071 18.7911C13.1071 18.7928 13.1071 18.7946 13.1071 18.7964C13.1071 18.7982 13.1071 18.7999 13.1071 18.8017C13.1071 18.8035 13.1071 18.8052 13.1071 18.807C13.1071 18.8088 13.1071 18.8105 13.1071 18.8123C13.1071 18.8141 13.1071 18.8159 13.1071 18.8176C13.1071 18.8194 13.1071 18.8212 13.1071 18.823C13.1071 18.8247 13.1071 18.8265 13.1071 18.8283C13.1071 18.83 13.1071 18.8318 13.1071 18.8336C13.1071 18.8354 13.1071 18.8371 13.1071 18.8389C13.1071 18.8407 13.1071 18.8425 13.1071 18.8442C13.1071 18.846 13.1071 18.8478 13.1071 18.8495C13.1071 18.8513 13.1071 18.8531 13.1071 18.8549C13.1071 18.8566 13.1071 18.8584 13.1071 18.8602C13.1071 18.862 13.1071 18.8637 13.1071 18.8655C13.1071 18.8673 13.1071 18.8691 13.1071 18.8708C13.1071 18.8726 13.1071 18.8744 13.1071 18.8762C13.1071 18.8779 13.1071 18.8797 13.1071 18.8815C13.1071 18.8833 13.1071 18.8851 13.1071 18.8868C13.1071 18.8886 13.1071 18.8904 13.1071 18.8922C13.1071 18.8939 13.1071 18.8957 13.1071 18.8975C13.1071 18.8993 13.1071 18.901 13.1071 18.9028C13.1071 18.9046 13.1071 18.9064 13.1071 18.9082C13.1071 18.9099 13.1071 18.9117 13.1071 18.9135C13.1071 18.9153 13.1071 18.917 13.1071 18.9188C13.1071 18.9206 13.1071 18.9224 13.1071 18.9242C13.1071 18.9259 13.1071 18.9277 13.1071 18.9295C13.1071 18.9313 13.1071 18.9331 13.1071 18.9348C13.1071 18.9366 13.1071 18.9384 13.1071 18.9402C13.1071 18.942 13.1071 18.9437 13.1071 18.9455C13.1071 18.9473 13.1071 18.9491 13.1071 18.9509C13.1071 18.9526 13.1071 18.9544 13.1071 18.9562C13.1071 18.958 13.1071 18.9598 13.1071 18.9615C13.1071 18.9633 13.1071 18.9651 13.1071 18.9669C13.1071 18.9687 13.1071 18.9705 13.1071 18.9722C13.1071 18.974 13.1071 18.9758 13.1071 18.9776C13.1071 18.9794 13.1071 18.9811 13.1071 18.9829C13.1071 18.9847 13.1071 18.9865 13.1071 18.9883H14.6071C14.6071 18.9865 14.6071 18.9847 14.6071 18.9829C14.6071 18.9811 14.6071 18.9794 14.6071 18.9776C14.6071 18.9758 14.6071 18.974 14.6071 18.9722C14.6071 18.9705 14.6071 18.9687 14.6071 18.9669C14.6071 18.9651 14.6071 18.9633 14.6071 18.9615C14.6071 18.9598 14.6071 18.958 14.6071 18.9562C14.6071 18.9544 14.6071 18.9526 14.6071 18.9509C14.6071 18.9491 14.6071 18.9473 14.6071 18.9455C14.6071 18.9437 14.6071 18.942 14.6071 18.9402C14.6071 18.9384 14.6071 18.9366 14.6071 18.9348C14.6071 18.9331 14.6071 18.9313 14.6071 18.9295C14.6071 18.9277 14.6071 18.9259 14.6071 18.9242C14.6071 18.9224 14.6071 18.9206 14.6071 18.9188C14.6071 18.917 14.6071 18.9153 14.6071 18.9135C14.6071 18.9117 14.6071 18.9099 14.6071 18.9082C14.6071 18.9064 14.6071 18.9046 14.6071 18.9028C14.6071 18.901 14.6071 18.8993 14.6071 18.8975C14.6071 18.8957 14.6071 18.8939 14.6071 18.8922C14.6071 18.8904 14.6071 18.8886 14.6071 18.8868C14.6071 18.8851 14.6071 18.8833 14.6071 18.8815C14.6071 18.8797 14.6071 18.8779 14.6071 18.8762C14.6071 18.8744 14.6071 18.8726 14.6071 18.8708C14.6071 18.8691 14.6071 18.8673 14.6071 18.8655C14.6071 18.8637 14.6071 18.862 14.6071 18.8602C14.6071 18.8584 14.6071 18.8566 14.6071 18.8549C14.6071 18.8531 14.6071 18.8513 14.6071 18.8495C14.6071 18.8478 14.6071 18.846 14.6071 18.8442C14.6071 18.8425 14.6071 18.8407 14.6071 18.8389C14.6071 18.8371 14.6071 18.8354 14.6071 18.8336C14.6071 18.8318 14.6071 18.83 14.6071 18.8283C14.6071 18.8265 14.6071 18.8247 14.6071 18.823C14.6071 18.8212 14.6071 18.8194 14.6071 18.8176C14.6071 18.8159 14.6071 18.8141 14.6071 18.8123C14.6071 18.8105 14.6071 18.8088 14.6071 18.807C14.6071 18.8052 14.6071 18.8035 14.6071 18.8017C14.6071 18.7999 14.6071 18.7982 14.6071 18.7964C14.6071 18.7946 14.6071 18.7928 14.6071 18.7911C14.6071 18.7893 14.6071 18.7875 14.6071 18.7858C14.6071 18.784 14.6071 18.7822 14.6071 18.7805C14.6071 18.7787 14.6071 18.7769 14.6071 18.7751C14.6071 18.7734 14.6071 18.7716 14.6071 18.7698C14.6071 18.7681 14.6071 18.7663 14.6071 18.7645C14.6071 18.7628 14.6071 18.761 14.6071 18.7592C14.6071 18.7575 14.6071 18.7557 14.6071 18.7539C14.6071 18.7522 14.6071 18.7504 14.6071 18.7486C14.6071 18.7469 14.6071 18.7451 14.6071 18.7433C14.6071 18.7416 14.6071 18.7398 14.6071 18.738C14.6071 18.7363 14.6071 18.7345 14.6071 18.7327C14.6071 18.731 14.6071 18.7292 14.6071 18.7274C14.6071 18.7257 14.6071 18.7239 14.6071 18.7221C14.6071 18.7204 14.6071 18.7186 14.6071 18.7168C14.6071 18.7151 14.6071 18.7133 14.6071 18.7115C14.6071 18.7098 14.6071 18.708 14.6071 18.7062C14.6071 18.7045 14.6071 18.7027 14.6071 18.701C14.6071 18.6992 14.6071 18.6974 14.6071 18.6957C14.6071 18.6939 14.6071 18.6921 14.6071 18.6904C14.6071 18.6886 14.6071 18.6868 14.6071 18.6851C14.6071 18.6833 14.6071 18.6816 14.6071 18.6798C14.6071 18.678 14.6071 18.6763 14.6071 18.6745C14.6071 18.6727 14.6071 18.671 14.6071 18.6692C14.6071 18.6675 14.6071 18.6657 14.6071 18.6639C14.6071 18.6622 14.6071 18.6604 14.6071 18.6587C14.6071 18.6569 14.6071 18.6551 14.6071 18.6534C14.6071 18.6516 14.6071 18.6498 14.6071 18.6481C14.6071 18.6463 14.6071 18.6446 14.6071 18.6428C14.6071 18.641 14.6071 18.6393 14.6071 18.6375C14.6071 18.6358 14.6071 18.634 14.6071 18.6323C14.6071 18.6305 14.6071 18.6287 14.6071 18.627C14.6071 18.6252 14.6071 18.6235 14.6071 18.6217C14.6071 18.6199 14.6071 18.6182 14.6071 18.6164C14.6071 18.6147 14.6071 18.6129 14.6071 18.6112C14.6071 18.6094 14.6071 18.6076 14.6071 18.6059C14.6071 18.6041 14.6071 18.6024 14.6071 18.6006C14.6071 18.5989 14.6071 18.5971 14.6071 18.5953C14.6071 18.5936 14.6071 18.5918 14.6071 18.5901C14.6071 18.5883 14.6071 18.5866 14.6071 18.5848C14.6071 18.583 14.6071 18.5813 14.6071 18.5795C14.6071 18.5778 14.6071 18.576 14.6071 18.5743C14.6071 18.5725 14.6071 18.5708 14.6071 18.569C14.6071 18.5673 14.6071 18.5655 14.6071 18.5637C14.6071 18.562 14.6071 18.5602 14.6071 18.5585C14.6071 18.5567 14.6071 18.555 14.6071 18.5532C14.6071 18.5515 14.6071 18.5497 14.6071 18.548C14.6071 18.5462 14.6071 18.5445 14.6071 18.5427C14.6071 18.541 14.6071 18.5392 14.6071 18.5374C14.6071 18.5357 14.6071 18.5339 14.6071 18.5322C14.6071 18.5304 14.6071 18.5287 14.6071 18.5269C14.6071 18.5252 14.6071 18.5234 14.6071 18.5217C14.6071 18.5199 14.6071 18.5182 14.6071 18.5164C14.6071 18.5147 14.6071 18.5129 14.6071 18.5112C14.6071 18.5094 14.6071 18.5077 14.6071 18.5059C14.6071 18.5042 14.6071 18.5024 14.6071 18.5007C14.6071 18.4989 14.6071 18.4972 14.6071 18.4954C14.6071 18.4937 14.6071 18.4919 14.6071 18.4902C14.6071 18.4884 14.6071 18.4867 14.6071 18.4849C14.6071 18.4832 14.6071 18.4814 14.6071 18.4797C14.6071 18.4779 14.6071 18.4762 14.6071 18.4745C14.6071 18.4727 14.6071 18.471 14.6071 18.4692C14.6071 18.4675 14.6071 18.4657 14.6071 18.464C14.6071 18.4622 14.6071 18.4605 14.6071 18.4587C14.6071 18.457 14.6071 18.4552 14.6071 18.4535C14.6071 18.4517 14.6071 18.45 14.6071 18.4483C14.6071 18.4465 14.6071 18.4448 14.6071 18.443C14.6071 18.4413 14.6071 18.4395 14.6071 18.4378C14.6071 18.436 14.6071 18.4343 14.6071 18.4325C14.6071 18.4308 14.6071 18.4291 14.6071 18.4273C14.6071 18.4256 14.6071 18.4238 14.6071 18.4221C14.6071 18.4203 14.6071 18.4186 14.6071 18.4169C14.6071 18.4151 14.6071 18.4134 14.6071 18.4116C14.6071 18.4099 14.6071 18.4081 14.6071 18.4064C14.6071 18.4047 14.6071 18.4029 14.6071 18.4012C14.6071 18.3994 14.6071 18.3977 14.6071 18.3959C14.6071 18.3942 14.6071 18.3925 14.6071 18.3907C14.6071 18.389 14.6071 18.3872 14.6071 18.3855C14.6071 18.3838 14.6071 18.382 14.6071 18.3803C14.6071 18.3785 14.6071 18.3768 14.6071 18.3751C14.6071 18.3733 14.6071 18.3716 14.6071 18.3698C14.6071 18.3681 14.6071 18.3664 14.6071 18.3646C14.6071 18.3629 14.6071 18.3611 14.6071 18.3594C14.6071 18.3577 14.6071 18.3559 14.6071 18.3542C14.6071 18.3524 14.6071 18.3507 14.6071 18.349C14.6071 18.3472 14.6071 18.3455 14.6071 18.3438C14.6071 18.342 14.6071 18.3403 14.6071 18.3385C14.6071 18.3368 14.6071 18.3351 14.6071 18.3333C14.6071 18.3316 14.6071 18.3299 14.6071 18.3281C14.6071 18.3264 14.6071 18.3247 14.6071 18.3229C14.6071 18.3212 14.6071 18.3194 14.6071 18.3177C14.6071 18.316 14.6071 18.3142 14.6071 18.3125C14.6071 18.3108 14.6071 18.309 14.6071 18.3073C14.6071 18.3056 14.6071 18.3038 14.6071 18.3021C14.6071 18.3004 14.6071 18.2986 14.6071 18.2969C14.6071 18.2952 14.6071 18.2934 14.6071 18.2917C14.6071 18.29 14.6071 18.2882 14.6071 18.2865C14.6071 18.2848 14.6071 18.283 14.6071 18.2813C14.6071 18.2796 14.6071 18.2778 14.6071 18.2761C14.6071 18.2744 14.6071 18.2726 14.6071 18.2709C14.6071 18.2692 14.6071 18.2674 14.6071 18.2657C14.6071 18.264 14.6071 18.2622 14.6071 18.2605C14.6071 18.2588 14.6071 18.2571 14.6071 18.2553C14.6071 18.2536 14.6071 18.2519 14.6071 18.2501C14.6071 18.2484 14.6071 18.2467 14.6071 18.2449C14.6071 18.2432 14.6071 18.2415 14.6071 18.2398C14.6071 18.238 14.6071 18.2363 14.6071 18.2346C14.6071 18.2328 14.6071 18.2311 14.6071 18.2294C14.6071 18.2277 14.6071 18.2259 14.6071 18.2242C14.6071 18.2225 14.6071 18.2207 14.6071 18.219C14.6071 18.2173 14.6071 18.2156 14.6071 18.2138C14.6071 18.2121 14.6071 18.2104 14.6071 18.2087C14.6071 18.2069 14.6071 18.2052 14.6071 18.2035C14.6071 18.2017 14.6071 18.2 14.6071 18.1983C14.6071 18.1966 14.6071 18.1948 14.6071 18.1931C14.6071 18.1914 14.6071 18.1897 14.6071 18.1879C14.6071 18.1862 14.6071 18.1845 14.6071 18.1828C14.6071 18.181 14.6071 18.1793 14.6071 18.1776C14.6071 18.1759 14.6071 18.1741 14.6071 18.1724C14.6071 18.1707 14.6071 18.169 14.6071 18.1672C14.6071 18.1655 14.6071 18.1638 14.6071 18.1621C14.6071 18.1604 14.6071 18.1586 14.6071 18.1569C14.6071 18.1552 14.6071 18.1535 14.6071 18.1517C14.6071 18.15 14.6071 18.1483 14.6071 18.1466C14.6071 18.1449 14.6071 18.1431 14.6071 18.1414C14.6071 18.1397 14.6071 18.138 14.6071 18.1363C14.6071 18.1345 14.6071 18.1328 14.6071 18.1311C14.6071 18.1294 14.6071 18.1276 14.6071 18.1259C14.6071 18.1242 14.6071 18.1225 14.6071 18.1208C14.6071 18.1191 14.6071 18.1173 14.6071 18.1156C14.6071 18.1139 14.6071 18.1122 14.6071 18.1105C14.6071 18.1087 14.6071 18.107 14.6071 18.1053C14.6071 18.1036 14.6071 18.1019 14.6071 18.1001C14.6071 18.0984 14.6071 18.0967 14.6071 18.095C14.6071 18.0933 14.6071 18.0916 14.6071 18.0898C14.6071 18.0881 14.6071 18.0864 14.6071 18.0847C14.6071 18.083 14.6071 18.0813 14.6071 18.0795C14.6071 18.0778 14.6071 18.0761 14.6071 18.0744C14.6071 18.0727 14.6071 18.071 14.6071 18.0693C14.6071 18.0675 14.6071 18.0658 14.6071 18.0641C14.6071 18.0624 14.6071 18.0607 14.6071 18.059C14.6071 18.0572 14.6071 18.0555 14.6071 18.0538C14.6071 18.0521 14.6071 18.0504 14.6071 18.0487C14.6071 18.047 14.6071 18.0453 14.6071 18.0435C14.6071 18.0418 14.6071 18.0401 14.6071 18.0384C14.6071 18.0367 14.6071 18.035 14.6071 18.0333C14.6071 18.0316 14.6071 18.0298 14.6071 18.0281C14.6071 18.0264 14.6071 18.0247 14.6071 18.023C14.6071 18.0213 14.6071 18.0196 14.6071 18.0179C14.6071 18.0162 14.6071 18.0144 14.6071 18.0127C14.6071 18.011 14.6071 18.0093 14.6071 18.0076C14.6071 18.0059 14.6071 18.0042 14.6071 18.0025C14.6071 18.0008 14.6071 17.9991 14.6071 17.9973C14.6071 17.9956 14.6071 17.9939 14.6071 17.9922C14.6071 17.9905 14.6071 17.9888 14.6071 17.9871C14.6071 17.9854 14.6071 17.9837 14.6071 17.982C14.6071 17.9803 14.6071 17.9786 14.6071 17.9768C14.6071 17.9751 14.6071 17.9734 14.6071 17.9717C14.6071 17.97 14.6071 17.9683 14.6071 17.9666C14.6071 17.9649 14.6071 17.9632 14.6071 17.9615C14.6071 17.9598 14.6071 17.9581 14.6071 17.9564C14.6071 17.9547 14.6071 17.953 14.6071 17.9513C14.6071 17.9496 14.6071 17.9478 14.6071 17.9461C14.6071 17.9444 14.6071 17.9427 14.6071 17.941C14.6071 17.9393 14.6071 17.9376 14.6071 17.9359C14.6071 17.9342 14.6071 17.9325 14.6071 17.9308C14.6071 17.9291 14.6071 17.9274 14.6071 17.9257C14.6071 17.924 14.6071 17.9223 14.6071 17.9206C14.6071 17.9189 14.6071 17.9172 14.6071 17.9155C14.6071 17.9138 14.6071 17.9121 14.6071 17.9104C14.6071 17.9087 14.6071 17.907 14.6071 17.9053C14.6071 17.9036 14.6071 17.9019 14.6071 17.9002C14.6071 17.8985 14.6071 17.8968 14.6071 17.8951C14.6071 17.8934 14.6071 17.8917 14.6071 17.89C14.6071 17.8883 14.6071 17.8866 14.6071 17.8849C14.6071 17.8832 14.6071 17.8815 14.6071 17.8798C14.6071 17.8781 14.6071 17.8764 14.6071 17.8747C14.6071 17.873 14.6071 17.8713 14.6071 17.8696C14.6071 17.8679 14.6071 17.8662 14.6071 17.8645C14.6071 17.8628 14.6071 17.8611 14.6071 17.8594C14.6071 17.8577 14.6071 17.856 14.6071 17.8543C14.6071 17.8526 14.6071 17.8509 14.6071 17.8492C14.6071 17.8475 14.6071 17.8458 14.6071 17.8441C14.6071 17.8424 14.6071 17.8408 14.6071 17.8391C14.6071 17.8374 14.6071 17.8357 14.6071 17.834C14.6071 17.8323 14.6071 17.8306 14.6071 17.8289C14.6071 17.8272 14.6071 17.8255 14.6071 17.8238C14.6071 17.8221 14.6071 17.8204 14.6071 17.8187C14.6071 17.817 14.6071 17.8153 14.6071 17.8137C14.6071 17.812 14.6071 17.8103 14.6071 17.8086C14.6071 17.8069 14.6071 17.8052 14.6071 17.8035C14.6071 17.8018 14.6071 17.8001 14.6071 17.7984C14.6071 17.7967 14.6071 17.795 14.6071 17.7934C14.6071 17.7917 14.6071 17.79 14.6071 17.7883C14.6071 17.7866 14.6071 17.7849 14.6071 17.7832C14.6071 17.7815 14.6071 17.7798 14.6071 17.7781C14.6071 17.7765 14.6071 17.7748 14.6071 17.7731C14.6071 17.7714 14.6071 17.7697 14.6071 17.768C14.6071 17.7663 14.6071 17.7646 14.6071 17.7629C14.6071 17.7613 14.6071 17.7596 14.6071 17.7579C14.6071 17.7562 14.6071 17.7545 14.6071 17.7528C14.6071 17.7511 14.6071 17.7494 14.6071 17.7478C14.6071 17.7461 14.6071 17.7444 14.6071 17.7427C14.6071 17.741 14.6071 17.7393 14.6071 17.7376C14.6071 17.736 14.6071 17.7343 14.6071 17.7326C14.6071 17.7309 14.6071 17.7292 14.6071 17.7275C14.6071 17.7258 14.6071 17.7242 14.6071 17.7225C14.6071 17.7208 14.6071 17.7191 14.6071 17.7174C14.6071 17.7157 14.6071 17.7141 14.6071 17.7124C14.6071 17.7107 14.6071 17.709 14.6071 17.7073C14.6071 17.7056 14.6071 17.704 14.6071 17.7023C14.6071 17.7006 14.6071 17.6989 14.6071 17.6972C14.6071 17.6956 14.6071 17.6939 14.6071 17.6922C14.6071 17.6905 14.6071 17.6888 14.6071 17.6871C14.6071 17.6855 14.6071 17.6838 14.6071 17.6821C14.6071 17.6804 14.6071 17.6787 14.6071 17.6771C14.6071 17.6754 14.6071 17.6737 14.6071 17.672C14.6071 17.6703 14.6071 17.6687 14.6071 17.667C14.6071 17.6653 14.6071 17.6636 14.6071 17.662C14.6071 17.6603 14.6071 17.6586 14.6071 17.6569C14.6071 17.6552 14.6071 17.6536 14.6071 17.6519C14.6071 17.6502 14.6071 17.6485 14.6071 17.6469C14.6071 17.6452 14.6071 17.6435 14.6071 17.6418C14.6071 17.6401 14.6071 17.6385 14.6071 17.6368C14.6071 17.6351 14.6071 17.6334 14.6071 17.6318C14.6071 17.6301 14.6071 17.6284 14.6071 17.6267C14.6071 17.6251 14.6071 17.6234 14.6071 17.6217C14.6071 17.62 14.6071 17.6184 14.6071 17.6167C14.6071 17.615 14.6071 17.6133 14.6071 17.6117C14.6071 17.61 14.6071 17.6083 14.6071 17.6067C14.6071 17.605 14.6071 17.6033 14.6071 17.6016C14.6071 17.6 14.6071 17.5983 14.6071 17.5966C14.6071 17.5949 14.6071 17.5933 14.6071 17.5916C14.6071 17.5899 14.6071 17.5883 14.6071 17.5866C14.6071 17.5849 14.6071 17.5832 14.6071 17.5816C14.6071 17.5799 14.6071 17.5782 14.6071 17.5766C14.6071 17.5749 14.6071 17.5732 14.6071 17.5716C14.6071 17.5699 14.6071 17.5682 14.6071 17.5665C14.6071 17.5649 14.6071 17.5632 14.6071 17.5615C14.6071 17.5599 14.6071 17.5582 14.6071 17.5565C14.6071 17.5549 14.6071 17.5532 14.6071 17.5515C14.6071 17.5499 14.6071 17.5482 14.6071 17.5465C14.6071 17.5449 14.6071 17.5432 14.6071 17.5415C14.6071 17.5399 14.6071 17.5382 14.6071 17.5365C14.6071 17.5349 14.6071 17.5332 14.6071 17.5315C14.6071 17.5299 14.6071 17.5282 14.6071 17.5265C14.6071 17.5249 14.6071 17.5232 14.6071 17.5215C14.6071 17.5199 14.6071 17.5182 14.6071 17.5165C14.6071 17.5149 14.6071 17.5132 14.6071 17.5116C14.6071 17.5099 14.6071 17.5082 14.6071 17.5066C14.6071 17.5049 14.6071 17.5032 14.6071 17.5016C14.6071 17.4999 14.6071 17.4982 14.6071 17.4966C14.6071 17.4949 14.6071 17.4933 14.6071 17.4916C14.6071 17.4899 14.6071 17.4883 14.6071 17.4866C14.6071 17.485 14.6071 17.4833 14.6071 17.4816C14.6071 17.48 14.6071 17.4783 14.6071 17.4767C14.6071 17.475 14.6071 17.4733 14.6071 17.4717C14.6071 17.47 14.6071 17.4684 14.6071 17.4667C14.6071 17.465 14.6071 17.4634 14.6071 17.4617C14.6071 17.4601 14.6071 17.4584 14.6071 17.4567C14.6071 17.4551 14.6071 17.4534 14.6071 17.4518C14.6071 17.4501 14.6071 17.4485 14.6071 17.4468C14.6071 17.4451 14.6071 17.4435 14.6071 17.4418C14.6071 17.4402 14.6071 17.4385 14.6071 17.4369C14.6071 17.4352 14.6071 17.4335 14.6071 17.4319C14.6071 17.4302 14.6071 17.4286 14.6071 17.4269C14.6071 17.4253 14.6071 17.4236 14.6071 17.422C14.6071 17.4203 14.6071 17.4186 14.6071 17.417C14.6071 17.4153 14.6071 17.4137 14.6071 17.412C14.6071 17.4104 14.6071 17.4087 14.6071 17.4071C14.6071 17.4054 14.6071 17.4038 14.6071 17.4021C14.6071 17.4005 14.6071 17.3988 14.6071 17.3972C14.6071 17.3955 14.6071 17.3939 14.6071 17.3922C14.6071 17.3905 14.6071 17.3889 14.6071 17.3872C14.6071 17.3856 14.6071 17.3839 14.6071 17.3823C14.6071 17.3806 14.6071 17.379 14.6071 17.3773C14.6071 17.3757 14.6071 17.374 14.6071 17.3724C14.6071 17.3707 14.6071 17.3691 14.6071 17.3674C14.6071 17.3658 14.6071 17.3641 14.6071 17.3625C14.6071 17.3609 14.6071 17.3592 14.6071 17.3576C14.6071 17.3559 14.6071 17.3543 14.6071 17.3526C14.6071 17.351 14.6071 17.3493 14.6071 17.3477C14.6071 17.346 14.6071 17.3444 14.6071 17.3427C14.6071 17.3411 14.6071 17.3394 14.6071 17.3378C14.6071 17.3361 14.6071 17.3345 14.6071 17.3329C14.6071 17.3312 14.6071 17.3296 14.6071 17.3279C14.6071 17.3263 14.6071 17.3246 14.6071 17.323C14.6071 17.3213 14.6071 17.3197 14.6071 17.3181C14.6071 17.3164 14.6071 17.3148 14.6071 17.3131C14.6071 17.3115 14.6071 17.3098 14.6071 17.3082C14.6071 17.3066 14.6071 17.3049 14.6071 17.3033C14.6071 17.3016 14.6071 17.3 14.6071 17.2983C14.6071 17.2967 14.6071 17.2951 14.6071 17.2934C14.6071 17.2918 14.6071 17.2901 14.6071 17.2885C14.6071 17.2869 14.6071 17.2852 14.6071 17.2836C14.6071 17.2819 14.6071 17.2803 14.6071 17.2787C14.6071 17.277 14.6071 17.2754 14.6071 17.2737C14.6071 17.2721 14.6071 17.2705 14.6071 17.2688C14.6071 17.2672 14.6071 17.2655 14.6071 17.2639C14.6071 17.2623 14.6071 17.2606 14.6071 17.259C14.6071 17.2574 14.6071 17.2557 14.6071 17.2541C14.6071 17.2524 14.6071 17.2508 14.6071 17.2492C14.6071 17.2475 14.6071 17.2459 14.6071 17.2443C14.6071 17.2426 14.6071 17.241 14.6071 17.2394C14.6071 17.2377 14.6071 17.2361 14.6071 17.2344C14.6071 17.2328 14.6071 17.2312 14.6071 17.2295C14.6071 17.2279 14.6071 17.2263 14.6071 17.2246C14.6071 17.223 14.6071 17.2214 14.6071 17.2197C14.6071 17.2181 14.6071 17.2165 14.6071 17.2148C14.6071 17.2132 14.6071 17.2116 14.6071 17.2099C14.6071 17.2083 14.6071 17.2067 14.6071 17.205C14.6071 17.2034 14.6071 17.2018 14.6071 17.2002C14.6071 17.1985 14.6071 17.1969 14.6071 17.1953C14.6071 17.1936 14.6071 17.192 14.6071 17.1904C14.6071 17.1887 14.6071 17.1871 14.6071 17.1855C14.6071 17.1838 14.6071 17.1822 14.6071 17.1806C14.6071 17.179 14.6071 17.1773 14.6071 17.1757C14.6071 17.1741 14.6071 17.1724 14.6071 17.1708C14.6071 17.1692 14.6071 17.1676 14.6071 17.1659C14.6071 17.1643 14.6071 17.1627 14.6071 17.1611C14.6071 17.1594 14.6071 17.1578 14.6071 17.1562C14.6071 17.1545 14.6071 17.1529 14.6071 17.1513C14.6071 17.1497 14.6071 17.148 14.6071 17.1464C14.6071 17.1448 14.6071 17.1432 14.6071 17.1415C14.6071 17.1399 14.6071 17.1383 14.6071 17.1367C14.6071 17.135 14.6071 17.1334 14.6071 17.1318C14.6071 17.1302 14.6071 17.1286 14.6071 17.1269C14.6071 17.1253 14.6071 17.1237 14.6071 17.1221C14.6071 17.1204 14.6071 17.1188 14.6071 17.1172C14.6071 17.1156 14.6071 17.1139 14.6071 17.1123C14.6071 17.1107 14.6071 17.1091 14.6071 17.1075C14.6071 17.1058 14.6071 17.1042 14.6071 17.1026C14.6071 17.101 14.6071 17.0994 14.6071 17.0977C14.6071 17.0961 14.6071 17.0945 14.6071 17.0929C14.6071 17.0913 14.6071 17.0896 14.6071 17.088C14.6071 17.0864 14.6071 17.0848 14.6071 17.0832C14.6071 17.0816 14.6071 17.0799 14.6071 17.0783C14.6071 17.0767 14.6071 17.0751 14.6071 17.0735C14.6071 17.0718 14.6071 17.0702 14.6071 17.0686C14.6071 17.067 14.6071 17.0654 14.6071 17.0638C14.6071 17.0621 14.6071 17.0605 14.6071 17.0589C14.6071 17.0573 14.6071 17.0557 14.6071 17.0541C14.6071 17.0525 14.6071 17.0508 14.6071 17.0492C14.6071 17.0476 14.6071 17.046 14.6071 17.0444C14.6071 17.0428 14.6071 17.0412 14.6071 17.0395C14.6071 17.0379 14.6071 17.0363 14.6071 17.0347C14.6071 17.0331 14.6071 17.0315 14.6071 17.0299C14.6071 17.0283 14.6071 17.0266 14.6071 17.025C14.6071 17.0234 14.6071 17.0218 14.6071 17.0202C14.6071 17.0186 14.6071 17.017 14.6071 17.0154C14.6071 17.0138 14.6071 17.0121 14.6071 17.0105C14.6071 17.0089 14.6071 17.0073 14.6071 17.0057C14.6071 17.0041 14.6071 17.0025 14.6071 17.0009C14.6071 16.9993 14.6071 16.9977 14.6071 16.9961C14.6071 16.9944 14.6071 16.9928 14.6071 16.9912C14.6071 16.9896 14.6071 16.988 14.6071 16.9864C14.6071 16.9848 14.6071 16.9832 14.6071 16.9816C14.6071 16.98 14.6071 16.9784 14.6071 16.9768C14.6071 16.9752 14.6071 16.9736 14.6071 16.972C14.6071 16.9703 14.6071 16.9687 14.6071 16.9671C14.6071 16.9655 14.6071 16.9639 14.6071 16.9623C14.6071 16.9607 14.6071 16.9591 14.6071 16.9575C14.6071 16.9559 14.6071 16.9543 14.6071 16.9527C14.6071 16.9511 14.6071 16.9495 14.6071 16.9479C14.6071 16.9463 14.6071 16.9447 14.6071 16.9431C14.6071 16.9415 14.6071 16.9399 14.6071 16.9383C14.6071 16.9367 14.6071 16.9351 14.6071 16.9335C14.6071 16.9319 14.6071 16.9303 14.6071 16.9287C14.6071 16.9271 14.6071 16.9255 14.6071 16.9239C14.6071 16.9223 14.6071 16.9207 14.6071 16.9191C14.6071 16.9175 14.6071 16.9159 14.6071 16.9143C14.6071 16.9127 14.6071 16.9111 14.6071 16.9095C14.6071 16.9079 14.6071 16.9063 14.6071 16.9047C14.6071 16.9031 14.6071 16.9015 14.6071 16.8999C14.6071 16.8983 14.6071 16.8967 14.6071 16.8951C14.6071 16.8935 14.6071 16.8919 14.6071 16.8903C14.6071 16.8887 14.6071 16.8871 14.6071 16.8855C14.6071 16.8839 14.6071 16.8823 14.6071 16.8807C14.6071 16.8791 14.6071 16.8776 14.6071 16.876C14.6071 16.8744 14.6071 16.8728 14.6071 16.8712C14.6071 16.8696 14.6071 16.868 14.6071 16.8664C14.6071 16.8648 14.6071 16.8632 14.6071 16.8616C14.6071 16.86 14.6071 16.8584 14.6071 16.8568C14.6071 16.8553 14.6071 16.8537 14.6071 16.8521C14.6071 16.8505 14.6071 16.8489 14.6071 16.8473C14.6071 16.8457 14.6071 16.8441 14.6071 16.8425C14.6071 16.8409 14.6071 16.8393 14.6071 16.8378C14.6071 16.8362 14.6071 16.8346 14.6071 16.833C14.6071 16.8314 14.6071 16.8298 14.6071 16.8282C14.6071 16.8266 14.6071 16.825 14.6071 16.8235C14.6071 16.8219 14.6071 16.8203 14.6071 16.8187C14.6071 16.8171 14.6071 16.8155 14.6071 16.8139C14.6071 16.8123 14.6071 16.8108 14.6071 16.8092C14.6071 16.8076 14.6071 16.806 14.6071 16.8044C14.6071 16.8028 14.6071 16.8012 14.6071 16.7997C14.6071 16.7981 14.6071 16.7965 14.6071 16.7949C14.6071 16.7933 14.6071 16.7917 14.6071 16.7902C14.6071 16.7886 14.6071 16.787 14.6071 16.7854C14.6071 16.7838 14.6071 16.7822 14.6071 16.7807C14.6071 16.7791 14.6071 16.7775 14.6071 16.7759C14.6071 16.7743 14.6071 16.7727 14.6071 16.7712C14.6071 16.7696 14.6071 16.768 14.6071 16.7664C14.6071 16.7648 14.6071 16.7633 14.6071 16.7617C14.6071 16.7601 14.6071 16.7585 14.6071 16.7569C14.6071 16.7554 14.6071 16.7538 14.6071 16.7522C14.6071 16.7506 14.6071 16.749 14.6071 16.7475C14.6071 16.7459 14.6071 16.7443 14.6071 16.7427C14.6071 16.7412 14.6071 16.7396 14.6071 16.738C14.6071 16.7364 14.6071 16.7348 14.6071 16.7333C14.6071 16.7317 14.6071 16.7301 14.6071 16.7285C14.6071 16.727 14.6071 16.7254 14.6071 16.7238C14.6071 16.7222 14.6071 16.7207 14.6071 16.7191C14.6071 16.7175 14.6071 16.7159 14.6071 16.7144C14.6071 16.7128 14.6071 16.7112 14.6071 16.7096C14.6071 16.7081 14.6071 16.7065 14.6071 16.7049C14.6071 16.7033 14.6071 16.7018 14.6071 16.7002C14.6071 16.6986 14.6071 16.6971 14.6071 16.6955C14.6071 16.6939 14.6071 16.6923 14.6071 16.6908C14.6071 16.6892 14.6071 16.6876 14.6071 16.6861C14.6071 16.6845 14.6071 16.6829 14.6071 16.6813C14.6071 16.6798 14.6071 16.6782 14.6071 16.6766C14.6071 16.6751 14.6071 16.6735 14.6071 16.6719C14.6071 16.6704 14.6071 16.6688 14.6071 16.6672C14.6071 16.6656 14.6071 16.6641 14.6071 16.6625C14.6071 16.6609 14.6071 16.6594 14.6071 16.6578C14.6071 16.6562 14.6071 16.6547 14.6071 16.6531C14.6071 16.6515 14.6071 16.65 14.6071 16.6484C14.6071 16.6468 14.6071 16.6453 14.6071 16.6437C14.6071 16.6421 14.6071 16.6406 14.6071 16.639C14.6071 16.6374 14.6071 16.6359 14.6071 16.6343C14.6071 16.6328 14.6071 16.6312 14.6071 16.6296C14.6071 16.6281 14.6071 16.6265 14.6071 16.6249C14.6071 16.6234 14.6071 16.6218 14.6071 16.6202C14.6071 16.6187 14.6071 16.6171 14.6071 16.6156C14.6071 16.614 14.6071 16.6124 14.6071 16.6109C14.6071 16.6093 14.6071 16.6078 14.6071 16.6062C14.6071 16.6046 14.6071 16.6031 14.6071 16.6015C14.6071 16.6 14.6071 16.5984 14.6071 16.5968C14.6071 16.5953 14.6071 16.5937 14.6071 16.5922C14.6071 16.5906 14.6071 16.589 14.6071 16.5875C14.6071 16.5859 14.6071 16.5844 14.6071 16.5828C14.6071 16.5813 14.6071 16.5797 14.6071 16.5781C14.6071 16.5766 14.6071 16.575 14.6071 16.5735C14.6071 16.5719 14.6071 16.5704 14.6071 16.5688C14.6071 16.5672 14.6071 16.5657 14.6071 16.5641C14.6071 16.5626 14.6071 16.561 14.6071 16.5595C14.6071 16.5579 14.6071 16.5564 14.6071 16.5548C14.6071 16.5532 14.6071 16.5517 14.6071 16.5501C14.6071 16.5486 14.6071 16.547 14.6071 16.5455C14.6071 16.5439 14.6071 16.5424 14.6071 16.5408C14.6071 16.5393 14.6071 16.5377 14.6071 16.5362C14.6071 16.5346 14.6071 16.5331 14.6071 16.5315C14.6071 16.53 14.6071 16.5284 14.6071 16.5269C14.6071 16.5253 14.6071 16.5238 14.6071 16.5222C14.6071 16.5207 14.6071 16.5191 14.6071 16.5176C14.6071 16.516 14.6071 16.5145 14.6071 16.5129C14.6071 16.5114 14.6071 16.5098 14.6071 16.5083C14.6071 16.5067 14.6071 16.5052 14.6071 16.5036C14.6071 16.5021 14.6071 16.5005 14.6071 16.499C14.6071 16.4974 14.6071 16.4959 14.6071 16.4944C14.6071 16.4928 14.6071 16.4913 14.6071 16.4897C14.6071 16.4882 14.6071 16.4866 14.6071 16.4851C14.6071 16.4835 14.6071 16.482 14.6071 16.4804C14.6071 16.4789 14.6071 16.4774 14.6071 16.4758C14.6071 16.4743 14.6071 16.4727 14.6071 16.4712C14.6071 16.4696 14.6071 16.4681 14.6071 16.4666C14.6071 16.465 14.6071 16.4635 14.6071 16.4619C14.6071 16.4604 14.6071 16.4588 14.6071 16.4573C14.6071 16.4558 14.6071 16.4542 14.6071 16.4527C14.6071 16.4511 14.6071 16.4496 14.6071 16.4481C14.6071 16.4465 14.6071 16.445 14.6071 16.4434C14.6071 16.4419 14.6071 16.4404 14.6071 16.4388C14.6071 16.4373 14.6071 16.4358 14.6071 16.4342C14.6071 16.4327 14.6071 16.4311 14.6071 16.4296C14.6071 16.4281 14.6071 16.4265 14.6071 16.425C14.6071 16.4235 14.6071 16.4219 14.6071 16.4204H13.1071ZM10 13.3139C11.7162 13.3139 13.1071 14.7045 13.1071 16.4204H14.6071C14.6071 13.8758 12.5443 11.8139 10 11.8139V13.3139ZM1.75 16.4204C1.75 14.7045 3.14095 13.3139 4.85714 13.3139V11.8139C2.31286 11.8139 0.25 13.8758 0.25 16.4204H1.75ZM18.25 17.0714V19H19.75V17.0714H18.25ZM19 18.25H15.7857V19.75H19V18.25ZM15.7857 14.6071C17.1467 14.6071 18.25 15.7104 18.25 17.0714H19.75C19.75 14.882 17.9751 13.1071 15.7857 13.1071V14.6071ZM15.1429 10.5357C14.1369 10.5357 13.3214 9.72023 13.3214 8.71429H11.8214C11.8214 10.5487 13.3085 12.0357 15.1429 12.0357V10.5357ZM16.9643 8.71429C16.9643 9.72023 16.1488 10.5357 15.1429 10.5357V12.0357C16.9772 12.0357 18.4643 10.5487 18.4643 8.71429H16.9643ZM15.1429 6.89286C16.1488 6.89286 16.9643 7.70834 16.9643 8.71429H18.4643C18.4643 6.87991 16.9772 5.39286 15.1429 5.39286V6.89286ZM15.1429 5.39286C13.3085 5.39286 11.8214 6.87991 11.8214 8.71429H13.3214C13.3214 7.70834 14.1369 6.89286 15.1429 6.89286V5.39286Z" fill="#0E1B2C"/>
</svg>
