<svg xmlns="http://www.w3.org/2000/svg" width="611" height="124" viewBox="0 0 611 124">
  <g id="Group_225" data-name="Group 225" transform="translate(-4666 -2375)">
    <rect id="Rectangle_343" data-name="Rectangle 343" width="611" height="124" transform="translate(4666 2375)" fill="none"/>
    <g id="Layer_x0020_1" transform="translate(4666 2375)">
      <g id="_1616013212176" transform="translate(0)">
        <path id="Path_915" data-name="Path 915" d="M9161.237,551a10.123,10.123,0,0,0-3.363,4.055c1.351-6.008,4.014-12.268,9.229-14.161a14.059,14.059,0,0,1,2.956-.273,6.409,6.409,0,0,1,4.291,1.45,4.338,4.338,0,0,1,1.8,3.425,5.116,5.116,0,0,1-1.284,3.907,4.567,4.567,0,0,1-3.229,1.323,7.512,7.512,0,0,1-2.776-.485c-.037-.021-.126-.042-.21-.083l0,0a7.211,7.211,0,0,0-1.024-.379,6.882,6.882,0,0,0-1.934-.358,8.621,8.621,0,0,0-4.456,1.575Z" transform="translate(-8882.156 -524.344)" fill="#226cf5"/>
        <path id="Path_916" data-name="Path 916" d="M8780.109,550.683a4.875,4.875,0,0,1,1.367,2.584c.049,4.349.086,11.071.131,15.754-.027.337-.027.693-.027,1.03v20.336a5.3,5.3,0,0,1-1.447,3.783,5.018,5.018,0,0,1-3.7,1.45,5.077,5.077,0,0,1-3.7-1.45,5.343,5.343,0,0,1-1.445-3.783V554.36a5.066,5.066,0,0,1,1.445-3.7,4.869,4.869,0,0,1,3.7-1.533,4.987,4.987,0,0,1,3.672,1.554h0Z" transform="translate(-8507.213 -532.597)" fill="#226cf5"/>
        <path id="Path_917" data-name="Path 917" d="M1467.727,540.62c4.852,0,8.781.778,11.764,2.312,2.961,1.492,4.455,3.487,4.455,6.009a5.362,5.362,0,0,1-1.116,3.339,3.546,3.546,0,0,1-2.918,1.365,6.032,6.032,0,0,1-2.226-.334,17.308,17.308,0,0,1-1.723-1.03,8.841,8.841,0,0,0-1.534-1.115,10.413,10.413,0,0,0-2.561-.776,13.247,13.247,0,0,0-2.667-.337c-4.286,0-7.67,1.345-10.126,4.034a16.428,16.428,0,0,0,.085,20.668,12.211,12.211,0,0,0,9.431,4.034,14.474,14.474,0,0,0,6.258-1.03,12.111,12.111,0,0,0,1.367-.859,9.167,9.167,0,0,1,1.723-1.031,4.545,4.545,0,0,1,1.889-.337,4.236,4.236,0,0,1,3.342,1.367,4.937,4.937,0,0,1,1.28,3.528c0,1.368-.8,2.669-2.4,3.866a19.1,19.1,0,0,1-6.343,2.921,32.924,32.924,0,0,1-8.4,1.028,21.856,21.856,0,0,1-11.657-3.087,21.1,21.1,0,0,1-7.731-8.486,26.927,26.927,0,0,1-2.75-12.187,26.111,26.111,0,0,1,2.835-12.35,21.122,21.122,0,0,1,8.067-8.4,21.987,21.987,0,0,1,11.657-3.108h0Z" transform="translate(-1401.659 -524.344)" fill="#226cf5"/>
        <path id="Path_918" data-name="Path 918" d="M432.494,605.6a5.448,5.448,0,0,1,1.64,3.866,4.484,4.484,0,0,1-1.724,3.591,5.262,5.262,0,0,1-3.508,1.471,4.861,4.861,0,0,1-3.783-1.723l-16.133-18.128v-.023a5.669,5.669,0,0,1-1.574-3.926,5.593,5.593,0,0,1,1.6-3.927l14.832-16.47a5.192,5.192,0,0,1,3.78-1.638,4.361,4.361,0,0,1,3.341,1.638,4.493,4.493,0,0,1,1.531,3.173,5.19,5.19,0,0,1-2.058,3.866L418.584,589.3l13.908,16.3h0Z" transform="translate(-395.144 -551.568)" fill="#226cf5"/>
        <path id="Path_919" data-name="Path 919" d="M10.315,576.379V559.151a4.984,4.984,0,0,0-1.471-3.7,4.869,4.869,0,0,0-3.7-1.554,4.9,4.9,0,0,0-3.7,1.554,5.028,5.028,0,0,0-1.45,3.7v35.8a5.329,5.329,0,0,0,1.45,3.784,5.025,5.025,0,0,0,3.7,1.45,5.057,5.057,0,0,0,3.7-1.45,5.343,5.343,0,0,0,1.471-3.784Z" transform="translate(0 -537.223)" fill="#226cf5"/>
        <path id="Path_920" data-name="Path 920" d="M3753.528,577.535a24.735,24.735,0,0,0,3.085-12.352,24.271,24.271,0,0,0-3.085-12.269,21.711,21.711,0,0,0-8.487-8.487,24.115,24.115,0,0,0-23.612,0,21.77,21.77,0,0,0-8.4,8.487,24.235,24.235,0,0,0-3.087,12.269,24.71,24.71,0,0,0,3.087,12.352,21.814,21.814,0,0,0,8.4,8.4,24.716,24.716,0,0,0,23.612,0A21.905,21.905,0,0,0,3753.528,577.535Zm-9.013-19.83a16.316,16.316,0,0,1,0,14.916,12.664,12.664,0,0,1-4.727,5.062,12.229,12.229,0,0,1-6.513,1.807,12.732,12.732,0,0,1-6.618-1.807,13.779,13.779,0,0,1-4.727-5.062,15.951,15.951,0,0,1-1.721-7.459,15.586,15.586,0,0,1,1.721-7.457,13.252,13.252,0,0,1,4.727-5.147,12.639,12.639,0,0,1,6.618-1.809,12.151,12.151,0,0,1,6.513,1.809A12.38,12.38,0,0,1,3744.515,557.705Z" transform="translate(-3598.244 -525.042)" fill="#226cf5"/>
        <path id="Path_921" data-name="Path 921" d="M5468.855,568.569a4.682,4.682,0,0,1,3.428,1.364,4.253,4.253,0,0,1,1.363,3.256,6.6,6.6,0,0,1-.693,2.583L5456.9,611.127a5.219,5.219,0,0,1-1.809,2.312,4.6,4.6,0,0,1-2.582.944l-.776.086a4.962,4.962,0,0,1-2.755-.861,6.333,6.333,0,0,1-1.889-2.5L5431.13,575.75a6.8,6.8,0,0,1-.591-2.752,4.2,4.2,0,0,1,1.45-3.087,4.9,4.9,0,0,1,3.615-1.45,5.583,5.583,0,0,1,3,.861,5.212,5.212,0,0,1,2.061,2.394l11.849,27.118L5464.28,571.8a5.585,5.585,0,0,1,1.889-2.479,4.292,4.292,0,0,1,2.69-.751h0Z" transform="translate(-5267.042 -551.346)" fill="#226cf5"/>
        <path id="Path_922" data-name="Path 922" d="M7074.658,567.477a4.431,4.431,0,0,0,1.635-3.339,22.436,22.436,0,0,0-3-11.322,22.846,22.846,0,0,0-8.064-8.318,19.843,19.843,0,0,0-10.63-3.088,20.976,20.976,0,0,0-10.822,3,21.613,21.613,0,0,0-8.148,8.488,26.348,26.348,0,0,0-3.087,12.96,24.338,24.338,0,0,0,2.914,11.932,21.01,21.01,0,0,0,8.238,8.237,25.668,25.668,0,0,0,12.607,3,25.412,25.412,0,0,0,8.148-1.365,20.8,20.8,0,0,0,6.43-3.339,5.367,5.367,0,0,0,2.4-4.2,4.092,4.092,0,0,0-1.283-3,4.215,4.215,0,0,0-3.088-1.281,6.379,6.379,0,0,0-2.918.778c-.293.171-.819.506-1.639,1.03a14.564,14.564,0,0,1-3.086,1.365,19.738,19.738,0,0,1-5.486.61,13.034,13.034,0,0,1-13.043-10.82l28.315,0a5.662,5.662,0,0,0,3.609-1.323h0Zm-31.828-7.288c1.2-6.237,5.129-9.349,11.745-9.349a11.1,11.1,0,0,1,7.2,2.584,8.8,8.8,0,0,1,3.51,6.175v.61H7042.83v-.021h0Z" transform="translate(-6820.812 -525.109)" fill="#226cf5"/>
        <path id="Path_923" data-name="Path 923" d="M9892.5,576.96a4.061,4.061,0,0,0,.776,2.563,17.508,17.508,0,0,0,7.982,6.092,29.033,29.033,0,0,0,10.551,1.889,20.277,20.277,0,0,0,7.983-1.637,15.978,15.978,0,0,0,6.429-4.727,11.633,11.633,0,0,0,2.478-7.374,11.974,11.974,0,0,0-2.145-7.456,13.1,13.1,0,0,0-5.23-4.2,55.82,55.82,0,0,0-7.728-2.667c-2.229-.63-3.975-1.136-5.231-1.533a9.033,9.033,0,0,1-3-1.808,4.168,4.168,0,0,1-1.2-3.087c0-3.153,2.187-4.728,6.512-4.728a12.956,12.956,0,0,1,5.485,1.116,10.742,10.742,0,0,1,4.031,3,4.188,4.188,0,0,0,3.083,1.2,4.347,4.347,0,0,0,2.759-.947,3.944,3.944,0,0,0,1.634-3.253,4.824,4.824,0,0,0-1.114-3.09,15.188,15.188,0,0,0-6.864-4.81,24.88,24.88,0,0,0-8.764-1.64,19.7,19.7,0,0,0-8.152,1.725,15.428,15.428,0,0,0-6.175,4.725,11.353,11.353,0,0,0-2.308,7.122,11.869,11.869,0,0,0,2.227,7.565,15.108,15.108,0,0,0,5.4,4.118,64.066,64.066,0,0,0,8.148,2.752,31.164,31.164,0,0,1,7.035,2.581,4.12,4.12,0,0,1,2.309,3.783q0,4.818-6.68,5.062a16.3,16.3,0,0,1-6.784-1.281,18.187,18.187,0,0,1-5.311-3.948,4.828,4.828,0,0,0-3.426-1.638,4.893,4.893,0,0,0-4.71,4.535h0Z" transform="translate(-9594.665 -523.606)" fill="#226cf5"/>
        <path id="Path_924" data-name="Path 924" d="M11339.48,562.663a4.43,4.43,0,0,1-1.64,3.339,5.43,5.43,0,0,1-3.613,1.281l-28.321,0a13.051,13.051,0,0,0,13.05,10.819,18.76,18.76,0,0,0,5.483-.61,17.075,17.075,0,0,0,3.087-1.365c.8-.507,1.347-.861,1.641-1.029a6.646,6.646,0,0,1,2.917-.779,4.227,4.227,0,0,1,3.093,1.281,4.107,4.107,0,0,1,1.274,3,5.365,5.365,0,0,1-2.393,4.2,19.933,19.933,0,0,1-6.425,3.342,24.974,24.974,0,0,1-8.151,1.365,25.535,25.535,0,0,1-12.6-3,21.068,21.068,0,0,1-8.232-8.235,24.467,24.467,0,0,1-2.923-11.932,26.4,26.4,0,0,1,3.087-12.962,21.478,21.478,0,0,1,8.152-8.487,20.888,20.888,0,0,1,10.8-3,19.917,19.917,0,0,1,10.648,3.09,23.044,23.044,0,0,1,8.067,8.318,22.57,22.57,0,0,1,3,11.363h0v0Zm-21.7-13.317q-9.949,0-11.74,9.347h22.473v-.609a8.965,8.965,0,0,0-3.507-6.178,11.313,11.313,0,0,0-7.226-2.56h0Z" transform="translate(-10955.644 -523.636)" fill="#226cf5"/>
        <path id="Path_925" data-name="Path 925" d="M13002.5,542.07a5.025,5.025,0,0,0-3.7-1.45,4.887,4.887,0,0,0-3.692,1.534,3.613,3.613,0,0,0-1.114,3.152,18.92,18.92,0,0,0-6.326-3.511,26.81,26.81,0,0,0-7.837-1.175,19.1,19.1,0,0,0-10.545,3.088,20.791,20.791,0,0,0-7.459,8.487,28.772,28.772,0,0,0,0,24.538,22.055,22.055,0,0,0,7.651,8.487,19.833,19.833,0,0,0,10.709,3,17.489,17.489,0,0,0,7.649-1.723,18.019,18.019,0,0,0,5.837-4.284,5.629,5.629,0,0,0,1.447,3.7,5.438,5.438,0,0,0,7.395,0,5.3,5.3,0,0,0,1.454-3.784v-36.3a5.1,5.1,0,0,0-1.47-3.763Zm-11.91,32.707a12.274,12.274,0,0,1-18.194,0,15.531,15.531,0,0,1-3.426-10.292,15.335,15.335,0,0,1,3.511-10.293,12.014,12.014,0,0,1,18.109,0,16.858,16.858,0,0,1,0,20.585Z" transform="translate(-12568.926 -524.344)" fill="#226cf5"/>
        <path id="Path_926" data-name="Path 926" d="M14707.029,578.846a4.248,4.248,0,0,1-.776-2.564,4.483,4.483,0,0,1,2.228-3.781,4.646,4.646,0,0,1,2.479-.778,4.809,4.809,0,0,1,3.43,1.638,18.5,18.5,0,0,0,5.311,3.948,16.229,16.229,0,0,0,6.782,1.281c4.454-.169,6.7-1.868,6.7-5.062a4.119,4.119,0,0,0-2.308-3.782,31.024,31.024,0,0,0-7.029-2.584,63.633,63.633,0,0,1-8.154-2.751,14.975,14.975,0,0,1-5.407-4.117,11.884,11.884,0,0,1-2.219-7.565,11.346,11.346,0,0,1,2.31-7.122,15.46,15.46,0,0,1,6.172-4.727,20,20,0,0,1,8.154-1.721,24.861,24.861,0,0,1,8.759,1.637,15.253,15.253,0,0,1,6.87,4.81,4.835,4.835,0,0,1,1.112,3.09,3.948,3.948,0,0,1-1.639,3.253,4.317,4.317,0,0,1-2.753.947,4.174,4.174,0,0,1-3.082-1.2,10.7,10.7,0,0,0-4.03-3,12.993,12.993,0,0,0-5.488-1.116q-6.521,0-6.513,4.727a4.167,4.167,0,0,0,1.2,3.09,9.423,9.423,0,0,0,3,1.806c1.267.4,3,.924,5.23,1.535a55.67,55.67,0,0,1,7.734,2.667,13.25,13.25,0,0,1,5.23,4.2,12.06,12.06,0,0,1,2.139,7.455,11.693,11.693,0,0,1-2.479,7.374,15.877,15.877,0,0,1-6.424,4.727,20.2,20.2,0,0,1-7.983,1.637,28.935,28.935,0,0,1-10.549-1.889,17.229,17.229,0,0,1-8-6.069h0Z" transform="translate(-14263.494 -522.927)" fill="#226cf5"/>
        <path id="Path_927" data-name="Path 927" d="M3154.154,3077.869a2.349,2.349,0,0,1-.8,1.637,2.623,2.623,0,0,1-1.743.63h-18.7a9.356,9.356,0,0,0,2.918,6.219,9.161,9.161,0,0,0,6.322,2.333,10,10,0,0,0,4.139-.736,10.55,10.55,0,0,0,2.818-1.913,3.043,3.043,0,0,1,1.53-.483,1.957,1.957,0,0,1,1.495.63,2.048,2.048,0,0,1,.627,1.493,2.624,2.624,0,0,1-1.07,2.015,12.566,12.566,0,0,1-4.1,2.605,13.373,13.373,0,0,1-5.209,1.073,15.488,15.488,0,0,1-7.584-1.81,12.634,12.634,0,0,1-5.042-5.041,15.067,15.067,0,0,1-1.763-7.327,16.206,16.206,0,0,1,1.808-7.8,13.51,13.51,0,0,1,4.831-5.213,12.5,12.5,0,0,1,12.836-.062,13.372,13.372,0,0,1,4.769,4.831,13.209,13.209,0,0,1,1.909,6.915h0Zm-13.006-8.824a7.807,7.807,0,0,0-8.022,6.849h15.669v-.423a6.465,6.465,0,0,0-2.54-4.621,7.934,7.934,0,0,0-5.105-1.8h0Z" transform="translate(-3033.823 -2972.121)" fill="#fff"/>
        <path id="Path_928" data-name="Path 928" d="M4376.026,2704.319a2.389,2.389,0,0,1,1.8.739,2.309,2.309,0,0,1,.74,1.805v34.2a2.5,2.5,0,0,1-.74,1.8,2.313,2.313,0,0,1-1.8.737,2.456,2.456,0,0,1-1.807-.693,2.625,2.625,0,0,1-.692-1.849v-1.495a10.655,10.655,0,0,1-3.763,3.234,10.481,10.481,0,0,1-5.143,1.324,11.765,11.765,0,0,1-6.538-1.868,13.08,13.08,0,0,1-4.62-5.149,16.208,16.208,0,0,1-1.7-7.479,16.53,16.53,0,0,1,1.637-7.435,13,13,0,0,1,4.625-5.211,12.05,12.05,0,0,1,11.639-.693,11.259,11.259,0,0,1,3.885,3.026v-12.48a2.44,2.44,0,0,1,.695-1.805,2.393,2.393,0,0,1,1.786-.715Zm-10.839,35.148a7.745,7.745,0,0,0,4.411-1.281,8.471,8.471,0,0,0,3.023-3.512,11.2,11.2,0,0,0,1.116-5.04,11.087,11.087,0,0,0-1.116-5,8.331,8.331,0,0,0-3.023-3.547,8.309,8.309,0,0,0-8.865,0,8.669,8.669,0,0,0-3.025,3.547,12.3,12.3,0,0,0,0,10.041,8.825,8.825,0,0,0,3.025,3.512A7.921,7.921,0,0,0,4365.187,2739.467Z" transform="translate(-4220.741 -2622.901)" fill="#fff"/>
        <path id="Path_929" data-name="Path 929" d="M5639.7,3085.309a2.4,2.4,0,0,1,1.808.738,2.423,2.423,0,0,1,.736,1.807v14.116c0,3.677-1.028,6.556-3.086,8.614-2.017,2.016-4.9,3.025-8.592,3.025-3.677,0-6.537-1.009-8.552-3.025-2.016-2.062-3.024-4.917-3.024-8.614v-14.116a2.551,2.551,0,0,1,.692-1.807,2.586,2.586,0,0,1,3.617,0,2.423,2.423,0,0,1,.736,1.807v14.116c0,4.641,2.185,6.954,6.53,6.954a6.587,6.587,0,0,0,4.937-1.745,7.2,7.2,0,0,0,1.7-5.212v-14.112a2.57,2.57,0,0,1,.69-1.808,2.5,2.5,0,0,1,1.808-.736h0Z" transform="translate(-5449.819 -2992.42)" fill="#fff"/>
        <path id="Path_930" data-name="Path 930" d="M6774.2,3064.38a16.116,16.116,0,0,1,6.957,1.324c1.867.88,2.811,2.017,2.811,3.4a2.508,2.508,0,0,1-.583,1.641,1.849,1.849,0,0,1-1.495.692,2.394,2.394,0,0,1-1.114-.21c-.251-.148-.61-.38-1.069-.692a5.218,5.218,0,0,0-1.012-.736,7.363,7.363,0,0,0-1.806-.524,11.387,11.387,0,0,0-2.125-.208,9.268,9.268,0,0,0-4.895,1.28,8.681,8.681,0,0,0-3.294,3.549,10.629,10.629,0,0,0-1.178,5,11.24,11.24,0,0,0,1.116,5.044,8.718,8.718,0,0,0,7.958,4.789,9.92,9.92,0,0,0,4.453-.842,11,11,0,0,0,1.011-.693,6.55,6.55,0,0,1,.9-.63,2.2,2.2,0,0,1,1.006-.207,1.986,1.986,0,0,1,1.638.693,2.291,2.291,0,0,1,.63,1.7,3.026,3.026,0,0,1-1.428,2.227,11.339,11.339,0,0,1-3.782,1.743,17.538,17.538,0,0,1-5.041.694,13.345,13.345,0,0,1-7.121-1.869,13.161,13.161,0,0,1-4.79-5.212,16.632,16.632,0,0,1-1.639-7.436,15.51,15.51,0,0,1,1.745-7.375,12.986,12.986,0,0,1,4.871-5.207,13.847,13.847,0,0,1,7.273-1.935h0Z" transform="translate(-6556.778 -2972.121)" fill="#fff"/>
        <path id="Path_931" data-name="Path 931" d="M7969.44,3063.253a2.411,2.411,0,0,1,1.808.735,2.352,2.352,0,0,1,.736,1.85v23.045a2.5,2.5,0,0,1-.736,1.806,2.326,2.326,0,0,1-1.808.737,2.449,2.449,0,0,1-1.8-.695,2.619,2.619,0,0,1-.695-1.848V3087.5a11.811,11.811,0,0,1-3.76,3.194,10.925,10.925,0,0,1-5.146,1.281,11.929,11.929,0,0,1-6.575-1.869,13.149,13.149,0,0,1-4.625-5.146,16.8,16.8,0,0,1-1.634-7.481,16.538,16.538,0,0,1,1.634-7.435,13.086,13.086,0,0,1,4.625-5.213,12.044,12.044,0,0,1,11.641-.688,10.452,10.452,0,0,1,3.866,2.979v-1.278a2.584,2.584,0,0,1,.691-1.85,2.332,2.332,0,0,1,1.787-.736h0Zm-10.839,24.055a7.728,7.728,0,0,0,4.411-1.282,8.521,8.521,0,0,0,3.028-3.51,11.334,11.334,0,0,0,1.114-5.041,11.194,11.194,0,0,0-1.114-5,8.527,8.527,0,0,0-3.028-3.51,7.584,7.584,0,0,0-4.411-1.322,7.9,7.9,0,0,0-4.451,1.28,8.63,8.63,0,0,0-3.024,3.508,12.362,12.362,0,0,0,0,10.083,8.777,8.777,0,0,0,3.024,3.511,7.91,7.91,0,0,0,4.451,1.282Z" transform="translate(-7705.993 -2970.742)" fill="#fff"/>
        <path id="Path_932" data-name="Path 932" d="M9233.919,2875.028v15.819c0,1.763.8,2.645,2.389,2.645a4.484,4.484,0,0,0,1.011-.169,3.142,3.142,0,0,1,1.016-.209,1.435,1.435,0,0,1,1.172.589,2.327,2.327,0,0,1,.484,1.49,2.253,2.253,0,0,1-1.282,1.913,5.329,5.329,0,0,1-2.859.8,12.971,12.971,0,0,1-3.23-.38,4.878,4.878,0,0,1-2.6-1.867,7.864,7.864,0,0,1-1.119-4.623v-16.029l-3.087,0a2.174,2.174,0,0,1-2.334-2.331,2.213,2.213,0,0,1,.632-1.638,2.43,2.43,0,0,1,1.7-.628h3.087v-4.455a2.556,2.556,0,0,1,.7-1.809,2.461,2.461,0,0,1,1.854-.735,2.293,2.293,0,0,1,1.736.735,2.429,2.429,0,0,1,.735,1.809v4.455h4.415a2.317,2.317,0,0,1,1.635,3.968,2.209,2.209,0,0,1-1.635.629h-4.415v.023Z" transform="translate(-8945.782 -2777.201)" fill="#fff"/>
        <path id="Path_933" data-name="Path 933" d="M10152.691,2812.1a2.533,2.533,0,0,1-.73,1.807,2.34,2.34,0,0,1-1.809.736,2.485,2.485,0,0,1-1.8-.736,2.536,2.536,0,0,1-.7-1.807v-23a2.539,2.539,0,0,1,.7-1.806,2.58,2.58,0,0,1,3.611,0,2.447,2.447,0,0,1,.73,1.806Zm-2.539-29.03a3.715,3.715,0,0,1-2.228-.525,2.358,2.358,0,0,1-.628-1.811v-.84a2.128,2.128,0,0,1,.69-1.808,3.83,3.83,0,0,1,2.228-.525,3.031,3.031,0,0,1,2.119.59,2.052,2.052,0,0,1,.7,1.742v.84a2.12,2.12,0,0,1-.7,1.81,3.781,3.781,0,0,1-2.182.522h0Z" transform="translate(-9841.793 -2693.936)" fill="#fff"/>
        <path id="Path_934" data-name="Path 934" d="M10716.061,3078.216a14.923,14.923,0,0,1-1.849,7.439,13.464,13.464,0,0,1-5.106,5.149,13.779,13.779,0,0,1-7.061,1.868,13.942,13.942,0,0,1-7.12-1.868,13.689,13.689,0,0,1-5.042-5.149,14.83,14.83,0,0,1-1.867-7.439,15.154,15.154,0,0,1,1.867-7.477,13.558,13.558,0,0,1,5.042-5.211,14.118,14.118,0,0,1,7.12-1.869,13.747,13.747,0,0,1,7.061,1.869,13.317,13.317,0,0,1,5.106,5.211A15.125,15.125,0,0,1,10716.061,3078.216Zm-5.038,0a10.521,10.521,0,0,0-1.217-5.1,8.605,8.605,0,0,0-3.234-3.51,8.682,8.682,0,0,0-9.074,0,8.883,8.883,0,0,0-3.24,3.51,10.969,10.969,0,0,0-1.177,5.1,10.582,10.582,0,0,0,1.177,5.046,9.494,9.494,0,0,0,3.24,3.507,8.735,8.735,0,0,0,4.558,1.218,8.532,8.532,0,0,0,4.517-1.218,8.7,8.7,0,0,0,3.234-3.507A10.287,10.287,0,0,0,10711.022,3078.216Z" transform="translate(-10366.233 -2971.421)" fill="#fff"/>
        <path id="Path_935" data-name="Path 935" d="M12006.856,3064.36q9.551,0,9.562,11.469v14.454a2.5,2.5,0,0,1-.73,1.805,2.348,2.348,0,0,1-1.817.738,2.513,2.513,0,0,1-1.8-.738,2.547,2.547,0,0,1-.7-1.805v-14.39a8.106,8.106,0,0,0-1.425-5c-.944-1.241-2.521-1.868-4.66-1.868a7.9,7.9,0,0,0-3.89.966,7.018,7.018,0,0,0-2.708,2.5,6.408,6.408,0,0,0-.945,3.4v14.392a2.512,2.512,0,0,1-.734,1.805,2.329,2.329,0,0,1-1.8.737,2.469,2.469,0,0,1-1.813-.7,2.613,2.613,0,0,1-.689-1.846v-22.731a2.547,2.547,0,0,1,.689-1.805,2.431,2.431,0,0,1,1.813-.737,2.513,2.513,0,0,1,2.539,2.543v1.851a11.2,11.2,0,0,1,3.828-3.55,9.959,9.959,0,0,1,5.287-1.5h0Z" transform="translate(-11631.636 -2972.1)" fill="#fff"/>
        <path id="Path_936" data-name="Path 936" d="M16182.8,133.834V124.3h4.224a5.554,5.554,0,0,1,1.932.258,2.078,2.078,0,0,1,1.062.906,2.676,2.676,0,0,1,.4,1.436,2.4,2.4,0,0,1-.659,1.711,3.322,3.322,0,0,1-2.023.883,3.459,3.459,0,0,1,.757.475,6.261,6.261,0,0,1,1.042,1.269l1.659,2.6h-1.577l-1.266-1.983a15.988,15.988,0,0,0-.909-1.316,2.735,2.735,0,0,0-.642-.637,1.914,1.914,0,0,0-.57-.253,3.989,3.989,0,0,0-.7-.044h-1.46v4.234Zm1.267-5.326h2.706a3.993,3.993,0,0,0,1.348-.179,1.368,1.368,0,0,0,.738-.573,1.531,1.531,0,0,0,.25-.854,1.419,1.419,0,0,0-.49-1.114,2.258,2.258,0,0,0-1.541-.435h-3.011Z" transform="translate(-15695.579 -120.558)" fill="#fff"/>
        <path id="Path_937" data-name="Path 937" d="M16040.411,0a8.409,8.409,0,1,1-5.952,2.465A8.4,8.4,0,0,1,16040.411,0Zm5.025,3.391a7.113,7.113,0,1,0,2.077,5.024,7.071,7.071,0,0,0-2.077-5.024Z" transform="translate(-15549.326)" fill="#fff"/>
      </g>
    </g>
  </g>
</svg>
