<svg width="38" height="37" viewBox="0 0 38 37" fill="none" xmlns="http://www.w3.org/2000/svg">
<path opacity="0.1" d="M15.0424 8.95839L15.0197 8.45891L15.0196 8.45891L15.0424 8.95839ZM22.9559 8.95839L22.9788 8.45891L22.9786 8.45891L22.9559 8.95839ZM25.2879 9.4044L25.1071 9.87055L25.1072 9.87059L25.2879 9.4044ZM26.9879 10.5114L26.6344 10.865L26.6345 10.8651L26.9879 10.5114ZM28.096 12.212L28.5623 12.0317L28.5618 12.0305L28.096 12.212ZM28.542 14.542L29.0415 14.5196L29.0414 14.5186L28.542 14.542ZM28.542 22.4581L29.0414 22.4816L29.0415 22.4806L28.542 22.4581ZM28.096 24.7882L28.5618 24.9697L28.5623 24.9684L28.096 24.7882ZM26.9879 26.4886L26.6345 26.1349L26.6342 26.1352L26.9879 26.4886ZM25.2885 27.5966L25.1075 27.1305L25.1074 27.1305L25.2885 27.5966ZM22.9573 28.0426L22.98 28.5421L22.9802 28.5421L22.9573 28.0426ZM15.0416 28.0426L15.0187 28.5421L15.0189 28.5421L15.0416 28.0426ZM12.7112 27.5966L12.8923 27.1305L12.8923 27.1305L12.7112 27.5966ZM11.0112 26.4886L11.3649 26.1352L11.3647 26.135L11.0112 26.4886ZM9.90397 24.788L9.43792 24.9691L9.43793 24.9691L9.90397 24.788ZM9.45796 22.4579L8.95848 22.4806L8.95849 22.4809L9.45796 22.4579ZM9.45776 14.5418L8.95827 14.5194L8.95826 14.5195L9.45776 14.5418ZM9.90377 12.2118L10.3696 12.3934L10.3696 12.3934L9.90377 12.2118ZM11.0118 10.5114L11.3652 10.8651L11.3654 10.8649L11.0118 10.5114ZM12.7124 9.4044L12.8934 9.87048L12.8936 9.87039L12.7124 9.4044ZM1.5 18.5C1.5 8.83502 9.33502 1 19 1V0C8.78273 0 0.5 8.28273 0.5 18.5H1.5ZM19 36C9.33502 36 1.5 28.165 1.5 18.5H0.5C0.5 28.7173 8.78273 37 19 37V36ZM36.5 18.5C36.5 28.165 28.665 36 19 36V37C29.2173 37 37.5 28.7173 37.5 18.5H36.5ZM19 1C28.665 1 36.5 8.83502 36.5 18.5H37.5C37.5 8.28273 29.2173 0 19 0V1ZM19.0009 8.40039C16.391 8.40039 16.055 8.41179 15.0197 8.45891L15.0652 9.45787C16.0779 9.41179 16.3962 9.40039 19.0009 9.40039V8.40039ZM18.9979 9.40039H19.0009V8.40039H18.9979V9.40039ZM22.9786 8.45891C21.9433 8.41179 21.6085 8.40039 18.9979 8.40039V9.40039C21.6033 9.40039 21.9205 9.41179 22.9332 9.45787L22.9786 8.45891ZM25.4688 8.93824C24.8002 8.67889 24.048 8.50788 22.9788 8.45891L22.933 9.45787C23.9078 9.50251 24.5517 9.65509 25.1071 9.87055L25.4688 8.93824ZM27.3415 10.1579C26.7552 9.57155 26.1612 9.20667 25.4687 8.9382L25.1072 9.87059C25.6787 10.0921 26.1527 10.3833 26.6344 10.865L27.3415 10.1579ZM28.5618 12.0305C28.2927 11.3396 27.9281 10.744 27.3414 10.1577L26.6345 10.8651C27.1158 11.346 27.4073 11.8217 27.6301 12.3935L28.5618 12.0305ZM29.0414 14.5186C28.9912 13.4496 28.82 12.6982 28.5623 12.0317L27.6296 12.3923C27.8439 12.9466 27.9967 13.5904 28.0425 14.5655L29.0414 14.5186ZM29.1 18.5005C29.1 15.8904 29.088 15.5546 29.0415 14.5196L28.0425 14.5645C28.088 15.5775 28.1 15.8961 28.1 18.5005H29.1ZM29.0415 22.4806C29.088 21.4456 29.1 21.1106 29.1 18.5005H28.1C28.1 21.1049 28.088 21.4227 28.0425 22.4357L29.0415 22.4806ZM28.5623 24.9684C28.82 24.3017 28.9912 23.5502 29.0414 22.4816L28.0425 22.4347C27.9967 23.4093 27.8439 24.0534 27.6296 24.6079L28.5623 24.9684ZM27.3414 26.8423C27.9281 26.256 28.2926 25.6604 28.5618 24.9697L27.6301 24.6066C27.4073 25.1783 27.1158 25.6539 26.6345 26.1349L27.3414 26.8423ZM25.4696 28.0627C26.1612 27.794 26.756 27.4283 27.3417 26.8419L26.6342 26.1352C26.1531 26.6169 25.6783 26.9088 25.1075 27.1305L25.4696 28.0627ZM22.9802 28.5421C24.0493 28.4931 24.802 28.3221 25.4697 28.0626L25.1074 27.1305C24.5534 27.3459 23.9093 27.4985 22.9344 27.5431L22.9802 28.5421ZM18.9997 28.6006C21.6097 28.6006 21.9447 28.5892 22.98 28.5421L22.9346 27.5431C21.9219 27.5892 21.6045 27.6006 18.9997 27.6006V28.6006ZM15.0189 28.5421C16.0542 28.5892 16.39 28.6006 18.9997 28.6006V27.6006C16.3952 27.6006 16.0771 27.5892 15.0644 27.5431L15.0189 28.5421ZM12.5301 28.0626C13.1977 28.3221 13.9498 28.4931 15.0187 28.5421L15.0645 27.5431C14.0898 27.4985 13.4464 27.3459 12.8923 27.1305L12.5301 28.0626ZM10.6574 26.8419C11.2433 27.4284 11.8389 27.794 12.5301 28.0626L12.8923 27.1305C12.3215 26.9087 11.8459 26.6167 11.3649 26.1352L10.6574 26.8419ZM9.43793 24.9691C9.70658 25.6603 10.0712 26.256 10.6577 26.8422L11.3647 26.135C10.8835 25.654 10.5922 25.1784 10.37 24.6068L9.43793 24.9691ZM8.95849 22.4809C9.00766 23.55 9.17866 24.3019 9.43792 24.9691L10.37 24.6069C10.1549 24.0532 10.0023 23.4099 9.95744 22.435L8.95849 22.4809ZM8.89996 18.5005C8.89996 21.1104 8.91157 21.4454 8.95848 22.4806L9.95745 22.4353C9.91156 21.4225 9.89996 21.105 9.89996 18.5005H8.89996ZM8.95826 14.5195C8.91197 15.5545 8.89996 15.8904 8.89996 18.5005H9.89996C9.89996 15.8961 9.91195 15.5773 9.95726 14.5642L8.95826 14.5195ZM9.43791 12.0302C9.17767 12.6979 9.00641 13.4503 8.95827 14.5194L9.95726 14.5643C10.0011 13.5902 10.1539 12.947 10.3696 12.3934L9.43791 12.0302ZM10.6584 10.1577C10.0717 10.744 9.70709 11.3396 9.4379 12.0303L10.3696 12.3934C10.5925 11.8217 10.8839 11.346 11.3652 10.8651L10.6584 10.1577ZM12.5314 8.93831C11.8401 9.20677 11.2444 9.57146 10.6582 10.1579L11.3654 10.8649C11.8464 10.3837 12.3219 10.0924 12.8934 9.87048L12.5314 8.93831ZM15.0196 8.45891C13.9504 8.50787 13.1984 8.67888 12.5312 8.9384L12.8936 9.87039C13.4472 9.6551 14.0904 9.50251 15.0653 9.45787L15.0196 8.45891Z" fill="white"/>
<path d="M18.0152 9.50275C18.3076 9.50229 18.6337 9.50275 19.0001 9.50275C21.9314 9.50275 22.2788 9.51327 23.4364 9.56588C24.5068 9.61483 25.0877 9.79371 25.4747 9.944C25.987 10.143 26.3523 10.3809 26.7363 10.7652C27.1206 11.1495 27.3584 11.5155 27.5579 12.0279C27.7082 12.4145 27.8872 12.9955 27.936 14.0661C27.9886 15.2235 28 15.5712 28 18.5015C28 21.4318 27.9886 21.7795 27.936 22.9369C27.887 24.0075 27.7082 24.5885 27.5579 24.9751C27.3589 25.4875 27.1206 25.8523 26.7363 26.2364C26.3521 26.6207 25.9873 26.8586 25.4747 27.0576C25.0882 27.2086 24.5068 27.387 23.4364 27.436C22.279 27.4886 21.9314 27.5 19.0001 27.5C16.0686 27.5 15.7212 27.4886 14.5639 27.436C13.4935 27.3865 12.9125 27.2077 12.5253 27.0574C12.013 26.8584 11.647 26.6205 11.2628 26.2362C10.8785 25.8519 10.6406 25.4868 10.4412 24.9742C10.2909 24.5876 10.1118 24.0066 10.0631 22.936C10.0105 21.7785 10 21.4308 10 18.4987C10 15.5666 10.0105 15.2208 10.0631 14.0633C10.1121 12.9928 10.2909 12.4117 10.4412 12.0247C10.6402 11.5123 10.8785 11.1463 11.2628 10.762C11.647 10.3777 12.013 10.1398 12.5253 9.94034C12.9123 9.78937 13.4935 9.61094 14.5639 9.56176C15.5766 9.51601 15.9691 9.50229 18.0152 9.5V9.50275Z" stroke="white"/>
<path d="M24.1247 12.224C23.4887 12.224 22.9727 12.7394 22.9727 13.3756C22.9727 14.0117 23.4887 14.5277 24.1247 14.5277C24.7607 14.5277 25.2767 14.0117 25.2767 13.3756C25.2767 12.7396 24.7607 12.2236 24.1247 12.2236V12.224Z" stroke="white"/>
<path d="M19.0008 15.2998C20.768 15.2998 22.2008 16.7324 22.2008 18.4998C22.2008 20.2671 20.768 21.6999 19.0008 21.6999C17.2334 21.6999 15.8008 20.2671 15.8008 18.4998C15.8008 16.7324 17.2334 15.2998 19.0008 15.2998V15.2998Z" stroke="white"/>
</svg>
