<svg xmlns="http://www.w3.org/2000/svg" width="687" height="180" viewBox="0 0 687 180">
  <g id="Group_217" data-name="Group 217" transform="translate(-4186 -1108)">
    <g id="Group_209" data-name="Group 209">
      <g id="Group_208" data-name="Group 208">
        <rect id="Rectangle_341" data-name="Rectangle 341" width="687" height="180" transform="translate(4186 1108)" fill="none"/>
        <g id="Layer_x0020_1" transform="translate(4191 1116)">
          <g id="_1616013212176" transform="translate(0)">
            <path id="Path_915" data-name="Path 915" d="M9162.429,554.675a13.745,13.745,0,0,0-4.554,5.492c1.826-8.138,5.437-16.616,12.494-19.178a19.06,19.06,0,0,1,4.009-.369,8.649,8.649,0,0,1,5.806,1.964,5.874,5.874,0,0,1,2.449,4.639c0,2.392-.49,4.041-1.742,5.292a6.183,6.183,0,0,1-4.372,1.792,10.188,10.188,0,0,1-3.761-.657c-.049-.028-.17-.057-.278-.112l-.013,0a12.056,12.056,0,0,0-4-1,11.681,11.681,0,0,0-6.035,2.133Z" transform="translate(-8784.457 -518.576)" fill="#fff"/>
            <path id="Path_916" data-name="Path 916" d="M8783.237,551.233a6.647,6.647,0,0,1,1.85,3.5c.067,5.89.115,14.994.182,21.336-.036.457-.036.938-.036,1.4v27.542a7.2,7.2,0,0,1-1.965,5.124,7.366,7.366,0,0,1-10.015,0,7.225,7.225,0,0,1-1.965-5.124V556.214a6.851,6.851,0,0,1,1.965-5.007,6.576,6.576,0,0,1,5.014-2.076,6.757,6.757,0,0,1,4.971,2.1h0Z" transform="translate(-8413.635 -526.739)" fill="#fff"/>
            <path id="Path_917" data-name="Path 917" d="M1475.721,540.62c6.57,0,11.892,1.055,15.931,3.131,4.011,2.021,6.033,4.723,6.033,8.138a7.261,7.261,0,0,1-1.51,4.523,4.8,4.8,0,0,1-3.952,1.849,8.17,8.17,0,0,1-3.015-.453,23.477,23.477,0,0,1-2.333-1.395,11.951,11.951,0,0,0-2.078-1.511,14.088,14.088,0,0,0-3.469-1.051,17.945,17.945,0,0,0-3.612-.457c-5.8,0-10.387,1.821-13.714,5.464-3.243,3.556-4.9,8.25-4.9,14.053a20.138,20.138,0,0,0,5.011,13.939,16.54,16.54,0,0,0,12.772,5.464c3.786,0,6.628-.457,8.476-1.4a16.484,16.484,0,0,0,1.851-1.163,12.405,12.405,0,0,1,2.333-1.4,6.158,6.158,0,0,1,2.558-.456,5.738,5.738,0,0,1,4.526,1.851,6.683,6.683,0,0,1,1.733,4.778c0,1.853-1.083,3.615-3.243,5.236a25.882,25.882,0,0,1-8.591,3.956,44.588,44.588,0,0,1-11.382,1.392,29.6,29.6,0,0,1-15.788-4.181,28.575,28.575,0,0,1-10.471-11.493,36.47,36.47,0,0,1-3.724-16.505,35.361,35.361,0,0,1,3.839-16.727,28.614,28.614,0,0,1,10.926-11.381,29.781,29.781,0,0,1,15.788-4.21h0Z" transform="translate(-1386.242 -518.576)" fill="#fff"/>
            <path id="Path_918" data-name="Path 918" d="M441.382,618.676a7.378,7.378,0,0,1,2.221,5.235,6.073,6.073,0,0,1-2.336,4.863,7.124,7.124,0,0,1-4.752,1.992,6.583,6.583,0,0,1-5.124-2.333l-21.85-24.552v-.031a7.678,7.678,0,0,1-2.132-5.317,7.574,7.574,0,0,1,2.161-5.319l20.088-22.306a7.032,7.032,0,0,1,5.12-2.218,5.906,5.906,0,0,1,4.526,2.218,6.085,6.085,0,0,1,2.074,4.3,7.03,7.03,0,0,1-2.788,5.236L422.543,596.6l18.836,22.071h0Z" transform="translate(-390.797 -545.502)" fill="#fff"/>
            <path id="Path_919" data-name="Path 919" d="M13.97,584.344V561.012A6.75,6.75,0,0,0,11.979,556a6.594,6.594,0,0,0-5.008-2.1A6.632,6.632,0,0,0,1.964,556,6.81,6.81,0,0,0,0,561.012v48.481a7.216,7.216,0,0,0,1.964,5.124,6.8,6.8,0,0,0,5.007,1.965,6.848,6.848,0,0,0,5.008-1.965,7.236,7.236,0,0,0,1.992-5.124Z" transform="translate(0 -531.314)" fill="#fff"/>
            <path id="Path_920" data-name="Path 920" d="M3768.976,590.361a33.5,33.5,0,0,0,4.178-16.729,32.869,32.869,0,0,0-4.178-16.617,29.4,29.4,0,0,0-11.5-11.494,32.654,32.654,0,0,0-31.977,0,29.469,29.469,0,0,0-11.381,11.494,32.819,32.819,0,0,0-4.182,16.617,33.463,33.463,0,0,0,4.182,16.729,29.535,29.535,0,0,0,11.381,11.381,33.468,33.468,0,0,0,31.977,0A29.682,29.682,0,0,0,3768.976,590.361ZM3756.766,563.5a22.076,22.076,0,0,1,0,20.2,17.136,17.136,0,0,1-6.4,6.856,16.555,16.555,0,0,1-8.82,2.448,17.236,17.236,0,0,1-8.962-2.448,18.616,18.616,0,0,1-6.4-6.856,21.567,21.567,0,0,1-2.334-10.1,21.062,21.062,0,0,1,2.334-10.1,17.928,17.928,0,0,1,6.4-6.971,17.115,17.115,0,0,1,8.962-2.45,16.45,16.45,0,0,1,8.82,2.45A16.735,16.735,0,0,1,3756.766,563.5Z" transform="translate(-3558.665 -519.266)" fill="#fff"/>
            <path id="Path_921" data-name="Path 921" d="M5482.434,568.608a6.34,6.34,0,0,1,4.642,1.848,5.758,5.758,0,0,1,1.845,4.41,8.933,8.933,0,0,1-.937,3.5l-21.733,47.882a7.089,7.089,0,0,1-2.452,3.131,6.228,6.228,0,0,1-3.5,1.278l-1.052.116a6.71,6.71,0,0,1-3.731-1.166,8.563,8.563,0,0,1-2.558-3.387l-21.625-47.885a9.3,9.3,0,0,1-.8-3.727,5.692,5.692,0,0,1,1.965-4.181,6.636,6.636,0,0,1,4.9-1.964,7.555,7.555,0,0,1,4.061,1.166,7.091,7.091,0,0,1,2.794,3.242L5460.3,609.6l15.935-36.615a7.574,7.574,0,0,1,2.558-3.357,5.817,5.817,0,0,1,3.644-1.017h0v0Z" transform="translate(-5209.105 -545.281)" fill="#fff"/>
            <path id="Path_922" data-name="Path 922" d="M7089.581,576.714a6,6,0,0,0,2.22-4.523,30.44,30.44,0,0,0-4.064-15.334,31.007,31.007,0,0,0-10.927-11.265,26.873,26.873,0,0,0-14.4-4.182,28.421,28.421,0,0,0-14.652,4.066,29.275,29.275,0,0,0-11.036,11.5,35.679,35.679,0,0,0-4.185,17.552,32.968,32.968,0,0,0,3.955,16.16,28.413,28.413,0,0,0,11.15,11.156,36.232,36.232,0,0,0,28.113,2.218,28.284,28.284,0,0,0,8.708-4.522c2.159-1.708,3.241-3.613,3.241-5.692a5.553,5.553,0,0,0-1.735-4.069,5.7,5.7,0,0,0-4.185-1.736,8.64,8.64,0,0,0-3.948,1.054c-.4.231-1.113.686-2.22,1.4a19.824,19.824,0,0,1-4.185,1.848,26.685,26.685,0,0,1-7.426.826,17.656,17.656,0,0,1-17.67-14.653l38.351,0a7.678,7.678,0,0,0,4.893-1.792Zm-43.1-9.871c1.615-8.448,6.942-12.662,15.9-12.662a15.034,15.034,0,0,1,9.754,3.5,11.912,11.912,0,0,1,4.754,8.362v.826h-30.412v-.029h0v0Z" transform="translate(-6745.784 -519.334)" fill="#fff"/>
            <path id="Path_923" data-name="Path 923" d="M9892.5,590.107a5.5,5.5,0,0,0,1.059,3.471,23.687,23.687,0,0,0,10.807,8.251,39.332,39.332,0,0,0,14.289,2.558,27.479,27.479,0,0,0,10.813-2.217,21.613,21.613,0,0,0,8.708-6.4,15.761,15.761,0,0,0,3.356-9.986c0-4.182-.968-7.567-2.909-10.1a17.781,17.781,0,0,0-7.075-5.692,75.867,75.867,0,0,0-10.474-3.612c-3.018-.853-5.376-1.538-7.081-2.077a12.209,12.209,0,0,1-4.07-2.449,5.654,5.654,0,0,1-1.62-4.181c0-4.27,2.963-6.4,8.822-6.4a17.561,17.561,0,0,1,7.427,1.511,14.528,14.528,0,0,1,5.46,4.068,5.678,5.678,0,0,0,4.179,1.621,5.871,5.871,0,0,0,3.731-1.282,5.346,5.346,0,0,0,2.213-4.406,6.527,6.527,0,0,0-1.512-4.185,20.546,20.546,0,0,0-9.294-6.515,33.707,33.707,0,0,0-11.865-2.22,26.7,26.7,0,0,0-11.048,2.336,20.873,20.873,0,0,0-8.357,6.4,15.36,15.36,0,0,0-3.133,9.646c0,4.268,1,7.681,3.018,10.245a20.508,20.508,0,0,0,7.317,5.577,86.714,86.714,0,0,0,11.036,3.728,42.23,42.23,0,0,1,9.524,3.495,5.579,5.579,0,0,1,3.133,5.124q0,6.525-9.047,6.856a22.077,22.077,0,0,1-9.191-1.735,24.72,24.72,0,0,1-7.2-5.347,6.533,6.533,0,0,0-4.633-2.218,6.626,6.626,0,0,0-6.386,6.142h0Z" transform="translate(-9489.123 -517.847)" fill="#fff"/>
            <path id="Path_924" data-name="Path 924" d="M11354.988,570.733a6.021,6.021,0,0,1-2.221,4.523,7.374,7.374,0,0,1-4.9,1.735l-38.357,0a17.68,17.68,0,0,0,17.678,14.653,25.406,25.406,0,0,0,7.426-.826,22.985,22.985,0,0,0,4.178-1.848c1.088-.686,1.826-1.167,2.219-1.394a9.042,9.042,0,0,1,3.955-1.055,5.738,5.738,0,0,1,4.191,1.736,5.571,5.571,0,0,1,1.723,4.067c0,2.074-1.076,3.982-3.24,5.689a27,27,0,0,1-8.7,4.526,33.784,33.784,0,0,1-11.035,1.848,34.606,34.606,0,0,1-17.078-4.069,28.57,28.57,0,0,1-11.145-11.153,33.159,33.159,0,0,1-3.961-16.161,35.733,35.733,0,0,1,4.186-17.555,29.035,29.035,0,0,1,11.035-11.494,28.3,28.3,0,0,1,14.629-4.069,26.979,26.979,0,0,1,14.422,4.185,31.227,31.227,0,0,1,10.928,11.266,30.589,30.589,0,0,1,4.07,15.391h0v0ZM11325.6,552.7q-13.488,0-15.9,12.659h30.436v-.825a12.136,12.136,0,0,0-4.746-8.367,15.335,15.335,0,0,0-9.785-3.468h0Z" transform="translate(-10835.131 -517.876)" fill="#fff"/>
            <path id="Path_925" data-name="Path 925" d="M13017.883,542.584a6.78,6.78,0,0,0-5-1.964,6.6,6.6,0,0,0-5,2.078c-1.318,1.307-1.512,2.248-1.512,4.27a25.675,25.675,0,0,0-8.564-4.755,36.359,36.359,0,0,0-10.617-1.592,25.837,25.837,0,0,0-14.277,4.182A28.124,28.124,0,0,0,12962.8,556.3a38.93,38.93,0,0,0,0,33.234,29.886,29.886,0,0,0,10.359,11.495,26.88,26.88,0,0,0,14.506,4.069,23.661,23.661,0,0,0,10.359-2.333,24.341,24.341,0,0,0,7.9-5.8,7.66,7.66,0,0,0,1.959,5.007,7.371,7.371,0,0,0,10.02,0,7.193,7.193,0,0,0,1.965-5.124V547.679a6.9,6.9,0,0,0-1.994-5.1Zm-16.123,44.3a16.625,16.625,0,0,1-24.643,0c-3.1-3.725-4.637-8.363-4.637-13.939a20.764,20.764,0,0,1,4.752-13.941,16.272,16.272,0,0,1,24.527,0,22.837,22.837,0,0,1,0,27.88Z" transform="translate(-12430.67 -518.576)" fill="#fff"/>
            <path id="Path_926" data-name="Path 926" d="M14707.3,592.909a5.745,5.745,0,0,1-1.041-3.472,6.084,6.084,0,0,1,3.012-5.12,6.287,6.287,0,0,1,3.363-1.054,6.477,6.477,0,0,1,4.631,2.218,25.1,25.1,0,0,0,7.2,5.347,21.97,21.97,0,0,0,9.191,1.736c6.023-.229,9.07-2.531,9.07-6.856a5.576,5.576,0,0,0-3.133-5.122,41.721,41.721,0,0,0-9.518-3.5,85.814,85.814,0,0,1-11.041-3.726,20.315,20.315,0,0,1-7.318-5.576c-2.02-2.561-3.012-5.977-3.012-10.245a15.347,15.347,0,0,1,3.121-9.645,20.965,20.965,0,0,1,8.369-6.4,27.076,27.076,0,0,1,11.043-2.331,33.677,33.677,0,0,1,11.863,2.217,20.688,20.688,0,0,1,9.3,6.515,6.524,6.524,0,0,1,1.512,4.184,5.365,5.365,0,0,1-2.213,4.406,5.89,5.89,0,0,1-3.736,1.283,5.629,5.629,0,0,1-4.174-1.624,14.5,14.5,0,0,0-5.467-4.066,17.584,17.584,0,0,0-7.437-1.511q-8.815,0-8.816,6.4a5.644,5.644,0,0,0,1.633,4.185,12.609,12.609,0,0,0,4.063,2.445c1.705.542,4.064,1.252,7.088,2.078a75.731,75.731,0,0,1,10.475,3.612,18,18,0,0,1,7.074,5.692c1.936,2.561,2.9,5.916,2.9,10.1a15.875,15.875,0,0,1-3.35,9.986,21.614,21.614,0,0,1-8.707,6.4,27.4,27.4,0,0,1-10.812,2.218,39.239,39.239,0,0,1-14.3-2.558,23.438,23.438,0,0,1-10.836-8.22h0Z" transform="translate(-14106.605 -517.175)" fill="#fff"/>
            <path id="Path_927" data-name="Path 927" d="M3163.423,3082.649a3.182,3.182,0,0,1-1.083,2.218,3.554,3.554,0,0,1-2.36.853H3134.66a12.669,12.669,0,0,0,3.952,8.422,12.406,12.406,0,0,0,8.563,3.161,13.542,13.542,0,0,0,5.605-1,14.278,14.278,0,0,0,3.816-2.589,4.1,4.1,0,0,1,2.071-.655,2.653,2.653,0,0,1,2.026.854,2.774,2.774,0,0,1,.85,2.021,3.558,3.558,0,0,1-1.452,2.729,17.032,17.032,0,0,1-5.548,3.527,18.109,18.109,0,0,1-7.055,1.453,20.987,20.987,0,0,1-10.271-2.451,17.083,17.083,0,0,1-6.827-6.827,20.406,20.406,0,0,1-2.389-9.925,21.943,21.943,0,0,1,2.448-10.557,18.28,18.28,0,0,1,6.544-7.058,16.92,16.92,0,0,1,17.383-.086,18.116,18.116,0,0,1,6.458,6.543,17.915,17.915,0,0,1,2.588,9.364h0Zm-17.614-11.951a10.574,10.574,0,0,0-10.867,9.276h21.223v-.573a8.756,8.756,0,0,0-3.441-6.259,10.737,10.737,0,0,0-6.914-2.444h0Z" transform="translate(-3000.454 -2939.429)" fill="#fff"/>
            <path id="Path_928" data-name="Path 928" d="M4384.625,2704.32a3.245,3.245,0,0,1,2.446,1,3.134,3.134,0,0,1,1,2.446v46.318a3.392,3.392,0,0,1-1,2.446,3.141,3.141,0,0,1-2.446,1,3.313,3.313,0,0,1-2.443-.939,3.552,3.552,0,0,1-.94-2.5v-2.024a14.4,14.4,0,0,1-5.095,4.381,14.2,14.2,0,0,1-6.969,1.793,15.943,15.943,0,0,1-8.853-2.529,17.723,17.723,0,0,1-6.256-6.972,21.951,21.951,0,0,1-2.307-10.131,22.385,22.385,0,0,1,2.216-10.068,17.621,17.621,0,0,1,6.262-7.059,16.324,16.324,0,0,1,15.765-.937,15.269,15.269,0,0,1,5.261,4.1v-16.9a3.309,3.309,0,0,1,.94-2.446,3.245,3.245,0,0,1,2.419-.967Zm-14.68,47.6a10.5,10.5,0,0,0,5.975-1.734,11.509,11.509,0,0,0,4.094-4.756,15.178,15.178,0,0,0,1.509-6.826,15.007,15.007,0,0,0-1.509-6.772,11.308,11.308,0,0,0-4.094-4.806,11.265,11.265,0,0,0-12.01,0,11.75,11.75,0,0,0-4.094,4.806,15.451,15.451,0,0,0-1.452,6.772,15.611,15.611,0,0,0,1.452,6.826,11.96,11.96,0,0,0,4.094,4.756A10.749,10.749,0,0,0,4369.945,2751.921Z" transform="translate(-4174.315 -2594.05)" fill="#fff"/>
            <path id="Path_929" data-name="Path 929" d="M5647.038,3085.31a3.406,3.406,0,0,1,3.446,3.444v19.118c0,4.98-1.394,8.879-4.182,11.667-2.729,2.732-6.63,4.1-11.635,4.1-4.979,0-8.853-1.365-11.58-4.1-2.73-2.791-4.1-6.66-4.1-11.667v-19.118a3.447,3.447,0,0,1,.938-2.446,3.5,3.5,0,0,1,4.9,0,3.288,3.288,0,0,1,1,2.446v19.118c0,6.286,2.963,9.418,8.847,9.418,2.934,0,5.152-.794,6.686-2.363,1.539-1.594,2.307-3.925,2.307-7.059v-19.115a3.468,3.468,0,0,1,.938-2.448,3.38,3.38,0,0,1,2.446-1h-.006Z" transform="translate(-5389.874 -2959.505)" fill="#fff"/>
            <path id="Path_930" data-name="Path 930" d="M6779.122,3064.379a21.82,21.82,0,0,1,9.418,1.793c2.531,1.193,3.811,2.733,3.811,4.609a3.391,3.391,0,0,1-.793,2.222,2.51,2.51,0,0,1-2.025.936,3.259,3.259,0,0,1-1.509-.284c-.339-.2-.825-.514-1.448-.939a7.048,7.048,0,0,0-1.367-1,9.871,9.871,0,0,0-2.448-.709,15.251,15.251,0,0,0-2.876-.283,12.557,12.557,0,0,0-6.628,1.732,11.754,11.754,0,0,0-4.463,4.808,14.4,14.4,0,0,0-1.6,6.77,15.194,15.194,0,0,0,1.512,6.832,11.806,11.806,0,0,0,10.778,6.487,13.43,13.43,0,0,0,6.032-1.141,14.988,14.988,0,0,0,1.367-.937,9.043,9.043,0,0,1,1.222-.854,2.977,2.977,0,0,1,1.363-.281,2.694,2.694,0,0,1,2.22.939,3.1,3.1,0,0,1,.853,2.305,4.1,4.1,0,0,1-1.933,3.016,15.416,15.416,0,0,1-5.125,2.36,23.743,23.743,0,0,1-6.824.939,18.056,18.056,0,0,1-9.646-2.531,17.851,17.851,0,0,1-6.488-7.057,22.571,22.571,0,0,1-2.219-10.073,21,21,0,0,1,2.361-9.988,17.607,17.607,0,0,1,6.6-7.052,18.746,18.746,0,0,1,9.851-2.62h0Z" transform="translate(-6484.653 -2939.428)" fill="#fff"/>
            <path id="Path_931" data-name="Path 931" d="M7978.032,3063.357a3.252,3.252,0,0,1,2.448,1,3.2,3.2,0,0,1,1,2.5v31.212a3.38,3.38,0,0,1-1,2.445,3.136,3.136,0,0,1-2.448,1,3.322,3.322,0,0,1-2.449-.942,3.557,3.557,0,0,1-.937-2.5v-1.88a15.961,15.961,0,0,1-5.092,4.325,14.8,14.8,0,0,1-6.973,1.735,16.148,16.148,0,0,1-8.9-2.532,17.709,17.709,0,0,1-6.259-6.969,22.708,22.708,0,0,1-2.219-10.131,22.351,22.351,0,0,1,2.219-10.071,17.65,17.65,0,0,1,6.259-7.06,16.319,16.319,0,0,1,15.766-.933,14.161,14.161,0,0,1,5.236,4.035v-1.731a3.492,3.492,0,0,1,.938-2.5,3.146,3.146,0,0,1,2.419-1h0Zm-14.677,32.579a10.487,10.487,0,0,0,5.975-1.734,11.56,11.56,0,0,0,4.094-4.754,15.307,15.307,0,0,0,1.512-6.827,15.114,15.114,0,0,0-1.512-6.771,11.54,11.54,0,0,0-4.094-4.751,10.268,10.268,0,0,0-5.975-1.792,10.724,10.724,0,0,0-6.035,1.732,11.739,11.739,0,0,0-4.094,4.751,16.718,16.718,0,0,0,0,13.656,11.933,11.933,0,0,0,4.094,4.756,10.736,10.736,0,0,0,6.035,1.734Z" transform="translate(-7621.23 -2938.065)" fill="#fff"/>
            <path id="Path_932" data-name="Path 932" d="M9237.615,2879.144v21.425c0,2.389,1.088,3.583,3.234,3.583a6.164,6.164,0,0,0,1.373-.23,4.292,4.292,0,0,1,1.373-.283,1.954,1.954,0,0,1,1.59.8,3.145,3.145,0,0,1,.654,2.018,3.044,3.044,0,0,1-1.736,2.591,7.215,7.215,0,0,1-3.869,1.083,17.592,17.592,0,0,1-4.379-.514,6.631,6.631,0,0,1-3.525-2.531c-1-1.394-1.512-3.471-1.512-6.26v-21.708l-4.186,0a2.939,2.939,0,0,1-3.156-3.155,3.011,3.011,0,0,1,.854-2.22,3.293,3.293,0,0,1,2.3-.851h4.186v-6.032a3.462,3.462,0,0,1,.943-2.451,3.31,3.31,0,0,1,2.5-1,3.086,3.086,0,0,1,2.352,1,3.267,3.267,0,0,1,1,2.451v6.032h5.98a3.142,3.142,0,0,1,2.219,5.375,3.014,3.014,0,0,1-2.219.851h-5.98v.032Z" transform="translate(-8847.38 -2746.653)" fill="#fff"/>
            <path id="Path_933" data-name="Path 933" d="M10154.6,2824.338a3.416,3.416,0,0,1-.985,2.446,3.161,3.161,0,0,1-2.449,1,3.355,3.355,0,0,1-2.443-1,3.433,3.433,0,0,1-.949-2.446V2793.18a3.433,3.433,0,0,1,.949-2.445,3.495,3.495,0,0,1,4.893,0,3.3,3.3,0,0,1,.985,2.445Zm-3.435-39.319a5,5,0,0,1-3.018-.71,3.21,3.21,0,0,1-.853-2.452v-1.137a2.879,2.879,0,0,1,.938-2.449,5.188,5.188,0,0,1,3.018-.71,4.129,4.129,0,0,1,2.872.8,2.776,2.776,0,0,1,.943,2.36v1.137a2.866,2.866,0,0,1-.943,2.45,5.154,5.154,0,0,1-2.957.709h0Z" transform="translate(-9733.539 -2664.303)" fill="#fff"/>
            <path id="Path_934" data-name="Path 934" d="M10726,3083.375a20.231,20.231,0,0,1-2.5,10.075,18.275,18.275,0,0,1-6.918,6.972,18.861,18.861,0,0,1-26.033-6.972,20.039,20.039,0,0,1-2.533-10.075,20.476,20.476,0,0,1,2.533-10.126,18.353,18.353,0,0,1,6.828-7.06,19.118,19.118,0,0,1,9.645-2.529,18.628,18.628,0,0,1,9.561,2.529,18.094,18.094,0,0,1,6.918,7.06A20.512,20.512,0,0,1,10726,3083.375Zm-6.822,0a14.139,14.139,0,0,0-1.65-6.911,11.64,11.64,0,0,0-4.379-4.754,11.759,11.759,0,0,0-12.287,0,12.025,12.025,0,0,0-4.391,4.754,14.832,14.832,0,0,0-1.59,6.911,14.306,14.306,0,0,0,1.59,6.833,12.849,12.849,0,0,0,4.391,4.75,11.817,11.817,0,0,0,6.168,1.649,11.579,11.579,0,0,0,6.119-1.649,11.762,11.762,0,0,0,4.379-4.75A13.83,13.83,0,0,0,10719.177,3083.375Z" transform="translate(-10252.21 -2938.736)" fill="#fff"/>
            <path id="Path_935" data-name="Path 935" d="M12011.875,3064.361q12.935,0,12.947,15.534v19.575a3.394,3.394,0,0,1-.992,2.446,3.172,3.172,0,0,1-2.455,1,3.311,3.311,0,0,1-3.387-3.445v-19.488a10.946,10.946,0,0,0-1.936-6.771c-1.281-1.68-3.416-2.529-6.312-2.529a10.7,10.7,0,0,0-5.262,1.308,9.49,9.49,0,0,0-3.67,3.387,8.654,8.654,0,0,0-1.275,4.606v19.493a3.427,3.427,0,0,1-1,2.445,3.163,3.163,0,0,1-2.443,1,3.349,3.349,0,0,1-2.461-.942,3.552,3.552,0,0,1-.932-2.5v-30.786a3.465,3.465,0,0,1,.932-2.444,3.3,3.3,0,0,1,2.461-1,3.26,3.26,0,0,1,2.443,1,3.3,3.3,0,0,1,1,2.444v2.507a15.106,15.106,0,0,1,5.176-4.809,13.539,13.539,0,0,1,7.166-2.026h0Z" transform="translate(-11503.69 -2939.408)" fill="#fff"/>
            <path id="Path_936" data-name="Path 936" d="M16182.794,137.212V124.3h5.732a7.549,7.549,0,0,1,2.613.349,2.831,2.831,0,0,1,1.439,1.226,3.73,3.73,0,0,1,.531,1.945,3.247,3.247,0,0,1-.883,2.317,4.506,4.506,0,0,1-2.746,1.2,4.678,4.678,0,0,1,1.029.644,8.956,8.956,0,0,1,1.414,1.719l2.238,3.516h-2.141l-1.705-2.686c-.5-.779-.908-1.371-1.234-1.782a3.726,3.726,0,0,0-.871-.862,2.539,2.539,0,0,0-.762-.343,5.6,5.6,0,0,0-.967-.06h-1.973v5.734Zm1.717-7.213h3.678a5.383,5.383,0,0,0,1.814-.243,1.909,1.909,0,0,0,1-.776,2.087,2.087,0,0,0,.338-1.157,1.912,1.912,0,0,0-.666-1.509,3.069,3.069,0,0,0-2.092-.589h-4.076Z" transform="translate(-15522.93 -119.232)" fill="#fff"/>
            <path id="Path_937" data-name="Path 937" d="M16043.394,0a11.4,11.4,0,1,1-8.055,3.338A11.343,11.343,0,0,1,16043.394,0Zm6.811,4.593a9.654,9.654,0,1,0,2.8,6.8,9.623,9.623,0,0,0-2.8-6.8Z" transform="translate(-15378.292)" fill="#fff"/>
          </g>
        </g>
      </g>
    </g>
  </g>
</svg>
