<svg width="37" height="38" viewBox="0 0 37 38" fill="none" xmlns="http://www.w3.org/2000/svg">
<path opacity="0.1" fill-rule="evenodd" clip-rule="evenodd" d="M18.5 1.5C8.83502 1.5 1 9.33502 1 19C1 28.665 8.83502 36.5 18.5 36.5C28.165 36.5 36 28.665 36 19C36 9.33502 28.165 1.5 18.5 1.5ZM0 19C0 8.78273 8.28273 0.5 18.5 0.5C28.7173 0.5 37 8.78273 37 19C37 29.2173 28.7173 37.5 18.5 37.5C8.28273 37.5 0 29.2173 0 19Z" fill="white"/>
<path d="M13.2208 15.9082H9.1416V28.1645H13.2208V15.9082Z" fill="white"/>
<path d="M13.4895 12.117C13.463 10.9153 12.6036 10 11.2082 10C9.8127 10 8.90039 10.9153 8.90039 12.117C8.90039 13.2939 9.78573 14.2355 11.1552 14.2355H11.1813C12.6036 14.2355 13.4895 13.2939 13.4895 12.117Z" fill="white"/>
<path d="M27.9317 21.1368C27.9317 17.3722 25.9193 15.6201 23.235 15.6201C21.0693 15.6201 20.0996 16.8097 19.5582 17.6442V15.9082H15.4785C15.5323 17.0583 15.4785 28.1645 15.4785 28.1645H19.5582V21.3196C19.5582 20.9533 19.5847 20.5879 19.6925 20.3256C19.9873 19.5939 20.6586 18.8362 21.7856 18.8362C23.2623 18.8362 23.8525 19.9601 23.8525 21.6071V28.1642H27.9316L27.9317 21.1368Z" fill="white"/>
</svg>
