<svg width="35" height="35" viewBox="0 0 35 35" fill="none" xmlns="http://www.w3.org/2000/svg">
<g clip-path="url(#clip0_1_3490)">
<path d="M34.3965 28.9652H0.603475C0.270224 28.9652 0 28.695 0 28.3618V6.63765C0 6.3044 0.270224 6.03418 0.603475 6.03418H34.3965C34.7298 6.03418 35 6.3044 35 6.63765V28.3618C34.9999 28.6951 34.7297 28.9652 34.3965 28.9652Z" fill="#41479B"/>
<path d="M16.8965 6.03418H15.8483L10.2585 9.69646V6.03418H7.2413V9.69646L1.65156 6.03418H0.603475C0.270224 6.03418 0 6.30434 0 6.63759V7.11624L4.79574 10.2582H0V13.2755H4.79574L0 16.4175V16.8962C0 17.2294 0.270224 17.4997 0.603475 17.4997H1.6517L7.24143 13.8374V17.4997H10.2587V13.8374L15.8483 17.4997H16.8966C17.2298 17.4997 17.5 17.2294 17.5 16.8962V16.4175L12.7043 13.2755H17.5V10.2583H12.7042L17.5 7.11631V6.63766C17.5 6.30434 17.2297 6.03418 16.8965 6.03418Z" fill="#F5F5F5"/>
<path d="M17.5 10.8618H9.65513V6.03418H7.84484V10.8618H0V12.6721H7.84484V17.4997H9.65513V12.6721H17.5V10.8618Z" fill="#FF4B55"/>
<path d="M6.63789 10.2588L0.287587 6.13672C0.118603 6.24363 0 6.42335 0 6.63813V6.66944L5.52951 10.2588H6.63789Z" fill="#FF4B55"/>
<path d="M11.3672 10.2583L17.4083 6.33681C17.3033 6.15914 17.1181 6.03418 16.8967 6.03418H16.7662L10.2588 10.2583H11.3672Z" fill="#FF4B55"/>
<path d="M6.11654 13.2754L0.0869141 17.1894C0.190888 17.3713 0.379013 17.4995 0.603642 17.4995H0.71746L7.22499 13.2754H6.11654Z" fill="#FF4B55"/>
<path d="M17.4908 16.9434L11.8398 13.2754H10.7314L17.1486 17.4409C17.3408 17.3517 17.4727 17.1647 17.4908 16.9434Z" fill="#FF4B55"/>
<path d="M27.0345 25.1642C27.01 25.1642 26.9853 25.1565 26.9643 25.1418L26.2501 24.6314L25.5358 25.1418C25.5149 25.1565 25.4902 25.1642 25.4657 25.1642C25.4407 25.1642 25.4159 25.1565 25.3947 25.1412C25.3529 25.1105 25.3349 25.0563 25.3505 25.0068L25.6154 24.17L24.9095 23.6491C24.8676 23.6179 24.8503 23.5643 24.8662 23.5148C24.8824 23.4653 24.9281 23.4316 24.9802 23.4311L25.858 23.424L26.1356 22.5913C26.1522 22.5424 26.1984 22.5088 26.2503 22.5088C26.3021 22.5088 26.3484 22.5424 26.3649 22.5913L26.6425 23.424L27.5203 23.4311C27.5725 23.4317 27.6181 23.4653 27.6343 23.5148C27.6503 23.5643 27.6328 23.6179 27.5911 23.6491L26.8851 24.17L27.15 25.0068C27.1656 25.0563 27.1477 25.1105 27.1058 25.1412C27.0843 25.1565 27.0593 25.1642 27.0345 25.1642Z" fill="#FF4B55"/>
<path d="M26.2497 22.6291L26.5546 23.5436L27.5186 23.551L26.7431 24.1237L27.0339 25.0428L26.2497 24.4823L25.4654 25.0429L25.7562 24.1238L24.9806 23.5512L25.9446 23.5437L26.2497 22.6291ZM26.2497 22.3877C26.1458 22.3877 26.0535 22.4541 26.0207 22.5527L25.7703 23.3036L24.9788 23.3097C24.875 23.3105 24.7832 23.3777 24.7511 23.4765C24.719 23.5754 24.7538 23.6836 24.8372 23.7453L25.4739 24.2155L25.2352 24.9701C25.2039 25.0692 25.2394 25.1772 25.3235 25.2382C25.3658 25.2689 25.4155 25.2843 25.4654 25.2843C25.5145 25.2843 25.5637 25.2692 25.6058 25.2392L26.2497 24.779L26.8937 25.2392C26.9357 25.2692 26.9849 25.2843 27.034 25.2843C27.0838 25.2843 27.1336 25.2689 27.1759 25.2382C27.2599 25.1771 27.2955 25.0692 27.2642 24.9701L27.0255 24.2155L27.6622 23.7453C27.7458 23.6836 27.7804 23.5754 27.7483 23.4765C27.7162 23.3777 27.6245 23.3105 27.5206 23.3097L26.7291 23.3036L26.4787 22.5527C26.4458 22.4542 26.3535 22.3877 26.2497 22.3877Z" fill="#F5F5F5"/>
<path d="M27.0345 15.4346C27.0097 15.4346 26.9853 15.4269 26.9643 15.4122L26.2501 14.9014L25.5358 15.4123C25.5149 15.427 25.4902 15.4347 25.4657 15.4347C25.441 15.4347 25.4159 15.427 25.3947 15.4117C25.3529 15.381 25.3349 15.3268 25.3505 15.2773L25.6154 14.4405L24.9095 13.919C24.8676 13.8877 24.8503 13.8335 24.8662 13.7847C24.8824 13.7352 24.9283 13.7015 24.9802 13.701L25.858 13.6945L26.1356 12.8618C26.1522 12.8129 26.1984 12.7793 26.2503 12.7793C26.3021 12.7793 26.3484 12.8129 26.3649 12.8618L26.6425 13.6945L27.5203 13.701C27.5722 13.7016 27.6181 13.7352 27.6343 13.7847C27.6503 13.8335 27.6328 13.8877 27.5911 13.919L26.8851 14.4405L27.15 15.2773C27.1656 15.3268 27.1477 15.381 27.1058 15.4117C27.0843 15.427 27.0593 15.4346 27.0345 15.4346Z" fill="#FF4B55"/>
<path d="M26.2497 12.9006L26.5546 13.8151L27.5186 13.8225L26.7431 14.3952L27.0339 15.3143L26.2497 14.7537L25.4654 15.3143L25.7562 14.3952L24.9806 13.8225L25.9446 13.8151L26.2497 12.9006ZM26.2497 12.6592C26.1458 12.6592 26.0535 12.7256 26.0207 12.8242L25.7703 13.5751L24.9788 13.5812C24.875 13.582 24.7832 13.6492 24.7511 13.748C24.719 13.8469 24.7538 13.9551 24.8372 14.0168L25.4739 14.487L25.2352 15.2416C25.2039 15.3406 25.2394 15.4486 25.3235 15.5097C25.3658 15.5404 25.4155 15.5558 25.4654 15.5558C25.5145 15.5558 25.5637 15.5407 25.6058 15.5107L26.2497 15.0505L26.8937 15.5107C26.9357 15.5407 26.9849 15.5558 27.034 15.5558C27.0838 15.5558 27.1336 15.5404 27.1759 15.5097C27.2599 15.4486 27.2955 15.3406 27.2642 15.2416L27.0255 14.487L27.6622 14.0168C27.7458 13.9551 27.7804 13.8469 27.7483 13.748C27.7162 13.6492 27.6245 13.582 27.5206 13.5812L26.7291 13.5751L26.4787 12.8242C26.4458 12.7256 26.3535 12.6592 26.2497 12.6592Z" fill="#F5F5F5"/>
<path d="M31.259 18.4523C31.2343 18.4523 31.2099 18.4446 31.1889 18.4299L30.4747 17.919L29.7604 18.4299C29.7395 18.4446 29.7148 18.4523 29.6903 18.4523C29.6656 18.4523 29.6405 18.4446 29.6194 18.4293C29.5775 18.3986 29.5595 18.3444 29.5751 18.2949L29.84 17.4581L29.1341 16.9366C29.0922 16.9053 29.0749 16.8511 29.0908 16.8022C29.107 16.7527 29.1529 16.7191 29.2048 16.7186L30.0826 16.7121L30.3602 15.8794C30.3768 15.8305 30.423 15.7969 30.4749 15.7969C30.5268 15.7969 30.573 15.8304 30.5895 15.8794L30.8671 16.7121L31.7449 16.7186C31.7968 16.7192 31.8427 16.7527 31.8589 16.8022C31.8749 16.8511 31.8574 16.9053 31.8157 16.9366L31.1097 17.4581L31.3746 18.2949C31.3902 18.3444 31.3723 18.3986 31.3304 18.4293C31.3089 18.4446 31.2838 18.4523 31.259 18.4523Z" fill="#FF4B55"/>
<path d="M30.4743 15.9172L30.7792 16.8317L31.7432 16.8391L30.9677 17.4118L31.2585 18.3309L30.4742 17.7703L29.6899 18.3309L29.9807 17.4118L29.2052 16.8392L30.1692 16.8317L30.4743 15.9172ZM30.4743 15.6758C30.3704 15.6758 30.2782 15.7422 30.2453 15.8408L29.9949 16.5917L29.2034 16.5978C29.0996 16.5986 29.0078 16.6658 28.9757 16.7646C28.9436 16.8635 28.9784 16.9717 29.0618 17.0334L29.6985 17.5036L29.4598 18.2582C29.4285 18.3572 29.4641 18.4652 29.5481 18.5263C29.5904 18.557 29.6402 18.5724 29.69 18.5724C29.7391 18.5724 29.7884 18.5573 29.8303 18.5273L30.4743 18.0671L31.1182 18.5273C31.1603 18.5573 31.2094 18.5724 31.2586 18.5724C31.3084 18.5724 31.3582 18.557 31.4005 18.5263C31.4846 18.4652 31.5201 18.3572 31.4888 18.2582L31.2501 17.5036L31.8868 17.0334C31.9704 16.9717 32.005 16.8635 31.9729 16.7646C31.9408 16.6658 31.8491 16.5986 31.7452 16.5978L30.9537 16.5917L30.7033 15.8408C30.6704 15.7422 30.5782 15.6758 30.4743 15.6758Z" fill="#F5F5F5"/>
<path d="M22.8108 19.6593C22.786 19.6593 22.7616 19.6516 22.7406 19.6369L22.0265 19.126L21.3122 19.6369C21.2913 19.6516 21.2665 19.6593 21.2421 19.6593C21.2173 19.6593 21.1923 19.6516 21.1711 19.6363C21.1293 19.6057 21.1113 19.5514 21.1269 19.502L21.3918 18.6651L20.6858 18.1436C20.644 18.1124 20.6266 18.0581 20.6426 18.0093C20.6588 17.9598 20.7047 17.9261 20.7566 17.9256L21.6344 17.9191L21.912 17.0864C21.9285 17.0375 21.9747 17.0039 22.0266 17.0039C22.0785 17.0039 22.1248 17.0375 22.1413 17.0864L22.4189 17.9191L23.2967 17.9256C23.3486 17.9262 23.3945 17.9598 23.4107 18.0093C23.4266 18.0581 23.4092 18.1124 23.3674 18.1436L22.6615 18.6651L22.9264 19.502C22.942 19.5514 22.924 19.6057 22.8821 19.6363C22.8606 19.6517 22.8356 19.6593 22.8108 19.6593Z" fill="#FF4B55"/>
<path d="M22.026 17.1242L22.331 18.0387L23.295 18.0462L22.5194 18.6188L22.8102 19.538L22.026 18.9773L21.2417 19.538L21.5325 18.6188L20.7569 18.0462L21.7209 18.0387L22.026 17.1242ZM22.026 16.8828C21.9222 16.8828 21.8299 16.9493 21.797 17.0478L21.5466 17.7987L20.7552 17.8048C20.6513 17.8056 20.5596 17.8728 20.5275 17.9716C20.4953 18.0705 20.5301 18.1787 20.6136 18.2404L21.2503 18.7106L21.0116 19.4652C20.9803 19.5643 21.0158 19.6723 21.0998 19.7333C21.1421 19.764 21.1919 19.7794 21.2417 19.7794C21.2909 19.7794 21.3401 19.7644 21.3821 19.7344L22.026 19.2741L22.67 19.7344C22.712 19.7643 22.7612 19.7794 22.8103 19.7794C22.8601 19.7794 22.9099 19.764 22.9522 19.7333C23.0362 19.6722 23.0718 19.5643 23.0405 19.4652L22.8018 18.7106L23.4385 18.2404C23.5221 18.1787 23.5567 18.0705 23.5246 17.9716C23.4925 17.8728 23.4008 17.8056 23.2969 17.8048L22.5054 17.7987L22.255 17.0478C22.2222 16.9493 22.1299 16.8828 22.026 16.8828Z" fill="#F5F5F5"/>
</g>
<defs>
<clipPath id="clip0_1_3490">
<rect width="35" height="35" fill="white"/>
</clipPath>
</defs>
</svg>
