<?xml version="1.0" encoding="UTF-8"?>
<!DOCTYPE svg PUBLIC "-//W3C//DTD SVG 1.1//EN" "http://www.w3.org/Graphics/SVG/1.1/DTD/svg11.dtd">
<!-- Creator: CorelDRAW 2020 (64-Bit) -->
<svg xmlns="http://www.w3.org/2000/svg" xml:space="preserve" width="40px" height="40px" version="1.1" style="shape-rendering:geometricPrecision; text-rendering:geometricPrecision; image-rendering:optimizeQuality; fill-rule:evenodd; clip-rule:evenodd"
viewBox="0 0 64.08 64.08"
 xmlns:xlink="http://www.w3.org/1999/xlink"
 xmlns:xodm="http://www.corel.com/coreldraw/odm/2003">
 <defs>
  <style type="text/css">
   <![CDATA[
    .fil1 {fill:#FEFEFE}
    .fil0 {fill:white;fill-rule:nonzero;fill-opacity:0.101961}
   ]]>
  </style>
 </defs>
 <g id="Layer_x0020_1">
  <metadata id="CorelCorpID_0Corel-Layer"/>
  <g id="_1654629760064">
   <path class="fil0" d="M0 32.04c0,-8.84 3.59,-16.85 9.38,-22.65 5.81,-5.8 13.82,-9.39 22.66,-9.39 8.85,0 16.86,3.59 22.66,9.38 5.8,5.81 9.38,13.82 9.38,22.66 0,8.84 -3.58,16.86 -9.38,22.66 -5.8,5.8 -13.82,9.38 -22.66,9.38 -8.84,0 -16.85,-3.58 -22.65,-9.38 -5.8,-5.8 -9.39,-13.82 -9.39,-22.66zm10.67 -21.37c-5.47,5.47 -8.85,13.03 -8.85,21.37 0,8.35 3.38,15.91 8.85,21.37 5.47,5.47 13.03,8.85 21.37,8.85 8.35,0 15.91,-3.38 21.37,-8.84 5.47,-5.47 8.85,-13.03 8.85,-21.38 0,-8.34 -3.38,-15.9 -8.85,-21.37 -5.46,-5.47 -13.02,-8.85 -21.37,-8.85 -8.34,0 -15.9,3.38 -21.37,8.85z"/>
   <path class="fil1" d="M28.61 33.7c-0.68,0.48 -0.93,0.85 -1.44,1.44 -0.48,0.57 -0.99,1 -1.47,1.56 -1.15,1.36 -8.45,8.99 -8.63,9.45 3.57,0.13 2.12,0.18 5.51,-3.17l2.82 -3.11c0.48,-0.56 0.99,-1 1.47,-1.56 0.49,-0.57 1,-1 1.47,-1.56 0.42,-0.49 0.88,-1.17 1.53,-1.56l7.54 10c0.95,1.28 0.65,0.97 2.58,0.97 2.32,0 4.72,0.06 7.02,-0.01 -0.34,-0.84 -2.25,-3.11 -2.92,-4.02 -1.83,-2.44 -8.01,-10.51 -9.21,-12.38l10.72 -11.8c-2.49,-0.02 -2.21,-0.5 -3.91,1.5l-6.62 7.11c-0.25,0.26 -0.43,0.49 -0.67,0.78 -0.36,0.43 -0.36,0.5 -0.77,0.71 -1.02,-1.03 -7.34,-9.95 -7.66,-10.08l-8.8 -0.02c0.14,0.76 11.18,14.66 11.44,15.75zm10.66 10.52l3.88 -0.01c-0.28,-0.65 -3.77,-5.12 -4.48,-6.06l-9.14 -12.25c-0.76,-1.02 -1.5,-2.01 -2.28,-3.07 -0.4,-0.53 -0.69,-0.89 -1.13,-1.47 -1.43,-1.89 -0.35,-1.47 -5.12,-1.47 0.42,0.86 8.28,11.18 9.08,12.25 1.5,2.01 2.99,4 4.51,6.04 0.57,0.76 4.26,5.81 4.68,6.04z"/>
  </g>
 </g>
</svg>
