<svg width="35" height="35" viewBox="0 0 35 35" fill="none" xmlns="http://www.w3.org/2000/svg">
<g clip-path="url(#clip0_1_3458)">
<path d="M34.3964 28.9652H0.603474C0.270224 28.9652 0 28.6949 0 28.3617V6.63765C0 6.3044 0.270224 6.03418 0.603474 6.03418H34.3965C34.7297 6.03418 34.9999 6.3044 34.9999 6.63765V28.3617C34.9999 28.6949 34.7296 28.9652 34.3964 28.9652Z" fill="#41479B"/>
<path d="M34.9999 6.63765C34.9999 6.3044 34.7296 6.03418 34.3964 6.03418H31.6965L20.5171 13.3587V6.03418H14.4826V13.3587L3.30325 6.03418H0.603474C0.270224 6.03418 0 6.3044 0 6.63765V8.19836L9.5914 14.4824H0V20.5169H9.5914L0 26.801V28.3617C0 28.6949 0.270224 28.9652 0.603474 28.9652H3.30332L14.4828 21.6407V28.9652H20.5172V21.6407L31.6967 28.9652H34.3965C34.7298 28.9652 35 28.6949 35 28.3617V26.801L25.4086 20.5169H34.9999V14.4825H25.4085L34.9999 8.19836V6.63765Z" fill="#F5F5F5"/>
<path d="M34.9999 15.6894H19.3103V6.03418H15.6896V15.6894H0V19.31H15.6896V28.9652H19.3103V19.31H34.9999V15.6894Z" fill="#FF4B55"/>
<path d="M12.2332 20.5166L0.0175781 28.4461C0.0603026 28.7375 0.300585 28.9649 0.603894 28.9649H1.43507L14.45 20.5167H12.2332V20.5166Z" fill="#FF4B55"/>
<path d="M23.6796 20.5166H21.4629L34.4588 28.9524C34.7617 28.9201 35.0008 28.6728 35.0008 28.3614V27.8652L23.6796 20.5166Z" fill="#FF4B55"/>
<path d="M0 7.30355L11.0591 14.4822H13.2758L0.351571 6.09277C0.145126 6.18868 0 6.39478 0 6.63739V7.30355Z" fill="#FF4B55"/>
<path d="M22.7343 14.4824L34.9793 6.53382C34.9284 6.25204 34.6933 6.03418 34.3968 6.03418H33.5323L20.5176 14.4824H22.7343Z" fill="#FF4B55"/>
</g>
<defs>
<clipPath id="clip0_1_3458">
<rect width="35" height="35" fill="white"/>
</clipPath>
</defs>
</svg>
