<svg width="35" height="35" viewBox="0 0 35 35" fill="none" xmlns="http://www.w3.org/2000/svg">
<g clip-path="url(#clip0_1_3452)">
<path d="M34.3965 28.9652H0.603475C0.270224 28.9652 0 28.695 0 28.3617V6.63765C0 6.3044 0.270224 6.03418 0.603475 6.03418H34.3965C34.7298 6.03418 35 6.3044 35 6.63765V28.3617C34.9999 28.6951 34.7297 28.9652 34.3965 28.9652Z" fill="#F5F5F5"/>
<path d="M34.9999 7.79819H0V6.63765C0 6.3044 0.270224 6.03418 0.603475 6.03418H34.3965C34.7298 6.03418 35 6.3044 35 6.63765L34.9999 7.79819Z" fill="#FF4B55"/>
<path d="M34.9999 13.0898H0V14.8538H34.9999V13.0898Z" fill="#FF4B55"/>
<path d="M34.9999 9.56152H0V11.3255H34.9999V9.56152Z" fill="#FF4B55"/>
<path d="M34.9999 18.3812H0.603476C0.270224 18.3812 0 18.111 0 17.7777V16.6172H34.9999V18.3812Z" fill="#FF4B55"/>
<path d="M34.9999 23.6738H0V25.4378H34.9999V23.6738Z" fill="#FF4B55"/>
<path d="M34.3965 28.9651H0.603476C0.270224 28.9651 0 28.6949 0 28.3616V27.2012H34.9999V28.3617C34.9999 28.695 34.7297 28.9651 34.3965 28.9651Z" fill="#FF4B55"/>
<path d="M34.9999 20.1455H0V21.9095H34.9999V20.1455Z" fill="#FF4B55"/>
<path d="M15.6896 6.03418H0.603475C0.270224 6.03418 0 6.30434 0 6.63759V17.7781C0 18.1113 0.270224 18.3816 0.603475 18.3816H15.6897C16.0229 18.3816 16.2931 18.1113 16.2931 17.7781V6.63759C16.2931 6.30434 16.0229 6.03418 15.6896 6.03418Z" fill="#41479B"/>
<path d="M1.69487 7.41976L1.82844 7.82035L2.2507 7.82356C2.30538 7.82404 2.32801 7.89377 2.28405 7.92624L1.94438 8.17712L2.0718 8.57968C2.08834 8.63177 2.02894 8.67498 1.98444 8.64312L1.64093 8.39764L1.29743 8.64319C1.25292 8.67498 1.19366 8.63184 1.21006 8.57975L1.33748 8.17718L0.997808 7.92631C0.953853 7.89377 0.97648 7.82411 1.03117 7.82363L1.45342 7.82042L1.587 7.41983C1.60422 7.36788 1.6775 7.36788 1.69487 7.41976Z" fill="#F5F5F5"/>
<path d="M1.69487 9.51542L1.82844 9.916L2.2507 9.91921C2.30538 9.91969 2.32801 9.98942 2.28405 10.0219L1.94438 10.2728L2.0718 10.6753C2.08834 10.7274 2.02894 10.7706 1.98444 10.7388L1.64093 10.4933L1.29743 10.7388C1.25292 10.7706 1.19366 10.7275 1.21006 10.6754L1.33748 10.2728L0.997808 10.022C0.953853 9.98942 0.97648 9.91976 1.03117 9.91928L1.45342 9.91607L1.587 9.51548C1.60422 9.4636 1.6775 9.4636 1.69487 9.51542Z" fill="#F5F5F5"/>
<path d="M1.69487 11.6111L1.82844 12.0117L2.2507 12.0149C2.30538 12.0154 2.32801 12.0851 2.28405 12.1176L1.94438 12.3685L2.0718 12.771C2.08834 12.8231 2.02894 12.8663 1.98444 12.8345L1.64093 12.589L1.29743 12.8345C1.25292 12.8663 1.19366 12.8232 1.21006 12.7711L1.33748 12.3685L0.997808 12.1177C0.953853 12.0851 0.97648 12.0155 1.03117 12.015L1.45342 12.0118L1.587 11.6112C1.60422 11.5593 1.6775 11.5593 1.69487 11.6111Z" fill="#F5F5F5"/>
<path d="M1.69487 13.7059L1.82844 14.1065L2.2507 14.1097C2.30538 14.1102 2.32801 14.1799 2.28405 14.2124L1.94438 14.4633L2.0718 14.8658C2.08834 14.9179 2.02894 14.9611 1.98444 14.9293L1.64093 14.6838L1.29743 14.9293C1.25292 14.9611 1.19366 14.918 1.21006 14.8659L1.33748 14.4633L0.997808 14.2124C0.953853 14.1799 0.97648 14.1102 1.03117 14.1098L1.45342 14.1066L1.587 13.706C1.60422 13.654 1.6775 13.654 1.69487 13.7059Z" fill="#F5F5F5"/>
<path d="M1.69487 15.8017L1.82844 16.2022L2.2507 16.2054C2.30538 16.2059 2.32801 16.2757 2.28405 16.3081L1.94438 16.559L2.0718 16.9616C2.08834 17.0137 2.02894 17.0569 1.98444 17.025L1.64093 16.7795L1.29743 17.0251C1.25292 17.0569 1.19366 17.0137 1.21006 16.9616L1.33748 16.5591L0.997808 16.3082C0.953853 16.2757 0.97648 16.206 1.03117 16.2055L1.45342 16.2023L1.587 15.8017C1.60422 15.7497 1.6775 15.7497 1.69487 15.8017Z" fill="#F5F5F5"/>
<path d="M3.32182 8.44707L3.45539 8.84765L3.87765 8.85086C3.93234 8.85134 3.95496 8.92107 3.91101 8.95354L3.57133 9.20442L3.69875 9.60699C3.71529 9.65908 3.65589 9.70228 3.61139 9.67042L3.26788 9.42488L2.92438 9.67042C2.87988 9.70221 2.82061 9.65908 2.83702 9.60699L2.96444 9.20442L2.62476 8.95354C2.58081 8.921 2.60343 8.85134 2.65812 8.85086L3.08037 8.84765L3.21395 8.44707C3.23111 8.39525 3.30452 8.39525 3.32182 8.44707Z" fill="#F5F5F5"/>
<path d="M3.32182 10.5428L3.45539 10.9434L3.87765 10.9466C3.93234 10.9471 3.95496 11.0168 3.91101 11.0493L3.57133 11.3002L3.69875 11.7027C3.71529 11.7548 3.65589 11.798 3.61139 11.7662L3.26788 11.5206L2.92438 11.7662C2.87988 11.798 2.82061 11.7549 2.83702 11.7027L2.96444 11.3002L2.62476 11.0493C2.58081 11.0168 2.60343 10.9471 2.65812 10.9466L3.08037 10.9434L3.21395 10.5428C3.23111 10.4909 3.30452 10.4909 3.32182 10.5428Z" fill="#F5F5F5"/>
<path d="M3.32182 12.6385L3.45539 13.0391L3.87765 13.0423C3.93234 13.0428 3.95496 13.1125 3.91101 13.145L3.57133 13.3959L3.69875 13.7984C3.71529 13.8505 3.65589 13.8937 3.61139 13.8619L3.26788 13.6163L2.92438 13.8619C2.87988 13.8937 2.82061 13.8505 2.83702 13.7984L2.96444 13.3959L2.62476 13.145C2.58081 13.1125 2.60343 13.0428 2.65812 13.0423L3.08037 13.0391L3.21395 12.6385C3.23111 12.5866 3.30452 12.5866 3.32182 12.6385Z" fill="#F5F5F5"/>
<path d="M3.32182 14.7342L3.45539 15.1348L3.87765 15.138C3.93234 15.1385 3.95496 15.2082 3.91101 15.2406L3.57133 15.4915L3.69875 15.8941C3.71529 15.9462 3.65589 15.9894 3.61139 15.9575L3.26788 15.712L2.92438 15.9575C2.87988 15.9893 2.82061 15.9462 2.83702 15.8941L2.96444 15.4915L2.62476 15.2406C2.58081 15.2081 2.60343 15.1385 2.65812 15.138L3.08037 15.1348L3.21395 14.7342C3.23111 14.6824 3.30452 14.6824 3.32182 14.7342Z" fill="#F5F5F5"/>
<path d="M4.9478 7.41977L5.08137 7.82036L5.50363 7.82357C5.55831 7.82405 5.58094 7.89378 5.53698 7.92625L5.19731 8.17712L5.32473 8.57969C5.34127 8.63178 5.28187 8.67498 5.23737 8.64313L4.89386 8.39758L4.55036 8.64313C4.50585 8.67492 4.44659 8.63178 4.46299 8.57969L4.59041 8.17712L4.25074 7.92625C4.20678 7.89371 4.22941 7.82405 4.2841 7.82357L4.70635 7.82036L4.83993 7.41977C4.85715 7.36789 4.9305 7.36789 4.9478 7.41977Z" fill="#F5F5F5"/>
<path d="M4.9478 9.51542L5.08137 9.91601L5.50363 9.91922C5.55831 9.9197 5.58094 9.98943 5.53698 10.0219L5.19731 10.2728L5.32473 10.6753C5.34127 10.7274 5.28187 10.7706 5.23737 10.7388L4.89386 10.4932L4.55036 10.7388C4.50585 10.7706 4.44659 10.7274 4.46299 10.6753L4.59041 10.2728L4.25074 10.0219C4.20678 9.98936 4.22941 9.9197 4.2841 9.91922L4.70635 9.91601L4.83993 9.51542C4.85715 9.46361 4.9305 9.46361 4.9478 9.51542Z" fill="#F5F5F5"/>
<path d="M4.9478 11.6111L5.08137 12.0117L5.50363 12.0149C5.55831 12.0154 5.58094 12.0851 5.53698 12.1176L5.19731 12.3685L5.32473 12.7711C5.34127 12.8231 5.28187 12.8663 5.23737 12.8345L4.89386 12.5889L4.55036 12.8345C4.50585 12.8663 4.44659 12.8231 4.46299 12.7711L4.59041 12.3685L4.25074 12.1176C4.20678 12.0851 4.22941 12.0154 4.2841 12.0149L4.70635 12.0117L4.83993 11.6111C4.85715 11.5593 4.9305 11.5593 4.9478 11.6111Z" fill="#F5F5F5"/>
<path d="M4.9478 13.7059L5.08137 14.1065L5.50363 14.1097C5.55831 14.1102 5.58094 14.1799 5.53698 14.2124L5.19731 14.4633L5.32473 14.8658C5.34127 14.9179 5.28187 14.9611 5.23737 14.9293L4.89386 14.6837L4.55036 14.9293C4.50585 14.9611 4.44659 14.9179 4.46299 14.8658L4.59041 14.4633L4.25074 14.2124C4.20678 14.1798 4.22941 14.1102 4.2841 14.1097L4.70635 14.1065L4.83993 13.7059C4.85715 13.654 4.9305 13.654 4.9478 13.7059Z" fill="#F5F5F5"/>
<path d="M4.9478 15.8017L5.08137 16.2022L5.50363 16.2055C5.55831 16.2059 5.58094 16.2757 5.53698 16.3081L5.19731 16.559L5.32473 16.9616C5.34127 17.0137 5.28187 17.0569 5.23737 17.025L4.89386 16.7795L4.55036 17.025C4.50585 17.0568 4.44659 17.0137 4.46299 16.9616L4.59041 16.559L4.25074 16.3081C4.20678 16.2756 4.22941 16.2059 4.2841 16.2055L4.70635 16.2022L4.83993 15.8017C4.85715 15.7497 4.9305 15.7497 4.9478 15.8017Z" fill="#F5F5F5"/>
<path d="M6.57475 8.44707L6.70832 8.84765L7.13058 8.85086C7.18527 8.85134 7.20789 8.92107 7.16394 8.95354L6.82426 9.20442L6.95168 9.60699C6.96822 9.65908 6.90882 9.70228 6.86432 9.67042L6.52081 9.42488L6.17731 9.67042C6.13281 9.70221 6.07354 9.65908 6.08995 9.60699L6.21737 9.20442L5.87769 8.95354C5.83374 8.921 5.85636 8.85134 5.91105 8.85086L6.3333 8.84765L6.46688 8.44707C6.48404 8.39525 6.55745 8.39525 6.57475 8.44707Z" fill="#F5F5F5"/>
<path d="M6.57475 10.5428L6.70832 10.9434L7.13058 10.9466C7.18527 10.9471 7.20789 11.0168 7.16394 11.0493L6.82426 11.3002L6.95168 11.7027C6.96822 11.7548 6.90882 11.798 6.86432 11.7662L6.52081 11.5206L6.17731 11.7662C6.13281 11.798 6.07354 11.7549 6.08995 11.7027L6.21737 11.3002L5.87769 11.0493C5.83374 11.0168 5.85636 10.9471 5.91105 10.9466L6.3333 10.9434L6.46688 10.5428C6.48404 10.4909 6.55745 10.4909 6.57475 10.5428Z" fill="#F5F5F5"/>
<path d="M6.57475 12.6385L6.70832 13.0391L7.13058 13.0423C7.18527 13.0428 7.20789 13.1125 7.16394 13.145L6.82426 13.3959L6.95168 13.7984C6.96822 13.8505 6.90882 13.8937 6.86432 13.8619L6.52081 13.6163L6.17731 13.8619C6.13281 13.8937 6.07354 13.8505 6.08995 13.7984L6.21737 13.3959L5.87769 13.145C5.83374 13.1125 5.85636 13.0428 5.91105 13.0423L6.3333 13.0391L6.46688 12.6385C6.48404 12.5866 6.55745 12.5866 6.57475 12.6385Z" fill="#F5F5F5"/>
<path d="M6.57475 14.7342L6.70832 15.1348L7.13058 15.138C7.18527 15.1385 7.20789 15.2082 7.16394 15.2406L6.82426 15.4915L6.95168 15.8941C6.96822 15.9462 6.90882 15.9894 6.86432 15.9575L6.52081 15.712L6.17731 15.9575C6.13281 15.9893 6.07354 15.9462 6.08995 15.8941L6.21737 15.4915L5.87769 15.2406C5.83374 15.2081 5.85636 15.1385 5.91105 15.138L6.3333 15.1348L6.46688 14.7342C6.48404 14.6824 6.55745 14.6824 6.57475 14.7342Z" fill="#F5F5F5"/>
<path d="M8.20079 7.41977L8.33437 7.82036L8.75662 7.82357C8.81131 7.82405 8.83394 7.89378 8.78998 7.92625L8.4503 8.17712L8.57773 8.57969C8.59427 8.63178 8.53486 8.67498 8.49036 8.64313L8.14679 8.39758L7.80329 8.64313C7.75878 8.67492 7.69952 8.63178 7.71592 8.57969L7.84334 8.17712L7.50367 7.92625C7.45971 7.89371 7.48234 7.82405 7.53703 7.82357L7.95928 7.82036L8.09285 7.41977C8.11015 7.36789 8.1835 7.36789 8.20079 7.41977Z" fill="#F5F5F5"/>
<path d="M8.20079 9.51542L8.33437 9.91601L8.75662 9.91922C8.81131 9.9197 8.83394 9.98943 8.78998 10.0219L8.4503 10.2728L8.57773 10.6753C8.59427 10.7274 8.53486 10.7706 8.49036 10.7388L8.14679 10.4932L7.80329 10.7388C7.75878 10.7706 7.69952 10.7274 7.71592 10.6753L7.84334 10.2728L7.50367 10.0219C7.45971 9.98936 7.48234 9.9197 7.53703 9.91922L7.95928 9.91601L8.09285 9.51542C8.11015 9.46361 8.1835 9.46361 8.20079 9.51542Z" fill="#F5F5F5"/>
<path d="M8.20079 11.6111L8.33437 12.0117L8.75662 12.0149C8.81131 12.0154 8.83394 12.0851 8.78998 12.1176L8.4503 12.3685L8.57773 12.7711C8.59427 12.8231 8.53486 12.8663 8.49036 12.8345L8.14679 12.5889L7.80329 12.8345C7.75878 12.8663 7.69952 12.8231 7.71592 12.7711L7.84334 12.3685L7.50367 12.1176C7.45971 12.0851 7.48234 12.0154 7.53703 12.0149L7.95928 12.0117L8.09285 11.6111C8.11015 11.5593 8.1835 11.5593 8.20079 11.6111Z" fill="#F5F5F5"/>
<path d="M8.20079 13.7059L8.33437 14.1065L8.75662 14.1097C8.81131 14.1102 8.83394 14.1799 8.78998 14.2124L8.4503 14.4633L8.57773 14.8658C8.59427 14.9179 8.53486 14.9611 8.49036 14.9293L8.14679 14.6837L7.80329 14.9293C7.75878 14.9611 7.69952 14.9179 7.71592 14.8658L7.84334 14.4633L7.50367 14.2124C7.45971 14.1798 7.48234 14.1102 7.53703 14.1097L7.95928 14.1065L8.09285 13.7059C8.11015 13.654 8.1835 13.654 8.20079 13.7059Z" fill="#F5F5F5"/>
<path d="M8.20079 15.8017L8.33437 16.2022L8.75662 16.2055C8.81131 16.2059 8.83394 16.2757 8.78998 16.3081L8.4503 16.559L8.57773 16.9616C8.59427 17.0137 8.53486 17.0569 8.49036 17.025L8.14679 16.7795L7.80329 17.025C7.75878 17.0568 7.69952 17.0137 7.71592 16.9616L7.84334 16.559L7.50367 16.3081C7.45971 16.2756 7.48234 16.2059 7.53703 16.2055L7.95928 16.2022L8.09285 15.8017C8.11015 15.7497 8.1835 15.7497 8.20079 15.8017Z" fill="#F5F5F5"/>
<path d="M9.82768 8.44707L9.96125 8.84765L10.3835 8.85086C10.4382 8.85134 10.4608 8.92107 10.4169 8.95354L10.0772 9.20442L10.2046 9.60699C10.2212 9.65908 10.1618 9.70228 10.1173 9.67042L9.77374 9.42488L9.43024 9.67042C9.38574 9.70221 9.32647 9.65908 9.34288 9.60699L9.4703 9.20442L9.13062 8.95354C9.08667 8.921 9.10929 8.85134 9.16398 8.85086L9.58624 8.84765L9.71981 8.44707C9.7371 8.39525 9.81039 8.39525 9.82768 8.44707Z" fill="#F5F5F5"/>
<path d="M9.82768 10.5428L9.96125 10.9434L10.3835 10.9466C10.4382 10.9471 10.4608 11.0168 10.4169 11.0493L10.0772 11.3002L10.2046 11.7027C10.2212 11.7548 10.1618 11.798 10.1173 11.7662L9.77374 11.5206L9.43024 11.7662C9.38574 11.798 9.32647 11.7549 9.34288 11.7027L9.4703 11.3002L9.13062 11.0493C9.08667 11.0168 9.10929 10.9471 9.16398 10.9466L9.58624 10.9434L9.71981 10.5428C9.7371 10.4909 9.81039 10.4909 9.82768 10.5428Z" fill="#F5F5F5"/>
<path d="M9.82768 12.6385L9.96125 13.0391L10.3835 13.0423C10.4382 13.0428 10.4608 13.1125 10.4169 13.145L10.0772 13.3959L10.2046 13.7984C10.2212 13.8505 10.1618 13.8937 10.1173 13.8619L9.77374 13.6163L9.43024 13.8619C9.38574 13.8937 9.32647 13.8505 9.34288 13.7984L9.4703 13.3959L9.13062 13.145C9.08667 13.1125 9.10929 13.0428 9.16398 13.0423L9.58624 13.0391L9.71981 12.6385C9.7371 12.5866 9.81039 12.5866 9.82768 12.6385Z" fill="#F5F5F5"/>
<path d="M9.82768 14.7342L9.96125 15.1348L10.3835 15.138C10.4382 15.1385 10.4608 15.2082 10.4169 15.2406L10.0772 15.4915L10.2046 15.8941C10.2212 15.9462 10.1618 15.9894 10.1173 15.9575L9.77374 15.712L9.43024 15.9575C9.38574 15.9893 9.32647 15.9462 9.34288 15.8941L9.4703 15.4915L9.13062 15.2406C9.08667 15.2081 9.10929 15.1385 9.16398 15.138L9.58624 15.1348L9.71981 14.7342C9.7371 14.6824 9.81039 14.6824 9.82768 14.7342Z" fill="#F5F5F5"/>
<path d="M11.4537 7.41977L11.5872 7.82036L12.0095 7.82357C12.0642 7.82405 12.0868 7.89378 12.0428 7.92625L11.7032 8.17712L11.8306 8.57969C11.8471 8.63178 11.7877 8.67498 11.7432 8.64313L11.3997 8.39758L11.0562 8.64313C11.0117 8.67492 10.9524 8.63178 10.9689 8.57969L11.0963 8.17712L10.7566 7.92625C10.7126 7.89371 10.7353 7.82405 10.79 7.82357L11.2122 7.82036L11.3458 7.41977C11.3629 7.36789 11.4364 7.36789 11.4537 7.41977Z" fill="#F5F5F5"/>
<path d="M11.4537 9.51542L11.5872 9.91601L12.0095 9.91922C12.0642 9.9197 12.0868 9.98943 12.0428 10.0219L11.7032 10.2728L11.8306 10.6753C11.8471 10.7274 11.7877 10.7706 11.7432 10.7388L11.3997 10.4932L11.0562 10.7388C11.0117 10.7706 10.9524 10.7274 10.9689 10.6753L11.0963 10.2728L10.7566 10.0219C10.7126 9.98936 10.7353 9.9197 10.79 9.91922L11.2122 9.91601L11.3458 9.51542C11.3629 9.46361 11.4364 9.46361 11.4537 9.51542Z" fill="#F5F5F5"/>
<path d="M11.4537 11.6111L11.5872 12.0117L12.0095 12.0149C12.0642 12.0154 12.0868 12.0851 12.0428 12.1176L11.7032 12.3685L11.8306 12.7711C11.8471 12.8231 11.7877 12.8663 11.7432 12.8345L11.3997 12.5889L11.0562 12.8345C11.0117 12.8663 10.9524 12.8231 10.9689 12.7711L11.0963 12.3685L10.7566 12.1176C10.7126 12.0851 10.7353 12.0154 10.79 12.0149L11.2122 12.0117L11.3458 11.6111C11.3629 11.5593 11.4364 11.5593 11.4537 11.6111Z" fill="#F5F5F5"/>
<path d="M11.4537 13.7059L11.5872 14.1065L12.0095 14.1097C12.0642 14.1102 12.0868 14.1799 12.0428 14.2124L11.7032 14.4633L11.8306 14.8658C11.8471 14.9179 11.7877 14.9611 11.7432 14.9293L11.3997 14.6837L11.0562 14.9293C11.0117 14.9611 10.9524 14.9179 10.9689 14.8658L11.0963 14.4633L10.7566 14.2124C10.7126 14.1798 10.7353 14.1102 10.79 14.1097L11.2122 14.1065L11.3458 13.7059C11.3629 13.654 11.4364 13.654 11.4537 13.7059Z" fill="#F5F5F5"/>
<path d="M11.4537 15.8017L11.5872 16.2022L12.0095 16.2055C12.0642 16.2059 12.0868 16.2757 12.0428 16.3081L11.7032 16.559L11.8306 16.9616C11.8471 17.0137 11.7877 17.0569 11.7432 17.025L11.3997 16.7795L11.0562 17.025C11.0117 17.0568 10.9524 17.0137 10.9689 16.9616L11.0963 16.559L10.7566 16.3081C10.7126 16.2756 10.7353 16.2059 10.79 16.2055L11.2122 16.2022L11.3458 15.8017C11.3629 15.7497 11.4364 15.7497 11.4537 15.8017Z" fill="#F5F5F5"/>
<path d="M13.0806 8.44707L13.2142 8.84765L13.6364 8.85086C13.6911 8.85134 13.7138 8.92107 13.6698 8.95354L13.3301 9.20442L13.4575 9.60699C13.4741 9.65908 13.4147 9.70228 13.3702 9.67042L13.0267 9.42488L12.6832 9.67042C12.6387 9.70221 12.5794 9.65908 12.5958 9.60699L12.7232 9.20442L12.3836 8.95354C12.3396 8.921 12.3622 8.85134 12.4169 8.85086L12.8392 8.84765L12.9727 8.44707C12.99 8.39525 13.0634 8.39525 13.0806 8.44707Z" fill="#F5F5F5"/>
<path d="M13.0806 10.5428L13.2142 10.9434L13.6364 10.9466C13.6911 10.9471 13.7138 11.0168 13.6698 11.0493L13.3301 11.3002L13.4575 11.7027C13.4741 11.7548 13.4147 11.798 13.3702 11.7662L13.0267 11.5206L12.6832 11.7662C12.6387 11.798 12.5794 11.7549 12.5958 11.7027L12.7232 11.3002L12.3836 11.0493C12.3396 11.0168 12.3622 10.9471 12.4169 10.9466L12.8392 10.9434L12.9727 10.5428C12.99 10.4909 13.0634 10.4909 13.0806 10.5428Z" fill="#F5F5F5"/>
<path d="M13.0806 12.6385L13.2142 13.0391L13.6364 13.0423C13.6911 13.0428 13.7138 13.1125 13.6698 13.145L13.3301 13.3959L13.4575 13.7984C13.4741 13.8505 13.4147 13.8937 13.3702 13.8619L13.0267 13.6163L12.6832 13.8619C12.6387 13.8937 12.5794 13.8505 12.5958 13.7984L12.7232 13.3959L12.3836 13.145C12.3396 13.1125 12.3622 13.0428 12.4169 13.0423L12.8392 13.0391L12.9727 12.6385C12.99 12.5866 13.0634 12.5866 13.0806 12.6385Z" fill="#F5F5F5"/>
<path d="M13.0806 14.7342L13.2142 15.1348L13.6364 15.138C13.6911 15.1385 13.7138 15.2082 13.6698 15.2406L13.3301 15.4915L13.4575 15.8941C13.4741 15.9462 13.4147 15.9894 13.3702 15.9575L13.0267 15.712L12.6832 15.9575C12.6387 15.9893 12.5794 15.9462 12.5958 15.8941L12.7232 15.4915L12.3836 15.2406C12.3396 15.2081 12.3622 15.1385 12.4169 15.138L12.8392 15.1348L12.9727 14.7342C12.99 14.6824 13.0634 14.6824 13.0806 14.7342Z" fill="#F5F5F5"/>
<path d="M14.7066 7.41977L14.8402 7.82036L15.2624 7.82357C15.3171 7.82405 15.3397 7.89378 15.2958 7.92625L14.9561 8.17712L15.0835 8.57969C15.1001 8.63178 15.0407 8.67498 14.9962 8.64313L14.6527 8.39758L14.3091 8.64313C14.2646 8.67492 14.2054 8.63178 14.2218 8.57969L14.3492 8.17712L14.0095 7.92625C13.9656 7.89371 13.9882 7.82405 14.0429 7.82357L14.4651 7.82036L14.5987 7.41977C14.6159 7.36789 14.6892 7.36789 14.7066 7.41977Z" fill="#F5F5F5"/>
<path d="M14.7066 9.51542L14.8402 9.91601L15.2624 9.91922C15.3171 9.9197 15.3397 9.98943 15.2958 10.0219L14.9561 10.2728L15.0835 10.6753C15.1001 10.7274 15.0407 10.7706 14.9962 10.7388L14.6527 10.4932L14.3091 10.7388C14.2646 10.7706 14.2054 10.7274 14.2218 10.6753L14.3492 10.2728L14.0095 10.0219C13.9656 9.98936 13.9882 9.9197 14.0429 9.91922L14.4651 9.91601L14.5987 9.51542C14.6159 9.46361 14.6892 9.46361 14.7066 9.51542Z" fill="#F5F5F5"/>
<path d="M14.7066 11.6111L14.8402 12.0117L15.2624 12.0149C15.3171 12.0154 15.3397 12.0851 15.2958 12.1176L14.9561 12.3685L15.0835 12.7711C15.1001 12.8231 15.0407 12.8663 14.9962 12.8345L14.6527 12.5889L14.3091 12.8345C14.2646 12.8663 14.2054 12.8231 14.2218 12.7711L14.3492 12.3685L14.0095 12.1176C13.9656 12.0851 13.9882 12.0154 14.0429 12.0149L14.4651 12.0117L14.5987 11.6111C14.6159 11.5593 14.6892 11.5593 14.7066 11.6111Z" fill="#F5F5F5"/>
<path d="M14.7066 13.7059L14.8402 14.1065L15.2624 14.1097C15.3171 14.1102 15.3397 14.1799 15.2958 14.2124L14.9561 14.4633L15.0835 14.8658C15.1001 14.9179 15.0407 14.9611 14.9962 14.9293L14.6527 14.6837L14.3091 14.9293C14.2646 14.9611 14.2054 14.9179 14.2218 14.8658L14.3492 14.4633L14.0095 14.2124C13.9656 14.1798 13.9882 14.1102 14.0429 14.1097L14.4651 14.1065L14.5987 13.7059C14.6159 13.654 14.6892 13.654 14.7066 13.7059Z" fill="#F5F5F5"/>
<path d="M14.7066 15.8017L14.8402 16.2022L15.2624 16.2055C15.3171 16.2059 15.3397 16.2757 15.2958 16.3081L14.9561 16.559L15.0835 16.9616C15.1001 17.0137 15.0407 17.0569 14.9962 17.025L14.6527 16.7795L14.3091 17.025C14.2646 17.0568 14.2054 17.0137 14.2218 16.9616L14.3492 16.559L14.0095 16.3081C13.9656 16.2756 13.9882 16.2059 14.0429 16.2055L14.4651 16.2022L14.5987 15.8017C14.6159 15.7497 14.6892 15.7497 14.7066 15.8017Z" fill="#F5F5F5"/>
</g>
<defs>
<clipPath id="clip0_1_3452">
<rect width="35" height="35" fill="white"/>
</clipPath>
</defs>
</svg>
