<?xml version="1.0" encoding="UTF-8"?><svg id="Layer_1" xmlns="http://www.w3.org/2000/svg" viewBox="0 0 24 24"><defs><style>.cls-1{fill:#ff7361;}</style></defs><path class="cls-1" d="M.02,16.78V7.22s.03-.05,.04-.08c.24-1.21,1.19-2.02,2.42-2.03,4.4,0,8.79,0,13.19,0,1.4,0,2.45,1.06,2.46,2.47,0,.54,0,1.08,0,1.62,0,.06,.01,.11,.02,.17l.06,.04c.05-.07,.09-.15,.15-.21,.94-.94,1.87-1.88,2.81-2.82,.51-.5,1.11-.66,1.78-.39,.65,.26,1.01,.77,1.01,1.47,.01,3.03,0,6.06,0,9.09,0,.42-.16,.79-.45,1.1-.66,.68-1.66,.67-2.37-.05-.94-.93-1.86-1.87-2.8-2.8-.06-.06-.12-.11-.22-.2,0,.62,0,1.19,0,1.76,0,.24-.02,.49-.08,.72-.28,1.1-1.24,1.82-2.42,1.82-4.37,0-8.73,0-13.1,0-.05,0-.11,0-.16,0-.71-.04-1.3-.33-1.77-.87-.31-.36-.46-.79-.57-1.23Zm7.09-4.79c0,.83,0,1.65,0,2.48,0,.35,.13,.62,.45,.78,.31,.15,.6,.08,.85-.11,1.08-.83,2.17-1.66,3.24-2.5,.46-.36,.46-.93,0-1.28-1.08-.85-2.17-1.68-3.26-2.51-.21-.16-.44-.22-.7-.15-.39,.11-.58,.39-.59,.87,0,.8,0,1.61,0,2.41Z"/></svg>