<svg width="38" height="37" viewBox="0 0 38 37" fill="none" xmlns="http://www.w3.org/2000/svg">
<path opacity="0.1" d="M1.5 18.5C1.5 8.83502 9.33502 1 19 1V0C8.78273 0 0.5 8.28273 0.5 18.5H1.5ZM19 1C28.665 1 36.5 8.83502 36.5 18.5H37.5C37.5 8.28273 29.2173 0 19 0V1ZM36.5 18.5C36.5 28.165 28.665 36 19 36V37C29.2173 37 37.5 28.7173 37.5 18.5H36.5ZM19 36C9.33502 36 1.5 28.165 1.5 18.5H0.5C0.5 28.7173 8.78273 37 19 37V36Z" fill="white"/>
<path d="M17.1992 22.0996V16.0996L21.9992 19.0997L17.1992 22.0996Z" fill="white" stroke="white"/>
<path d="M28.1992 14.0553C27.9784 13.2071 27.3277 12.5391 26.5016 12.3124C25.0044 11.9004 19.0004 11.9004 19.0004 11.9004C19.0004 11.9004 12.9964 11.9004 11.4991 12.3124C10.6729 12.5391 10.0223 13.2071 9.80152 14.0553C9.40039 15.5927 9.40039 18.8004 9.40039 18.8004C9.40039 18.8004 9.40039 22.008 9.80152 23.5455C10.0223 24.3937 10.6729 25.0617 11.4991 25.2885C12.9964 25.7004 19.0004 25.7004 19.0004 25.7004C19.0004 25.7004 25.0044 25.7004 26.5016 25.2885C27.3277 25.0617 27.9784 24.3937 28.1992 23.5455C28.6004 22.008 28.6004 18.8004 28.6004 18.8004C28.6004 18.8004 28.6004 15.5927 28.1992 14.0553Z" stroke="white"/>
</svg>
